%TF.GenerationSoftware,KiCad,Pcbnew,9.0.5*%
%TF.CreationDate,2025-12-04T18:44:12-08:00*%
%TF.ProjectId,devboard,64657662-6f61-4726-942e-6b696361645f,rev?*%
%TF.SameCoordinates,Original*%
%TF.FileFunction,Copper,L1,Top*%
%TF.FilePolarity,Positive*%
%FSLAX46Y46*%
G04 Gerber Fmt 4.6, Leading zero omitted, Abs format (unit mm)*
G04 Created by KiCad (PCBNEW 9.0.5) date 2025-12-04 18:44:12*
%MOMM*%
%LPD*%
G01*
G04 APERTURE LIST*
G04 Aperture macros list*
%AMRoundRect*
0 Rectangle with rounded corners*
0 $1 Rounding radius*
0 $2 $3 $4 $5 $6 $7 $8 $9 X,Y pos of 4 corners*
0 Add a 4 corners polygon primitive as box body*
4,1,4,$2,$3,$4,$5,$6,$7,$8,$9,$2,$3,0*
0 Add four circle primitives for the rounded corners*
1,1,$1+$1,$2,$3*
1,1,$1+$1,$4,$5*
1,1,$1+$1,$6,$7*
1,1,$1+$1,$8,$9*
0 Add four rect primitives between the rounded corners*
20,1,$1+$1,$2,$3,$4,$5,0*
20,1,$1+$1,$4,$5,$6,$7,0*
20,1,$1+$1,$6,$7,$8,$9,0*
20,1,$1+$1,$8,$9,$2,$3,0*%
G04 Aperture macros list end*
%TA.AperFunction,SMDPad,CuDef*%
%ADD10RoundRect,0.135000X0.135000X0.185000X-0.135000X0.185000X-0.135000X-0.185000X0.135000X-0.185000X0*%
%TD*%
%TA.AperFunction,SMDPad,CuDef*%
%ADD11RoundRect,0.135000X-0.185000X0.135000X-0.185000X-0.135000X0.185000X-0.135000X0.185000X0.135000X0*%
%TD*%
%TA.AperFunction,SMDPad,CuDef*%
%ADD12RoundRect,0.250000X-0.450000X-0.350000X0.450000X-0.350000X0.450000X0.350000X-0.450000X0.350000X0*%
%TD*%
%TA.AperFunction,SMDPad,CuDef*%
%ADD13RoundRect,0.140000X0.170000X-0.140000X0.170000X0.140000X-0.170000X0.140000X-0.170000X-0.140000X0*%
%TD*%
%TA.AperFunction,ComponentPad*%
%ADD14R,1.700000X1.700000*%
%TD*%
%TA.AperFunction,ComponentPad*%
%ADD15C,1.700000*%
%TD*%
%TA.AperFunction,SMDPad,CuDef*%
%ADD16RoundRect,0.140000X0.140000X0.170000X-0.140000X0.170000X-0.140000X-0.170000X0.140000X-0.170000X0*%
%TD*%
%TA.AperFunction,SMDPad,CuDef*%
%ADD17RoundRect,0.150000X0.150000X-0.587500X0.150000X0.587500X-0.150000X0.587500X-0.150000X-0.587500X0*%
%TD*%
%TA.AperFunction,SMDPad,CuDef*%
%ADD18RoundRect,0.140000X-0.170000X0.140000X-0.170000X-0.140000X0.170000X-0.140000X0.170000X0.140000X0*%
%TD*%
%TA.AperFunction,SMDPad,CuDef*%
%ADD19RoundRect,0.135000X-0.135000X-0.185000X0.135000X-0.185000X0.135000X0.185000X-0.135000X0.185000X0*%
%TD*%
%TA.AperFunction,SMDPad,CuDef*%
%ADD20RoundRect,0.225000X0.225000X0.250000X-0.225000X0.250000X-0.225000X-0.250000X0.225000X-0.250000X0*%
%TD*%
%TA.AperFunction,SMDPad,CuDef*%
%ADD21RoundRect,0.225000X-0.225000X-0.250000X0.225000X-0.250000X0.225000X0.250000X-0.225000X0.250000X0*%
%TD*%
%TA.AperFunction,SMDPad,CuDef*%
%ADD22RoundRect,0.062500X-0.387500X-0.062500X0.387500X-0.062500X0.387500X0.062500X-0.387500X0.062500X0*%
%TD*%
%TA.AperFunction,HeatsinkPad*%
%ADD23R,0.200000X1.600000*%
%TD*%
%TA.AperFunction,SMDPad,CuDef*%
%ADD24RoundRect,0.135000X0.185000X-0.135000X0.185000X0.135000X-0.185000X0.135000X-0.185000X-0.135000X0*%
%TD*%
%TA.AperFunction,SMDPad,CuDef*%
%ADD25RoundRect,0.140000X-0.140000X-0.170000X0.140000X-0.170000X0.140000X0.170000X-0.140000X0.170000X0*%
%TD*%
%TA.AperFunction,SMDPad,CuDef*%
%ADD26RoundRect,0.140000X0.219203X0.021213X0.021213X0.219203X-0.219203X-0.021213X-0.021213X-0.219203X0*%
%TD*%
%TA.AperFunction,SMDPad,CuDef*%
%ADD27RoundRect,0.140000X0.021213X-0.219203X0.219203X-0.021213X-0.021213X0.219203X-0.219203X0.021213X0*%
%TD*%
%TA.AperFunction,SMDPad,CuDef*%
%ADD28R,0.600000X1.450000*%
%TD*%
%TA.AperFunction,SMDPad,CuDef*%
%ADD29R,0.300000X1.450000*%
%TD*%
%TA.AperFunction,HeatsinkPad*%
%ADD30O,1.000000X2.100000*%
%TD*%
%TA.AperFunction,HeatsinkPad*%
%ADD31O,1.000000X1.600000*%
%TD*%
%TA.AperFunction,SMDPad,CuDef*%
%ADD32RoundRect,0.200000X-0.200000X-0.800000X0.200000X-0.800000X0.200000X0.800000X-0.200000X0.800000X0*%
%TD*%
%TA.AperFunction,SMDPad,CuDef*%
%ADD33RoundRect,0.050000X-0.387500X-0.050000X0.387500X-0.050000X0.387500X0.050000X-0.387500X0.050000X0*%
%TD*%
%TA.AperFunction,SMDPad,CuDef*%
%ADD34RoundRect,0.050000X-0.050000X-0.387500X0.050000X-0.387500X0.050000X0.387500X-0.050000X0.387500X0*%
%TD*%
%TA.AperFunction,HeatsinkPad*%
%ADD35R,3.200000X3.200000*%
%TD*%
%TA.AperFunction,ViaPad*%
%ADD36C,0.600000*%
%TD*%
%TA.AperFunction,Conductor*%
%ADD37C,0.200000*%
%TD*%
G04 APERTURE END LIST*
D10*
%TO.P,R6,1*%
%TO.N,+3V3*%
X149549999Y-77550000D03*
%TO.P,R6,2*%
%TO.N,QSPI_SS*%
X148530001Y-77550000D03*
%TD*%
D11*
%TO.P,R1,1*%
%TO.N,Net-(J1-CC1)*%
X154880000Y-66000001D03*
%TO.P,R1,2*%
%TO.N,GND*%
X154880000Y-67019999D03*
%TD*%
D12*
%TO.P,Crystal24,1,1*%
%TO.N,Net-(C16-Pad2)*%
X150990000Y-96270000D03*
%TO.P,Crystal24,2,2*%
%TO.N,GND*%
X153190000Y-96270000D03*
%TO.P,Crystal24,3,3*%
%TO.N,XIN*%
X153190000Y-94570000D03*
%TO.P,Crystal24,4,4*%
%TO.N,GND*%
X150990000Y-94570000D03*
%TD*%
D13*
%TO.P,C4,1*%
%TO.N,+3V3*%
X154460000Y-79270000D03*
%TO.P,C4,2*%
%TO.N,GND*%
X154460000Y-78310000D03*
%TD*%
%TO.P,C6,1*%
%TO.N,+3V3*%
X156790000Y-82900000D03*
%TO.P,C6,2*%
%TO.N,GND*%
X156790000Y-81940000D03*
%TD*%
D14*
%TO.P,J2,1,Pin_1*%
%TO.N,GPI00*%
X144490000Y-59140000D03*
D15*
%TO.P,J2,2,Pin_2*%
%TO.N,GPI01*%
X144490000Y-61680000D03*
%TO.P,J2,3,Pin_3*%
%TO.N,GND*%
X144490000Y-64220000D03*
%TO.P,J2,4,Pin_4*%
%TO.N,GPI02*%
X144490000Y-66760000D03*
%TO.P,J2,5,Pin_5*%
%TO.N,GPI03*%
X144490000Y-69300000D03*
%TO.P,J2,6,Pin_6*%
%TO.N,GPI04*%
X144490000Y-71840000D03*
%TO.P,J2,7,Pin_7*%
%TO.N,GPI05*%
X144490000Y-74380000D03*
%TO.P,J2,8,Pin_8*%
%TO.N,GND*%
X144490000Y-76920000D03*
%TO.P,J2,9,Pin_9*%
%TO.N,GPI06*%
X144490000Y-79460000D03*
%TO.P,J2,10,Pin_10*%
%TO.N,GPI07*%
X144490000Y-82000000D03*
%TO.P,J2,11,Pin_11*%
%TO.N,GPI08*%
X144490000Y-84540000D03*
%TO.P,J2,12,Pin_12*%
%TO.N,GPI09*%
X144490000Y-87080000D03*
%TO.P,J2,13,Pin_13*%
%TO.N,GND*%
X144490000Y-89620000D03*
%TO.P,J2,14,Pin_14*%
%TO.N,PGI010*%
X144490000Y-92160000D03*
%TO.P,J2,15,Pin_15*%
%TO.N,GPI011*%
X144490000Y-94700000D03*
%TO.P,J2,16,Pin_16*%
%TO.N,GPI012*%
X144490000Y-97240000D03*
%TO.P,J2,17,Pin_17*%
%TO.N,GPI013*%
X144490000Y-99780000D03*
%TO.P,J2,18,Pin_18*%
%TO.N,GND*%
X144490000Y-102320000D03*
%TO.P,J2,19,Pin_19*%
%TO.N,GPI014*%
X144490000Y-104860000D03*
%TO.P,J2,20,Pin_20*%
%TO.N,GPI015*%
X144490000Y-107400000D03*
%TD*%
D16*
%TO.P,C17,1*%
%TO.N,+3V3*%
X151400000Y-77520000D03*
%TO.P,C17,2*%
%TO.N,GND*%
X150440000Y-77520000D03*
%TD*%
D17*
%TO.P,U2,1,GND*%
%TO.N,GND*%
X149870000Y-70185000D03*
%TO.P,U2,2,VO*%
%TO.N,+3V3*%
X151770000Y-70185000D03*
%TO.P,U2,3,VI*%
%TO.N,VBUS*%
X150820000Y-68310000D03*
%TD*%
D14*
%TO.P,J4,1,Pin_1*%
%TO.N,SWCLK*%
X150740000Y-107120000D03*
D15*
%TO.P,J4,2,Pin_2*%
%TO.N,GND*%
X153280000Y-107120000D03*
%TO.P,J4,3,Pin_3*%
%TO.N,SWD*%
X155820000Y-107120000D03*
%TD*%
D18*
%TO.P,C16,1*%
%TO.N,GND*%
X149520000Y-94600000D03*
%TO.P,C16,2*%
%TO.N,Net-(C16-Pad2)*%
X149520000Y-95560000D03*
%TD*%
D19*
%TO.P,R5,1*%
%TO.N,Net-(C16-Pad2)*%
X152810000Y-93110000D03*
%TO.P,R5,2*%
%TO.N,XOUT*%
X153830000Y-93110000D03*
%TD*%
D20*
%TO.P,C13,1*%
%TO.N,VBUS*%
X151080000Y-66240000D03*
%TO.P,C13,2*%
%TO.N,GND*%
X149530000Y-66240000D03*
%TD*%
D14*
%TO.P,J3,1,Pin_1*%
%TO.N,VBUS*%
X162170000Y-59100000D03*
D15*
%TO.P,J3,2,Pin_2*%
%TO.N,GPI029_ADC3*%
X162170000Y-61640000D03*
%TO.P,J3,3,Pin_3*%
%TO.N,GND*%
X162170000Y-64180000D03*
%TO.P,J3,4,Pin_4*%
%TO.N,GPI028_ADC2*%
X162170000Y-66720000D03*
%TO.P,J3,5,Pin_5*%
%TO.N,+3V3*%
X162170000Y-69260000D03*
%TO.P,J3,6,Pin_6*%
%TO.N,GPIO27_ADC1*%
X162170000Y-71800000D03*
%TO.P,J3,7,Pin_7*%
%TO.N,GPI026_ADCO*%
X162170000Y-74340000D03*
%TO.P,J3,8,Pin_8*%
%TO.N,GND*%
X162170000Y-76880000D03*
%TO.P,J3,9,Pin_9*%
%TO.N,GPI024*%
X162170000Y-79420000D03*
%TO.P,J3,10,Pin_10*%
%TO.N,GPI023*%
X162170000Y-81960000D03*
%TO.P,J3,11,Pin_11*%
%TO.N,RUN*%
X162170000Y-84500000D03*
%TO.P,J3,12,Pin_12*%
%TO.N,GPI022*%
X162170000Y-87040000D03*
%TO.P,J3,13,Pin_13*%
%TO.N,GND*%
X162170000Y-89580000D03*
%TO.P,J3,14,Pin_14*%
%TO.N,GPI021*%
X162170000Y-92120000D03*
%TO.P,J3,15,Pin_15*%
%TO.N,GPI020*%
X162170000Y-94660000D03*
%TO.P,J3,16,Pin_16*%
%TO.N,GPI019*%
X162170000Y-97200000D03*
%TO.P,J3,17,Pin_17*%
%TO.N,GPI018*%
X162170000Y-99740000D03*
%TO.P,J3,18,Pin_18*%
%TO.N,GND*%
X162170000Y-102280000D03*
%TO.P,J3,19,Pin_19*%
%TO.N,GPI017*%
X162170000Y-104820000D03*
%TO.P,J3,20,Pin_20*%
%TO.N,GPI016*%
X162170000Y-107360000D03*
%TD*%
D11*
%TO.P,R3,1*%
%TO.N,USB_D-*%
X154880000Y-81440000D03*
%TO.P,R3,2*%
%TO.N,Net-(U1-USB_DM)*%
X154880000Y-82459998D03*
%TD*%
D16*
%TO.P,C2,1*%
%TO.N,+3V3*%
X148520000Y-88510000D03*
%TO.P,C2,2*%
%TO.N,GND*%
X147560000Y-88510000D03*
%TD*%
D21*
%TO.P,C14,1*%
%TO.N,GND*%
X150115000Y-72090000D03*
%TO.P,C14,2*%
%TO.N,+3V3*%
X151665000Y-72090000D03*
%TD*%
D22*
%TO.P,U3,1,~{CS}*%
%TO.N,QSPI_SS*%
X148635000Y-78567500D03*
%TO.P,U3,2,DO/IO_{1}*%
%TO.N,QSPI_SD1*%
X148635000Y-79067500D03*
%TO.P,U3,3,~{WP}/IO_{2}*%
%TO.N,QSPI_SD2*%
X148635000Y-79567500D03*
%TO.P,U3,4,GND*%
%TO.N,GND*%
X148635000Y-80067500D03*
%TO.P,U3,5,DI/IO_{0}*%
%TO.N,QSPI_SD0*%
X151485000Y-80067500D03*
%TO.P,U3,6,CLK*%
%TO.N,QSPI_SCLK*%
X151485000Y-79567500D03*
%TO.P,U3,7,~{HOLD}/~{RESET}/IO_{3}*%
%TO.N,QSPI_SD3*%
X151485000Y-79067500D03*
%TO.P,U3,8,VCC*%
%TO.N,+3V3*%
X151485000Y-78567500D03*
D23*
%TO.P,U3,9*%
%TO.N,N/C*%
X150060000Y-79317500D03*
%TD*%
D24*
%TO.P,R2,1*%
%TO.N,GND*%
X152430000Y-67309999D03*
%TO.P,R2,2*%
%TO.N,Net-(J1-CC2)*%
X152430000Y-66290001D03*
%TD*%
D18*
%TO.P,C3,1*%
%TO.N,+3V3*%
X154900000Y-92390000D03*
%TO.P,C3,2*%
%TO.N,GND*%
X154900000Y-93350000D03*
%TD*%
D13*
%TO.P,C10,1*%
%TO.N,+1V1*%
X153510000Y-79280000D03*
%TO.P,C10,2*%
%TO.N,GND*%
X153510000Y-78320000D03*
%TD*%
D25*
%TO.P,C8,1*%
%TO.N,+3V3*%
X158960000Y-88240000D03*
%TO.P,C8,2*%
%TO.N,GND*%
X159920000Y-88240000D03*
%TD*%
D26*
%TO.P,C1,1*%
%TO.N,+3V3*%
X149039411Y-83079411D03*
%TO.P,C1,2*%
%TO.N,GND*%
X148360589Y-82400589D03*
%TD*%
D27*
%TO.P,C9,1*%
%TO.N,+3V3*%
X157970589Y-82599411D03*
%TO.P,C9,2*%
%TO.N,GND*%
X158649411Y-81920589D03*
%TD*%
D13*
%TO.P,C5,1*%
%TO.N,+3V3*%
X155350000Y-77380000D03*
%TO.P,C5,2*%
%TO.N,GND*%
X155350000Y-76420000D03*
%TD*%
D24*
%TO.P,R7,1*%
%TO.N,Net-(R7-Pad1)*%
X156350000Y-98429999D03*
%TO.P,R7,2*%
%TO.N,QSPI_SS*%
X156350000Y-97410001D03*
%TD*%
D13*
%TO.P,C15,1*%
%TO.N,GND*%
X154720000Y-95910000D03*
%TO.P,C15,2*%
%TO.N,XIN*%
X154720000Y-94950000D03*
%TD*%
D25*
%TO.P,C7,1*%
%TO.N,+3V3*%
X157680000Y-83710000D03*
%TO.P,C7,2*%
%TO.N,GND*%
X158640000Y-83710000D03*
%TD*%
D28*
%TO.P,J1,A1,GND*%
%TO.N,GND*%
X156530000Y-64275000D03*
%TO.P,J1,A4,VBUS*%
%TO.N,VBUS*%
X155730000Y-64275000D03*
D29*
%TO.P,J1,A5,CC1*%
%TO.N,Net-(J1-CC1)*%
X154530000Y-64275000D03*
%TO.P,J1,A6,D+*%
%TO.N,USB_D+*%
X153530000Y-64275000D03*
%TO.P,J1,A7,D-*%
%TO.N,USB_D-*%
X153030000Y-64275000D03*
%TO.P,J1,A8*%
%TO.N,N/C*%
X152030000Y-64275000D03*
D28*
%TO.P,J1,A9,VBUS*%
%TO.N,VBUS*%
X150830000Y-64275000D03*
%TO.P,J1,A12,GND*%
%TO.N,GND*%
X150030000Y-64275000D03*
%TO.P,J1,B1,GND*%
X150030000Y-64275000D03*
%TO.P,J1,B4,VBUS*%
%TO.N,VBUS*%
X150830000Y-64275000D03*
D29*
%TO.P,J1,B5,CC2*%
%TO.N,Net-(J1-CC2)*%
X151530000Y-64275000D03*
%TO.P,J1,B6,D+*%
%TO.N,USB_D+*%
X152530000Y-64275000D03*
%TO.P,J1,B7,D-*%
%TO.N,USB_D-*%
X154030000Y-64275000D03*
%TO.P,J1,B8*%
%TO.N,N/C*%
X155030000Y-64275000D03*
D28*
%TO.P,J1,B9,VBUS*%
%TO.N,VBUS*%
X155730000Y-64275000D03*
%TO.P,J1,B12,GND*%
%TO.N,GND*%
X156530000Y-64275000D03*
D30*
%TO.P,J1,S1,SHIELD*%
X157600000Y-63360000D03*
D31*
X157600000Y-59180000D03*
D30*
X148960000Y-63360000D03*
D31*
X148960000Y-59180000D03*
%TD*%
D32*
%TO.P,SW1,1,1*%
%TO.N,GND*%
X151180000Y-100560000D03*
%TO.P,SW1,2,2*%
%TO.N,Net-(R7-Pad1)*%
X155380000Y-100560000D03*
%TD*%
D33*
%TO.P,U1,1,IOVDD*%
%TO.N,+3V3*%
X149832500Y-84620000D03*
%TO.P,U1,2,GPIO0*%
%TO.N,GPI00*%
X149832500Y-85020000D03*
%TO.P,U1,3,GPIO1*%
%TO.N,GPI01*%
X149832500Y-85420000D03*
%TO.P,U1,4,GPIO2*%
%TO.N,GPI02*%
X149832500Y-85820000D03*
%TO.P,U1,5,GPIO3*%
%TO.N,GPI03*%
X149832500Y-86220000D03*
%TO.P,U1,6,GPIO4*%
%TO.N,GPI04*%
X149832500Y-86620000D03*
%TO.P,U1,7,GPIO5*%
%TO.N,GPI05*%
X149832500Y-87020000D03*
%TO.P,U1,8,GPIO6*%
%TO.N,GPI06*%
X149832500Y-87420000D03*
%TO.P,U1,9,GPIO7*%
%TO.N,GPI07*%
X149832500Y-87820000D03*
%TO.P,U1,10,IOVDD*%
%TO.N,+3V3*%
X149832500Y-88220000D03*
%TO.P,U1,11,GPIO8*%
%TO.N,GPI08*%
X149832500Y-88620000D03*
%TO.P,U1,12,GPIO9*%
%TO.N,GPI09*%
X149832500Y-89020000D03*
%TO.P,U1,13,GPIO10*%
%TO.N,PGI010*%
X149832500Y-89420000D03*
%TO.P,U1,14,GPIO11*%
%TO.N,GPI011*%
X149832500Y-89820000D03*
D34*
%TO.P,U1,15,GPIO12*%
%TO.N,GPI012*%
X150670000Y-90657500D03*
%TO.P,U1,16,GPIO13*%
%TO.N,GPI013*%
X151070000Y-90657500D03*
%TO.P,U1,17,GPIO14*%
%TO.N,GPI014*%
X151470000Y-90657500D03*
%TO.P,U1,18,GPIO15*%
%TO.N,GPI015*%
X151870000Y-90657500D03*
%TO.P,U1,19,TESTEN*%
%TO.N,GND*%
X152270000Y-90657500D03*
%TO.P,U1,20,XIN*%
%TO.N,XIN*%
X152670000Y-90657500D03*
%TO.P,U1,21,XOUT*%
%TO.N,XOUT*%
X153070000Y-90657500D03*
%TO.P,U1,22,IOVDD*%
%TO.N,+3V3*%
X153470000Y-90657500D03*
%TO.P,U1,23,DVDD*%
%TO.N,+1V1*%
X153870000Y-90657500D03*
%TO.P,U1,24,SWCLK*%
%TO.N,SWCLK*%
X154270000Y-90657500D03*
%TO.P,U1,25,SWD*%
%TO.N,SWD*%
X154670000Y-90657500D03*
%TO.P,U1,26,RUN*%
%TO.N,RUN*%
X155070000Y-90657500D03*
%TO.P,U1,27,GPIO16*%
%TO.N,GPI016*%
X155470000Y-90657500D03*
%TO.P,U1,28,GPIO17*%
%TO.N,GPI017*%
X155870000Y-90657500D03*
D33*
%TO.P,U1,29,GPIO18*%
%TO.N,GPI018*%
X156707500Y-89820000D03*
%TO.P,U1,30,GPIO19*%
%TO.N,GPI019*%
X156707500Y-89420000D03*
%TO.P,U1,31,GPIO20*%
%TO.N,GPI020*%
X156707500Y-89020000D03*
%TO.P,U1,32,GPIO21*%
%TO.N,GPI021*%
X156707500Y-88620000D03*
%TO.P,U1,33,IOVDD*%
%TO.N,+3V3*%
X156707500Y-88220000D03*
%TO.P,U1,34,GPIO22*%
%TO.N,GPI022*%
X156707500Y-87820000D03*
%TO.P,U1,35,GPIO23*%
%TO.N,GPI023*%
X156707500Y-87420000D03*
%TO.P,U1,36,GPIO24*%
%TO.N,GPI024*%
X156707500Y-87020000D03*
%TO.P,U1,37,GPIO25*%
%TO.N,unconnected-(U1-GPIO25-Pad37)*%
X156707500Y-86620000D03*
%TO.P,U1,38,GPIO26_ADC0*%
%TO.N,GPI026_ADCO*%
X156707500Y-86220000D03*
%TO.P,U1,39,GPIO27_ADC1*%
%TO.N,GPIO27_ADC1*%
X156707500Y-85820000D03*
%TO.P,U1,40,GPIO28_ADC2*%
%TO.N,GPI028_ADC2*%
X156707500Y-85420000D03*
%TO.P,U1,41,GPIO29_ADC3*%
%TO.N,GPI029_ADC3*%
X156707500Y-85020000D03*
%TO.P,U1,42,IOVDD*%
%TO.N,+3V3*%
X156707500Y-84620000D03*
D34*
%TO.P,U1,43,ADC_AVDD*%
X155870000Y-83782500D03*
%TO.P,U1,44,VREG_IN*%
X155470000Y-83782500D03*
%TO.P,U1,45,VREG_VOUT*%
%TO.N,+1V1*%
X155070000Y-83782500D03*
%TO.P,U1,46,USB_DM*%
%TO.N,Net-(U1-USB_DM)*%
X154670000Y-83782500D03*
%TO.P,U1,47,USB_DP*%
%TO.N,Net-(U1-USB_DP)*%
X154270000Y-83782500D03*
%TO.P,U1,48,USB_VDD*%
%TO.N,+3V3*%
X153870000Y-83782500D03*
%TO.P,U1,49,IOVDD*%
X153470000Y-83782500D03*
%TO.P,U1,50,DVDD*%
%TO.N,+1V1*%
X153070000Y-83782500D03*
%TO.P,U1,51,QSPI_SD3*%
%TO.N,QSPI_SD3*%
X152670000Y-83782500D03*
%TO.P,U1,52,QSPI_SCLK*%
%TO.N,QSPI_SCLK*%
X152270000Y-83782500D03*
%TO.P,U1,53,QSPI_SD0*%
%TO.N,QSPI_SD0*%
X151870000Y-83782500D03*
%TO.P,U1,54,QSPI_SD2*%
%TO.N,QSPI_SD2*%
X151470000Y-83782500D03*
%TO.P,U1,55,QSPI_SD1*%
%TO.N,QSPI_SD1*%
X151070000Y-83782500D03*
%TO.P,U1,56,QSPI_SS*%
%TO.N,QSPI_SS*%
X150670000Y-83782500D03*
D35*
%TO.P,U1,57,GND*%
%TO.N,GND*%
X153270000Y-87220000D03*
%TD*%
D11*
%TO.P,R4,1*%
%TO.N,USB_D+*%
X153930000Y-81460000D03*
%TO.P,R4,2*%
%TO.N,Net-(U1-USB_DP)*%
X153930000Y-82479998D03*
%TD*%
D18*
%TO.P,C11,1*%
%TO.N,+1V1*%
X155820000Y-92420000D03*
%TO.P,C11,2*%
%TO.N,GND*%
X155820000Y-93380000D03*
%TD*%
D13*
%TO.P,C12,1*%
%TO.N,+1V1*%
X155830000Y-82580000D03*
%TO.P,C12,2*%
%TO.N,GND*%
X155830000Y-81620000D03*
%TD*%
D36*
%TO.N,+3V3*%
X153220000Y-70140000D03*
X154320735Y-75079265D03*
X157810000Y-81570000D03*
X153670000Y-80141473D03*
X153670000Y-83246176D03*
%TO.N,GND*%
X152470000Y-91800000D03*
X155180000Y-68170000D03*
X154970000Y-94130000D03*
X151340000Y-95071472D03*
X156771765Y-80396765D03*
X158767739Y-58987739D03*
X152190000Y-96238295D03*
X152910000Y-68160000D03*
X146780000Y-88420000D03*
X156630000Y-93390000D03*
X156790000Y-81160000D03*
%TO.N,XIN*%
X152979622Y-89721000D03*
X155970000Y-94760000D03*
%TO.N,GPI02*%
X147894000Y-83100000D03*
%TO.N,GPI01*%
X148295000Y-83842784D03*
%TO.N,GPI00*%
X148696000Y-84579713D03*
%TO.N,GPI08*%
X150770000Y-88570000D03*
%TO.N,GPI03*%
X147493000Y-81510000D03*
%TO.N,GPI029_ADC3*%
X158699735Y-84741735D03*
X158778000Y-80820000D03*
%TO.N,RUN*%
X155660000Y-89720000D03*
%TO.N,SWD*%
X154343152Y-89346848D03*
%TO.N,SWCLK*%
X151609236Y-89429237D03*
%TO.N,QSPI_SS*%
X150140000Y-97610000D03*
X150810000Y-85020000D03*
%TD*%
D37*
%TO.N,+3V3*%
X154460000Y-79270000D02*
X154460000Y-79350000D01*
X158940000Y-88220000D02*
X158960000Y-88240000D01*
X153060000Y-75090000D02*
X155350000Y-77380000D01*
X154900000Y-92390000D02*
X153841000Y-92390000D01*
X157810000Y-81570000D02*
X157810000Y-82438822D01*
X153841000Y-92390000D02*
X153470000Y-92019000D01*
X151665000Y-73695000D02*
X153060000Y-75090000D01*
X150789000Y-76909000D02*
X151400000Y-77520000D01*
X151665000Y-72090000D02*
X151665000Y-73695000D01*
X155350000Y-78380000D02*
X154460000Y-79270000D01*
X155350000Y-77380000D02*
X155350000Y-78380000D01*
X154460000Y-79350000D02*
X153670000Y-80140000D01*
X150113450Y-76909000D02*
X150789000Y-76909000D01*
X157090589Y-82599411D02*
X156790000Y-82900000D01*
X151815000Y-70140000D02*
X151770000Y-70185000D01*
X153060000Y-75090000D02*
X154310000Y-75090000D01*
X157680000Y-84019999D02*
X157080999Y-84619000D01*
X153670000Y-80140000D02*
X153670000Y-80141473D01*
X156707500Y-88220000D02*
X158940000Y-88220000D01*
X149549999Y-77472451D02*
X150113450Y-76909000D01*
X151400000Y-78482500D02*
X151485000Y-78567500D01*
X157080999Y-84619000D02*
X156590000Y-84619000D01*
X157810000Y-82438822D02*
X157970589Y-82599411D01*
X153670000Y-83582500D02*
X153870000Y-83782500D01*
X149832500Y-83872500D02*
X149039411Y-83079411D01*
X153470000Y-92019000D02*
X153470000Y-90657500D01*
X156752500Y-82900000D02*
X155870000Y-83782500D01*
X157970589Y-82599411D02*
X157090589Y-82599411D01*
X153670000Y-83582500D02*
X153470000Y-83782500D01*
X153670000Y-83246176D02*
X153670000Y-83582500D01*
X148810000Y-88220000D02*
X148520000Y-88510000D01*
X149549999Y-77550000D02*
X149549999Y-77472451D01*
X151770000Y-70185000D02*
X151770000Y-71985000D01*
X157970589Y-83419411D02*
X157680000Y-83710000D01*
X149832500Y-88220000D02*
X148810000Y-88220000D01*
X155870000Y-83782500D02*
X155470000Y-83782500D01*
X157680000Y-83710000D02*
X157680000Y-84019999D01*
X157970589Y-82599411D02*
X157970589Y-83419411D01*
X153220000Y-70140000D02*
X151815000Y-70140000D01*
X156790000Y-82900000D02*
X156752500Y-82900000D01*
X149832500Y-84620000D02*
X149832500Y-83872500D01*
X154310000Y-75090000D02*
X154320735Y-75079265D01*
X151770000Y-71985000D02*
X151665000Y-72090000D01*
%TO.N,GND*%
X155180000Y-68170000D02*
X155180000Y-67509998D01*
X149520000Y-94600000D02*
X150960000Y-94600000D01*
X150940000Y-94620000D02*
X150990000Y-94570000D01*
X154880000Y-67209998D02*
X155180000Y-67509998D01*
X151180000Y-105020000D02*
X153280000Y-107120000D01*
X155830000Y-81620000D02*
X155830000Y-81338530D01*
X153550000Y-95910000D02*
X153190000Y-96270000D01*
X158575478Y-59180000D02*
X158767739Y-58987739D01*
X152270000Y-90657500D02*
X152270000Y-91600000D01*
X156790000Y-81940000D02*
X156790000Y-81160000D01*
X152190000Y-96238295D02*
X153158295Y-96238295D01*
X154900000Y-94060000D02*
X154970000Y-94130000D01*
X155830000Y-81338530D02*
X156771765Y-80396765D01*
X150990000Y-94721472D02*
X151340000Y-95071472D01*
X154880000Y-67019999D02*
X154880000Y-67209998D01*
X154720000Y-95910000D02*
X153550000Y-95910000D01*
X156330000Y-81620000D02*
X156790000Y-81160000D01*
X146870000Y-88510000D02*
X146780000Y-88420000D01*
X152430000Y-67309999D02*
X152430000Y-67680000D01*
X150960000Y-94600000D02*
X150990000Y-94570000D01*
X150990000Y-94570000D02*
X150990000Y-94721472D01*
X152270000Y-91600000D02*
X152470000Y-91800000D01*
X146930000Y-88570000D02*
X146780000Y-88420000D01*
X152430000Y-67680000D02*
X152910000Y-68160000D01*
X155820000Y-93380000D02*
X156620000Y-93380000D01*
X147560000Y-88510000D02*
X146870000Y-88510000D01*
X153158295Y-96238295D02*
X153190000Y-96270000D01*
X155830000Y-81620000D02*
X156330000Y-81620000D01*
X154900000Y-93350000D02*
X154900000Y-94060000D01*
X151180000Y-100560000D02*
X151180000Y-105020000D01*
X157600000Y-59180000D02*
X158575478Y-59180000D01*
X156620000Y-93380000D02*
X156630000Y-93390000D01*
%TO.N,+1V1*%
X154020000Y-91640000D02*
X155160000Y-91640000D01*
X153070000Y-79720000D02*
X153070000Y-83782500D01*
X155160000Y-91640000D02*
X155820000Y-92300000D01*
X155737226Y-82580000D02*
X155070000Y-83247226D01*
X155070000Y-83247226D02*
X155070000Y-83782500D01*
X153510000Y-79280000D02*
X153070000Y-79720000D01*
X155820000Y-92300000D02*
X155820000Y-92420000D01*
X155830000Y-82580000D02*
X155737226Y-82580000D01*
X153870000Y-91490000D02*
X154020000Y-91640000D01*
X153870000Y-90657500D02*
X153870000Y-91490000D01*
%TO.N,VBUS*%
X156450008Y-62154000D02*
X155889992Y-62154000D01*
X150820000Y-68310000D02*
X150820000Y-66500000D01*
X150830000Y-63350000D02*
X150830000Y-64275000D01*
X150820000Y-66500000D02*
X151080000Y-66240000D01*
X155494000Y-62549992D02*
X151630008Y-62549992D01*
X151630008Y-62549992D02*
X150830000Y-63350000D01*
X151080000Y-64525000D02*
X150830000Y-64275000D01*
X155494000Y-64039000D02*
X155730000Y-64275000D01*
X155494000Y-62549992D02*
X155494000Y-64039000D01*
X151080000Y-66240000D02*
X151080000Y-64525000D01*
X162170000Y-59100000D02*
X159504008Y-59100000D01*
X159504008Y-59100000D02*
X156450008Y-62154000D01*
X155889992Y-62154000D02*
X155494000Y-62549992D01*
%TO.N,XIN*%
X153570000Y-94950000D02*
X153190000Y-94570000D01*
X152670000Y-90030622D02*
X152979622Y-89721000D01*
X152670000Y-90657500D02*
X152670000Y-90030622D01*
X154720000Y-94950000D02*
X153570000Y-94950000D01*
X154720000Y-94950000D02*
X155780000Y-94950000D01*
X155780000Y-94950000D02*
X155970000Y-94760000D01*
%TO.N,Net-(C16-Pad2)*%
X152189000Y-95071000D02*
X150990000Y-96270000D01*
X150280000Y-95560000D02*
X150990000Y-96270000D01*
X149520000Y-95560000D02*
X150280000Y-95560000D01*
X152189000Y-93731000D02*
X152189000Y-95071000D01*
X152810000Y-93110000D02*
X152189000Y-93731000D01*
%TO.N,Net-(J1-CC2)*%
X151530000Y-65390001D02*
X152430000Y-66290001D01*
X151530000Y-64275000D02*
X151530000Y-65390001D01*
%TO.N,USB_D+*%
X156090000Y-78890000D02*
X156090000Y-76000000D01*
X153820000Y-73730000D02*
X153820000Y-65640000D01*
X152530000Y-65252000D02*
X152579000Y-65301000D01*
X152579000Y-65301000D02*
X153481000Y-65301000D01*
X153530000Y-65252000D02*
X153530000Y-64275000D01*
X153481000Y-65301000D02*
X153530000Y-65252000D01*
X152530000Y-64275000D02*
X152530000Y-65252000D01*
X154010000Y-81410000D02*
X154010000Y-81630001D01*
X153930000Y-81460000D02*
X153930000Y-81050000D01*
X153930000Y-81050000D02*
X156090000Y-78890000D01*
X156090000Y-76000000D02*
X153820000Y-73730000D01*
X153820000Y-65640000D02*
X153481000Y-65301000D01*
%TO.N,USB_D-*%
X153030000Y-63298000D02*
X153079000Y-63249000D01*
X154221000Y-73480000D02*
X156491000Y-75750000D01*
X154030000Y-63298000D02*
X154030000Y-64275000D01*
X156491000Y-75750000D02*
X156491000Y-79829000D01*
X156491000Y-79829000D02*
X154880000Y-81440000D01*
X154030000Y-64275000D02*
X154030000Y-65282900D01*
X153030000Y-64275000D02*
X153030000Y-63298000D01*
X154030000Y-65282900D02*
X154221000Y-65473900D01*
X154221000Y-65473900D02*
X154221000Y-73480000D01*
X153079000Y-63249000D02*
X153981000Y-63249000D01*
X153981000Y-63249000D02*
X154030000Y-63298000D01*
%TO.N,Net-(J1-CC1)*%
X154880000Y-65565800D02*
X154880000Y-66000001D01*
X154530000Y-65215800D02*
X154880000Y-65565800D01*
X154530000Y-64275000D02*
X154530000Y-65215800D01*
%TO.N,GPI04*%
X146893000Y-74243000D02*
X146893000Y-86343000D01*
X144490000Y-71840000D02*
X146893000Y-74243000D01*
X147170000Y-86620000D02*
X149832500Y-86620000D01*
X146893000Y-86343000D02*
X147170000Y-86620000D01*
%TO.N,GPI02*%
X147801100Y-85820000D02*
X149832500Y-85820000D01*
X147894000Y-83100000D02*
X147695000Y-83299000D01*
X147695000Y-83299000D02*
X147695000Y-85713900D01*
X147695000Y-85713900D02*
X147801100Y-85820000D01*
%TO.N,PGI010*%
X145620000Y-91030000D02*
X144490000Y-92160000D01*
X147592900Y-91030000D02*
X145620000Y-91030000D01*
X149202900Y-89420000D02*
X147592900Y-91030000D01*
X149832500Y-89420000D02*
X149202900Y-89420000D01*
%TO.N,GPI01*%
X148295000Y-83842784D02*
X148096000Y-84041784D01*
X149041000Y-85420000D02*
X149040000Y-85419000D01*
X148096000Y-85140000D02*
X148130000Y-85140000D01*
X148409000Y-85419000D02*
X149040000Y-85419000D01*
X149832500Y-85420000D02*
X149041000Y-85420000D01*
X148130000Y-85140000D02*
X148409000Y-85419000D01*
X148096000Y-84041784D02*
X148096000Y-85140000D01*
%TO.N,GPI014*%
X151210000Y-92880000D02*
X151469000Y-92621000D01*
X148508000Y-100842000D02*
X148508000Y-94107350D01*
X151470000Y-92299000D02*
X151470000Y-90657500D01*
X144490000Y-104860000D02*
X148508000Y-100842000D01*
X151469000Y-92300000D02*
X151470000Y-92299000D01*
X148508000Y-94107350D02*
X149735350Y-92880000D01*
X149735350Y-92880000D02*
X151210000Y-92880000D01*
X151469000Y-92621000D02*
X151469000Y-92300000D01*
%TO.N,GPI06*%
X149832500Y-87420000D02*
X146500000Y-87420000D01*
X146091000Y-87011000D02*
X146091000Y-81061000D01*
X146091000Y-81061000D02*
X144490000Y-79460000D01*
X146500000Y-87420000D02*
X146091000Y-87011000D01*
%TO.N,GPI07*%
X145690000Y-87210000D02*
X146300000Y-87820000D01*
X146300000Y-87820000D02*
X149832500Y-87820000D01*
X145690000Y-83200000D02*
X145690000Y-87210000D01*
X144490000Y-82000000D02*
X145690000Y-83200000D01*
%TO.N,GPI00*%
X149832500Y-85020000D02*
X149192000Y-85020000D01*
X149192000Y-85020000D02*
X149190000Y-85018000D01*
X148696000Y-84579713D02*
X149134287Y-85018000D01*
X149134287Y-85018000D02*
X149190000Y-85018000D01*
%TO.N,GPI09*%
X149035800Y-89020000D02*
X149832500Y-89020000D01*
X146591000Y-89181000D02*
X148874800Y-89181000D01*
X148874800Y-89181000D02*
X149035800Y-89020000D01*
X144490000Y-87080000D02*
X146591000Y-89181000D01*
%TO.N,GPI08*%
X150770000Y-88570000D02*
X150417774Y-88570000D01*
X150417774Y-88570000D02*
X150367774Y-88620000D01*
%TO.N,GPI05*%
X149832500Y-87020000D02*
X146840000Y-87020000D01*
X146492000Y-76382000D02*
X144490000Y-74380000D01*
X146492000Y-86672000D02*
X146492000Y-76382000D01*
X146840000Y-87020000D02*
X146492000Y-86672000D01*
%TO.N,GPI015*%
X144490000Y-107400000D02*
X148909000Y-102981000D01*
X149852450Y-93330000D02*
X151580000Y-93330000D01*
X148909000Y-102981000D02*
X148909000Y-94273450D01*
X148909000Y-94273450D02*
X149852450Y-93330000D01*
X151580000Y-93330000D02*
X151870000Y-93040000D01*
X151870000Y-93040000D02*
X151870000Y-90657500D01*
%TO.N,GPI03*%
X147493000Y-81510000D02*
X147493000Y-81737000D01*
X147634000Y-86220000D02*
X147294000Y-85880000D01*
X147493000Y-81737000D02*
X147294000Y-81936000D01*
X149832500Y-86220000D02*
X147634000Y-86220000D01*
X147294000Y-81936000D02*
X147294000Y-85880000D01*
%TO.N,GPI013*%
X150840000Y-92479000D02*
X151070000Y-92249000D01*
X148107000Y-96163000D02*
X148107000Y-93941250D01*
X148107000Y-93941250D02*
X149569250Y-92479000D01*
X151070000Y-92249000D02*
X151070000Y-90657500D01*
X149569250Y-92479000D02*
X150840000Y-92479000D01*
X144490000Y-99780000D02*
X148107000Y-96163000D01*
%TO.N,GPI011*%
X147260000Y-91930000D02*
X149369000Y-89821000D01*
X144490000Y-94700000D02*
X147260000Y-91930000D01*
X149369000Y-89821000D02*
X149670000Y-89821000D01*
%TO.N,GPI012*%
X150670000Y-91678000D02*
X150670000Y-90657500D01*
X144490000Y-96991150D02*
X149403150Y-92078000D01*
X144490000Y-97240000D02*
X144490000Y-96991150D01*
X150270000Y-92078000D02*
X150670000Y-91678000D01*
X149403150Y-92078000D02*
X150270000Y-92078000D01*
%TO.N,GPI022*%
X160721000Y-87629000D02*
X158480000Y-87629000D01*
X158289000Y-87820000D02*
X156707500Y-87820000D01*
X162170000Y-87040000D02*
X161310000Y-87040000D01*
X161310000Y-87040000D02*
X160721000Y-87629000D01*
X158480000Y-87629000D02*
X158289000Y-87820000D01*
%TO.N,GPI029_ADC3*%
X158699735Y-84741735D02*
X158028265Y-84741735D01*
X158028265Y-84741735D02*
X157750000Y-85020000D01*
X157750000Y-85020000D02*
X156707500Y-85020000D01*
X158778000Y-65032000D02*
X158778000Y-80820000D01*
X162170000Y-61640000D02*
X158778000Y-65032000D01*
%TO.N,GPI020*%
X158894000Y-90504126D02*
X157409874Y-89020000D01*
X160197100Y-94660000D02*
X158894000Y-93356900D01*
X158894000Y-93356900D02*
X158894000Y-90504126D01*
X157409874Y-89020000D02*
X156707500Y-89020000D01*
X162170000Y-94660000D02*
X160197100Y-94660000D01*
%TO.N,GPI024*%
X160388800Y-86827000D02*
X158004900Y-86827000D01*
X157811900Y-87020000D02*
X156707500Y-87020000D01*
X162170000Y-79420000D02*
X160618000Y-80972000D01*
X158004900Y-86827000D02*
X157811900Y-87020000D01*
X160618000Y-80972000D02*
X160618000Y-86597800D01*
X160618000Y-86597800D02*
X160388800Y-86827000D01*
%TO.N,GPI021*%
X157576974Y-88620000D02*
X156707500Y-88620000D01*
X162170000Y-92120000D02*
X161076974Y-92120000D01*
X161076974Y-92120000D02*
X157576974Y-88620000D01*
%TO.N,GPI026_ADCO*%
X156707500Y-86220000D02*
X159460000Y-86220000D01*
X159540000Y-86300000D02*
X160180000Y-85660000D01*
X160180000Y-76330000D02*
X162170000Y-74340000D01*
X160180000Y-85660000D02*
X160180000Y-76330000D01*
X159460000Y-86220000D02*
X159540000Y-86300000D01*
%TO.N,GPI016*%
X158750000Y-107360000D02*
X157290000Y-105900000D01*
X157290000Y-92952450D02*
X155733550Y-91396000D01*
X162170000Y-107360000D02*
X158750000Y-107360000D01*
X155733550Y-91396000D02*
X155636000Y-91396000D01*
X155470000Y-91230000D02*
X155470000Y-90657500D01*
X157290000Y-105900000D02*
X157290000Y-92952450D01*
X155636000Y-91396000D02*
X155470000Y-91230000D01*
%TO.N,GPI028_ADC2*%
X159378000Y-84912000D02*
X158870000Y-85420000D01*
X159378000Y-69512000D02*
X159378000Y-84912000D01*
X162170000Y-66720000D02*
X159378000Y-69512000D01*
X158870000Y-85420000D02*
X156707500Y-85420000D01*
%TO.N,RUN*%
X155472226Y-89720000D02*
X155070000Y-90122226D01*
X155070000Y-90122226D02*
X155070000Y-90657500D01*
X155660000Y-89720000D02*
X155472226Y-89720000D01*
%TO.N,GPI019*%
X157242774Y-89420000D02*
X156707500Y-89420000D01*
X158493000Y-90670226D02*
X157242774Y-89420000D01*
X158493000Y-93523000D02*
X158493000Y-90670226D01*
X162170000Y-97200000D02*
X158493000Y-93523000D01*
%TO.N,GPI018*%
X158092000Y-95662000D02*
X158092000Y-91204500D01*
X158092000Y-91204500D02*
X156707500Y-89820000D01*
X162170000Y-99740000D02*
X158092000Y-95662000D01*
%TO.N,GPI023*%
X161019000Y-83111000D02*
X161019000Y-86763900D01*
X160554900Y-87228000D02*
X158171000Y-87228000D01*
X157979000Y-87420000D02*
X156707500Y-87420000D01*
X162170000Y-81960000D02*
X161019000Y-83111000D01*
X158171000Y-87228000D02*
X157979000Y-87420000D01*
X161019000Y-86763900D02*
X160554900Y-87228000D01*
%TO.N,GPIO27_ADC1*%
X159779000Y-85130000D02*
X159089000Y-85820000D01*
X159779000Y-74191000D02*
X159779000Y-85130000D01*
X162170000Y-71800000D02*
X159779000Y-74191000D01*
X159089000Y-85820000D02*
X156707500Y-85820000D01*
%TO.N,GPI017*%
X162170000Y-104820000D02*
X158830000Y-104820000D01*
X158830000Y-104820000D02*
X157691000Y-103681000D01*
X157691000Y-92478500D02*
X155870000Y-90657500D01*
X157691000Y-103681000D02*
X157691000Y-92478500D01*
%TO.N,SWD*%
X154670000Y-90657500D02*
X154670000Y-89673696D01*
X154670000Y-89673696D02*
X154343152Y-89346848D01*
%TO.N,SWCLK*%
X154270000Y-90122226D02*
X154270000Y-90657500D01*
X151917473Y-89121000D02*
X153268774Y-89121000D01*
X151609236Y-89429237D02*
X151917473Y-89121000D01*
X153268774Y-89121000D02*
X154270000Y-90122226D01*
X151800000Y-89440000D02*
X151800000Y-89430000D01*
%TO.N,Net-(U1-USB_DM)*%
X154670000Y-82669998D02*
X154670000Y-83782500D01*
X154880000Y-82459998D02*
X154670000Y-82669998D01*
%TO.N,Net-(U1-USB_DP)*%
X153930000Y-82479998D02*
X154270000Y-82819998D01*
X154270000Y-82819998D02*
X154270000Y-83782500D01*
%TO.N,XOUT*%
X153070000Y-91851900D02*
X153069000Y-91852900D01*
X153069000Y-92349000D02*
X153069000Y-91852900D01*
X153070000Y-90657500D02*
X153070000Y-91851900D01*
X153830000Y-93110000D02*
X153069000Y-92349000D01*
%TO.N,QSPI_SS*%
X150810000Y-85020000D02*
X150669000Y-84879000D01*
X149120000Y-81911000D02*
X149919000Y-82710000D01*
X148945602Y-81911000D02*
X149120000Y-81911000D01*
X150669000Y-84879000D02*
X150669000Y-83782500D01*
X148635000Y-78567500D02*
X148102102Y-78567500D01*
X148530001Y-78462501D02*
X148635000Y-78567500D01*
X148530001Y-77550000D02*
X148530001Y-78462501D01*
X150339999Y-97410001D02*
X150140000Y-97610000D01*
X147483000Y-79186602D02*
X147483000Y-80448398D01*
X156350000Y-97410001D02*
X150339999Y-97410001D01*
X148102102Y-78567500D02*
X147483000Y-79186602D01*
X147483000Y-80448398D02*
X148945602Y-81911000D01*
X149919000Y-82710000D02*
X149919000Y-83031500D01*
X149919000Y-83031500D02*
X150670000Y-83782500D01*
%TO.N,Net-(R7-Pad1)*%
X156350000Y-99590000D02*
X155380000Y-100560000D01*
X156350000Y-98429999D02*
X156350000Y-99590000D01*
%TO.N,QSPI_SD3*%
X152670000Y-79719602D02*
X152670000Y-83782500D01*
X151485000Y-79067500D02*
X152017898Y-79067500D01*
X152017898Y-79067500D02*
X152670000Y-79719602D01*
%TO.N,QSPI_SD0*%
X151485000Y-80067500D02*
X151870000Y-80452500D01*
X151870000Y-80452500D02*
X151870000Y-83782500D01*
%TO.N,QSPI_SD2*%
X149100798Y-79567500D02*
X149386000Y-79852702D01*
X149386000Y-79852702D02*
X149386000Y-80145500D01*
X150340500Y-81100000D02*
X150990000Y-81100000D01*
X149386000Y-80145500D02*
X150340500Y-81100000D01*
X150990000Y-81100000D02*
X151470000Y-81580000D01*
X148635000Y-79567500D02*
X149100798Y-79567500D01*
X151470000Y-81580000D02*
X151470000Y-83782500D01*
%TO.N,QSPI_SD1*%
X151070000Y-81830000D02*
X151070000Y-83782500D01*
X147884000Y-79352702D02*
X147884000Y-80282298D01*
X147884000Y-80282298D02*
X149111702Y-81510000D01*
X148169202Y-79067500D02*
X147884000Y-79352702D01*
X148635000Y-79067500D02*
X148169202Y-79067500D01*
X150750000Y-81510000D02*
X151070000Y-81830000D01*
X149111702Y-81510000D02*
X150750000Y-81510000D01*
%TO.N,QSPI_SCLK*%
X151485000Y-79567500D02*
X151950798Y-79567500D01*
X152270000Y-79886702D02*
X152270000Y-83782500D01*
X151950798Y-79567500D02*
X152270000Y-79886702D01*
%TD*%
%TA.AperFunction,Conductor*%
%TO.N,GND*%
G36*
X155487764Y-98030186D02*
G01*
X155533519Y-98082990D01*
X155543463Y-98152148D01*
X155539801Y-98169097D01*
X155532335Y-98194793D01*
X155532334Y-98194796D01*
X155529500Y-98230810D01*
X155529500Y-98629168D01*
X155529501Y-98629190D01*
X155532335Y-98665204D01*
X155577129Y-98819387D01*
X155577130Y-98819390D01*
X155577131Y-98819392D01*
X155608468Y-98872380D01*
X155625650Y-98940104D01*
X155603490Y-99006366D01*
X155549023Y-99050129D01*
X155501735Y-99059500D01*
X155123384Y-99059500D01*
X155104145Y-99061248D01*
X155052807Y-99065913D01*
X154890393Y-99116522D01*
X154744811Y-99204530D01*
X154624530Y-99324811D01*
X154536522Y-99470393D01*
X154485913Y-99632807D01*
X154479500Y-99703386D01*
X154479500Y-101416613D01*
X154485913Y-101487192D01*
X154485913Y-101487194D01*
X154485914Y-101487196D01*
X154524737Y-101611785D01*
X154536522Y-101649606D01*
X154624530Y-101795188D01*
X154744811Y-101915469D01*
X154744813Y-101915470D01*
X154744815Y-101915472D01*
X154890394Y-102003478D01*
X155052804Y-102054086D01*
X155123384Y-102060500D01*
X155123387Y-102060500D01*
X155636613Y-102060500D01*
X155636616Y-102060500D01*
X155707196Y-102054086D01*
X155869606Y-102003478D01*
X156015185Y-101915472D01*
X156135472Y-101795185D01*
X156223478Y-101649606D01*
X156274086Y-101487196D01*
X156280500Y-101416616D01*
X156280500Y-100560097D01*
X156289144Y-100530656D01*
X156295668Y-100500670D01*
X156299422Y-100495654D01*
X156300185Y-100493058D01*
X156316819Y-100472416D01*
X156477819Y-100311416D01*
X156539142Y-100277931D01*
X156608834Y-100282915D01*
X156664767Y-100324787D01*
X156689184Y-100390251D01*
X156689500Y-100399097D01*
X156689500Y-105813330D01*
X156689499Y-105813348D01*
X156689499Y-105844980D01*
X156669814Y-105912019D01*
X156617010Y-105957774D01*
X156547852Y-105967718D01*
X156509205Y-105955465D01*
X156338417Y-105868445D01*
X156338414Y-105868444D01*
X156338412Y-105868443D01*
X156136243Y-105802754D01*
X156136241Y-105802753D01*
X156136240Y-105802753D01*
X155974957Y-105777208D01*
X155926287Y-105769500D01*
X155713713Y-105769500D01*
X155665042Y-105777208D01*
X155503760Y-105802753D01*
X155301585Y-105868444D01*
X155112179Y-105964951D01*
X154940213Y-106089890D01*
X154789890Y-106240213D01*
X154664951Y-106412179D01*
X154568444Y-106601585D01*
X154502753Y-106803760D01*
X154470836Y-107005278D01*
X154440907Y-107068413D01*
X154381595Y-107105344D01*
X154311733Y-107104346D01*
X154253500Y-107065736D01*
X154226746Y-107010071D01*
X154193493Y-106842902D01*
X154193491Y-106842894D01*
X154121879Y-106670007D01*
X154106524Y-106647027D01*
X153762962Y-106990589D01*
X153745925Y-106927007D01*
X153680099Y-106812993D01*
X153587007Y-106719901D01*
X153472993Y-106654075D01*
X153409409Y-106637037D01*
X153752972Y-106293474D01*
X153752971Y-106293473D01*
X153730002Y-106278126D01*
X153729990Y-106278119D01*
X153557105Y-106206508D01*
X153557097Y-106206506D01*
X153373570Y-106170000D01*
X153186430Y-106170000D01*
X153002902Y-106206506D01*
X153002894Y-106206508D01*
X152830005Y-106278121D01*
X152807027Y-106293473D01*
X152807027Y-106293474D01*
X153150591Y-106637037D01*
X153087007Y-106654075D01*
X152972993Y-106719901D01*
X152879901Y-106812993D01*
X152814075Y-106927007D01*
X152797037Y-106990590D01*
X152453474Y-106647027D01*
X152453473Y-106647027D01*
X152438121Y-106670005D01*
X152366508Y-106842894D01*
X152366506Y-106842900D01*
X152336116Y-106995681D01*
X152303731Y-107057592D01*
X152243015Y-107092166D01*
X152173246Y-107088426D01*
X152116574Y-107047559D01*
X152090992Y-106982541D01*
X152090499Y-106971489D01*
X152090499Y-106222129D01*
X152090498Y-106222123D01*
X152090497Y-106222116D01*
X152084091Y-106162517D01*
X152080359Y-106152512D01*
X152033797Y-106027671D01*
X152033793Y-106027664D01*
X151947547Y-105912455D01*
X151947544Y-105912452D01*
X151832335Y-105826206D01*
X151832328Y-105826202D01*
X151697482Y-105775908D01*
X151697483Y-105775908D01*
X151637883Y-105769501D01*
X151637881Y-105769500D01*
X151637873Y-105769500D01*
X151637864Y-105769500D01*
X149842129Y-105769500D01*
X149842123Y-105769501D01*
X149782516Y-105775908D01*
X149647671Y-105826202D01*
X149647664Y-105826206D01*
X149532455Y-105912452D01*
X149532452Y-105912455D01*
X149446206Y-106027664D01*
X149446202Y-106027671D01*
X149395908Y-106162517D01*
X149391179Y-106206506D01*
X149389501Y-106222123D01*
X149389500Y-106222135D01*
X149389500Y-108017870D01*
X149389501Y-108017876D01*
X149395908Y-108077483D01*
X149427494Y-108162167D01*
X149432478Y-108231858D01*
X149398993Y-108293182D01*
X149337670Y-108326666D01*
X149311312Y-108329500D01*
X145727352Y-108329500D01*
X145660313Y-108309815D01*
X145614558Y-108257011D01*
X145604614Y-108187853D01*
X145627034Y-108132614D01*
X145645051Y-108107816D01*
X145741557Y-107918412D01*
X145807246Y-107716243D01*
X145840500Y-107506287D01*
X145840500Y-107293713D01*
X145807246Y-107083757D01*
X145793506Y-107041473D01*
X145791512Y-106971635D01*
X145823755Y-106915478D01*
X149389520Y-103349716D01*
X149468577Y-103212784D01*
X149509501Y-103060057D01*
X149509501Y-102901942D01*
X149509501Y-102894347D01*
X149509500Y-102894329D01*
X149509500Y-101404785D01*
X150680001Y-101404785D01*
X150680002Y-101404808D01*
X150682908Y-101429869D01*
X150682909Y-101429873D01*
X150728211Y-101532474D01*
X150728214Y-101532479D01*
X150807520Y-101611785D01*
X150807525Y-101611788D01*
X150910126Y-101657090D01*
X150910129Y-101657091D01*
X150929999Y-101659395D01*
X150930000Y-101659395D01*
X151430000Y-101659395D01*
X151449870Y-101657091D01*
X151449873Y-101657090D01*
X151552474Y-101611788D01*
X151552479Y-101611785D01*
X151631785Y-101532479D01*
X151631788Y-101532474D01*
X151677089Y-101429877D01*
X151677089Y-101429875D01*
X151679999Y-101404794D01*
X151680000Y-101404791D01*
X151680000Y-100810000D01*
X151430000Y-100810000D01*
X151430000Y-101659395D01*
X150930000Y-101659395D01*
X150930000Y-100810000D01*
X150680001Y-100810000D01*
X150680001Y-101404785D01*
X149509500Y-101404785D01*
X149509500Y-99715205D01*
X150680000Y-99715205D01*
X150680000Y-100310000D01*
X150930000Y-100310000D01*
X151430000Y-100310000D01*
X151679999Y-100310000D01*
X151679999Y-99715214D01*
X151679997Y-99715191D01*
X151677091Y-99690130D01*
X151677090Y-99690126D01*
X151631788Y-99587525D01*
X151631785Y-99587520D01*
X151552479Y-99508214D01*
X151552474Y-99508211D01*
X151449876Y-99462910D01*
X151430000Y-99460604D01*
X151430000Y-100310000D01*
X150930000Y-100310000D01*
X150930000Y-99460604D01*
X150910124Y-99462910D01*
X150910122Y-99462910D01*
X150807525Y-99508211D01*
X150807520Y-99508214D01*
X150728214Y-99587520D01*
X150728211Y-99587525D01*
X150682910Y-99690122D01*
X150682910Y-99690124D01*
X150680000Y-99715205D01*
X149509500Y-99715205D01*
X149509500Y-98383454D01*
X149529185Y-98316415D01*
X149581989Y-98270660D01*
X149651147Y-98260716D01*
X149702392Y-98280353D01*
X149760812Y-98319389D01*
X149760827Y-98319397D01*
X149906498Y-98379735D01*
X149906503Y-98379737D01*
X150061153Y-98410499D01*
X150061156Y-98410500D01*
X150061158Y-98410500D01*
X150218844Y-98410500D01*
X150218845Y-98410499D01*
X150373497Y-98379737D01*
X150519179Y-98319394D01*
X150650289Y-98231789D01*
X150761789Y-98120289D01*
X150798324Y-98065609D01*
X150851935Y-98020806D01*
X150901426Y-98010501D01*
X155420725Y-98010501D01*
X155487764Y-98030186D01*
G37*
%TD.AperFunction*%
%TA.AperFunction,Conductor*%
G36*
X154389616Y-107137182D02*
G01*
X154446288Y-107178049D01*
X154470835Y-107234720D01*
X154502754Y-107436243D01*
X154553678Y-107592971D01*
X154568444Y-107638414D01*
X154664951Y-107827820D01*
X154789890Y-107999786D01*
X154907923Y-108117819D01*
X154941408Y-108179142D01*
X154936424Y-108248834D01*
X154894552Y-108304767D01*
X154829088Y-108329184D01*
X154820242Y-108329500D01*
X152168688Y-108329500D01*
X152101649Y-108309815D01*
X152055894Y-108257011D01*
X152045950Y-108187853D01*
X152052506Y-108162167D01*
X152063528Y-108132614D01*
X152084091Y-108077483D01*
X152090500Y-108017873D01*
X152090499Y-107268509D01*
X152110183Y-107201472D01*
X152162987Y-107155717D01*
X152232146Y-107145773D01*
X152295702Y-107174798D01*
X152333476Y-107233576D01*
X152336116Y-107244319D01*
X152366506Y-107397099D01*
X152366508Y-107397105D01*
X152438119Y-107569990D01*
X152438126Y-107570002D01*
X152453473Y-107592971D01*
X152453474Y-107592972D01*
X152797037Y-107249409D01*
X152814075Y-107312993D01*
X152879901Y-107427007D01*
X152972993Y-107520099D01*
X153087007Y-107585925D01*
X153150590Y-107602962D01*
X152807027Y-107946524D01*
X152807027Y-107946525D01*
X152830007Y-107961879D01*
X153002894Y-108033491D01*
X153002902Y-108033493D01*
X153186428Y-108069999D01*
X153186431Y-108070000D01*
X153373569Y-108070000D01*
X153373571Y-108069999D01*
X153557097Y-108033493D01*
X153557105Y-108033491D01*
X153729992Y-107961879D01*
X153729998Y-107961876D01*
X153752971Y-107946525D01*
X153752972Y-107946524D01*
X153409410Y-107602962D01*
X153472993Y-107585925D01*
X153587007Y-107520099D01*
X153680099Y-107427007D01*
X153745925Y-107312993D01*
X153762962Y-107249410D01*
X154106524Y-107592972D01*
X154106525Y-107592971D01*
X154121876Y-107569998D01*
X154121879Y-107569992D01*
X154193491Y-107397105D01*
X154193493Y-107397097D01*
X154226746Y-107229928D01*
X154259131Y-107168017D01*
X154319846Y-107133443D01*
X154389616Y-107137182D01*
G37*
%TD.AperFunction*%
%TA.AperFunction,Conductor*%
G36*
X158496703Y-96916384D02*
G01*
X158503181Y-96922416D01*
X160836241Y-99255476D01*
X160869726Y-99316799D01*
X160866492Y-99381473D01*
X160852753Y-99423757D01*
X160819644Y-99632804D01*
X160819500Y-99633713D01*
X160819500Y-99846287D01*
X160852754Y-100056243D01*
X160866885Y-100099735D01*
X160918444Y-100258414D01*
X161014951Y-100447820D01*
X161139890Y-100619786D01*
X161290213Y-100770109D01*
X161462179Y-100895048D01*
X161462181Y-100895049D01*
X161462184Y-100895051D01*
X161651588Y-100991557D01*
X161853757Y-101057246D01*
X161853760Y-101057246D01*
X161853761Y-101057247D01*
X161914004Y-101066788D01*
X162055279Y-101089164D01*
X162118412Y-101119092D01*
X162155344Y-101178403D01*
X162154346Y-101248266D01*
X162115737Y-101306499D01*
X162060072Y-101333253D01*
X161892900Y-101366506D01*
X161892894Y-101366508D01*
X161720005Y-101438121D01*
X161697027Y-101453473D01*
X161697027Y-101453474D01*
X162040591Y-101797037D01*
X161977007Y-101814075D01*
X161862993Y-101879901D01*
X161769901Y-101972993D01*
X161704075Y-102087007D01*
X161687037Y-102150590D01*
X161343474Y-101807027D01*
X161343473Y-101807027D01*
X161328121Y-101830005D01*
X161256508Y-102002894D01*
X161256506Y-102002902D01*
X161220000Y-102186428D01*
X161220000Y-102373571D01*
X161256506Y-102557097D01*
X161256508Y-102557105D01*
X161328119Y-102729990D01*
X161328126Y-102730002D01*
X161343473Y-102752971D01*
X161343474Y-102752972D01*
X161687037Y-102409409D01*
X161704075Y-102472993D01*
X161769901Y-102587007D01*
X161862993Y-102680099D01*
X161977007Y-102745925D01*
X162040590Y-102762962D01*
X161697027Y-103106524D01*
X161697027Y-103106525D01*
X161720007Y-103121879D01*
X161892894Y-103193491D01*
X161892902Y-103193493D01*
X162060071Y-103226746D01*
X162121982Y-103259131D01*
X162156556Y-103319846D01*
X162152817Y-103389616D01*
X162111950Y-103446288D01*
X162055278Y-103470836D01*
X161853760Y-103502753D01*
X161651585Y-103568444D01*
X161462179Y-103664951D01*
X161290213Y-103789890D01*
X161139890Y-103940213D01*
X161014948Y-104112184D01*
X161014947Y-104112185D01*
X160994765Y-104151795D01*
X160946791Y-104202591D01*
X160884281Y-104219500D01*
X159130097Y-104219500D01*
X159063058Y-104199815D01*
X159042416Y-104183181D01*
X158327819Y-103468584D01*
X158294334Y-103407261D01*
X158291500Y-103380903D01*
X158291500Y-97010097D01*
X158311185Y-96943058D01*
X158363989Y-96897303D01*
X158433147Y-96887359D01*
X158496703Y-96916384D01*
G37*
%TD.AperFunction*%
%TA.AperFunction,Conductor*%
G36*
X143505703Y-102374800D02*
G01*
X143543477Y-102433578D01*
X143546117Y-102444322D01*
X143576506Y-102597097D01*
X143576508Y-102597105D01*
X143648119Y-102769990D01*
X143648126Y-102770002D01*
X143663473Y-102792971D01*
X143663474Y-102792972D01*
X144007037Y-102449409D01*
X144024075Y-102512993D01*
X144089901Y-102627007D01*
X144182993Y-102720099D01*
X144297007Y-102785925D01*
X144360590Y-102802962D01*
X144017027Y-103146524D01*
X144017027Y-103146525D01*
X144040007Y-103161879D01*
X144212894Y-103233491D01*
X144212902Y-103233493D01*
X144380071Y-103266746D01*
X144441982Y-103299131D01*
X144476556Y-103359846D01*
X144472817Y-103429616D01*
X144431950Y-103486288D01*
X144375278Y-103510836D01*
X144173760Y-103542753D01*
X143971585Y-103608444D01*
X143782179Y-103704951D01*
X143610213Y-103829890D01*
X143610209Y-103829894D01*
X143512181Y-103927923D01*
X143450858Y-103961408D01*
X143381166Y-103956424D01*
X143325233Y-103914552D01*
X143300816Y-103849088D01*
X143300500Y-103840242D01*
X143300500Y-102468513D01*
X143320185Y-102401474D01*
X143372989Y-102355719D01*
X143442147Y-102345775D01*
X143505703Y-102374800D01*
G37*
%TD.AperFunction*%
%TA.AperFunction,Conductor*%
G36*
X162996524Y-102752972D02*
G01*
X162996525Y-102752971D01*
X163011876Y-102729998D01*
X163011881Y-102729989D01*
X163060939Y-102611553D01*
X163104780Y-102557149D01*
X163171074Y-102535084D01*
X163238773Y-102552363D01*
X163286384Y-102603500D01*
X163299500Y-102659005D01*
X163299500Y-103740242D01*
X163279815Y-103807281D01*
X163227011Y-103853036D01*
X163157853Y-103862980D01*
X163094297Y-103833955D01*
X163087819Y-103827923D01*
X163049786Y-103789890D01*
X162877820Y-103664951D01*
X162688414Y-103568444D01*
X162688413Y-103568443D01*
X162688412Y-103568443D01*
X162486243Y-103502754D01*
X162486241Y-103502753D01*
X162486240Y-103502753D01*
X162335356Y-103478855D01*
X162284720Y-103470835D01*
X162221586Y-103440907D01*
X162184655Y-103381595D01*
X162185653Y-103311733D01*
X162224263Y-103253500D01*
X162279928Y-103226746D01*
X162447097Y-103193493D01*
X162447105Y-103193491D01*
X162619992Y-103121879D01*
X162619998Y-103121876D01*
X162642971Y-103106525D01*
X162642972Y-103106524D01*
X162299410Y-102762962D01*
X162362993Y-102745925D01*
X162477007Y-102680099D01*
X162570099Y-102587007D01*
X162635925Y-102472993D01*
X162652962Y-102409410D01*
X162996524Y-102752972D01*
G37*
%TD.AperFunction*%
%TA.AperFunction,Conductor*%
G36*
X147826834Y-97394914D02*
G01*
X147882767Y-97436786D01*
X147907184Y-97502250D01*
X147907500Y-97511096D01*
X147907500Y-100541902D01*
X147887815Y-100608941D01*
X147871181Y-100629583D01*
X144974522Y-103526241D01*
X144913199Y-103559726D01*
X144848523Y-103556491D01*
X144806245Y-103542754D01*
X144676732Y-103522241D01*
X144604720Y-103510835D01*
X144541586Y-103480907D01*
X144504655Y-103421595D01*
X144505653Y-103351733D01*
X144544263Y-103293500D01*
X144599928Y-103266746D01*
X144767097Y-103233493D01*
X144767105Y-103233491D01*
X144939992Y-103161879D01*
X144939998Y-103161876D01*
X144962971Y-103146525D01*
X144962972Y-103146524D01*
X144619410Y-102802962D01*
X144682993Y-102785925D01*
X144797007Y-102720099D01*
X144890099Y-102627007D01*
X144955925Y-102512993D01*
X144972962Y-102449410D01*
X145316524Y-102792972D01*
X145316525Y-102792971D01*
X145331876Y-102769998D01*
X145331879Y-102769992D01*
X145403491Y-102597105D01*
X145403493Y-102597097D01*
X145439999Y-102413571D01*
X145440000Y-102413569D01*
X145440000Y-102226430D01*
X145439999Y-102226428D01*
X145403493Y-102042902D01*
X145403491Y-102042894D01*
X145331879Y-101870007D01*
X145316524Y-101847027D01*
X144972962Y-102190589D01*
X144955925Y-102127007D01*
X144890099Y-102012993D01*
X144797007Y-101919901D01*
X144682993Y-101854075D01*
X144619409Y-101837037D01*
X144962972Y-101493474D01*
X144962971Y-101493473D01*
X144940002Y-101478126D01*
X144939990Y-101478119D01*
X144767105Y-101406508D01*
X144767099Y-101406506D01*
X144599927Y-101373253D01*
X144538016Y-101340868D01*
X144503442Y-101280152D01*
X144507182Y-101210382D01*
X144548049Y-101153711D01*
X144604718Y-101129164D01*
X144772032Y-101102664D01*
X144806238Y-101097247D01*
X144806238Y-101097246D01*
X144806243Y-101097246D01*
X145008412Y-101031557D01*
X145197816Y-100935051D01*
X145252876Y-100895048D01*
X145369786Y-100810109D01*
X145369788Y-100810106D01*
X145369792Y-100810104D01*
X145520104Y-100659792D01*
X145520106Y-100659788D01*
X145520109Y-100659786D01*
X145645048Y-100487820D01*
X145645047Y-100487820D01*
X145645051Y-100487816D01*
X145741557Y-100298412D01*
X145807246Y-100096243D01*
X145840500Y-99886287D01*
X145840500Y-99673713D01*
X145807246Y-99463757D01*
X145793506Y-99421473D01*
X145791512Y-99351635D01*
X145823755Y-99295478D01*
X147695820Y-97423413D01*
X147757142Y-97389930D01*
X147826834Y-97394914D01*
G37*
%TD.AperFunction*%
%TA.AperFunction,Conductor*%
G36*
X143505703Y-100706045D02*
G01*
X143512181Y-100712077D01*
X143610213Y-100810109D01*
X143782179Y-100935048D01*
X143782181Y-100935049D01*
X143782184Y-100935051D01*
X143971588Y-101031557D01*
X144173757Y-101097246D01*
X144173760Y-101097246D01*
X144173761Y-101097247D01*
X144234004Y-101106788D01*
X144375279Y-101129164D01*
X144438412Y-101159092D01*
X144475344Y-101218403D01*
X144474346Y-101288266D01*
X144435737Y-101346499D01*
X144380072Y-101373253D01*
X144212900Y-101406506D01*
X144212894Y-101406508D01*
X144040005Y-101478121D01*
X144017027Y-101493473D01*
X144017027Y-101493474D01*
X144360591Y-101837037D01*
X144297007Y-101854075D01*
X144182993Y-101919901D01*
X144089901Y-102012993D01*
X144024075Y-102127007D01*
X144007037Y-102190590D01*
X143663474Y-101847027D01*
X143663473Y-101847027D01*
X143648121Y-101870005D01*
X143576508Y-102042894D01*
X143576506Y-102042902D01*
X143546117Y-102195677D01*
X143513732Y-102257588D01*
X143453016Y-102292162D01*
X143383247Y-102288423D01*
X143326575Y-102247556D01*
X143300994Y-102182538D01*
X143300500Y-102171486D01*
X143300500Y-100799758D01*
X143320185Y-100732719D01*
X143372989Y-100686964D01*
X143442147Y-100677020D01*
X143505703Y-100706045D01*
G37*
%TD.AperFunction*%
%TA.AperFunction,Conductor*%
G36*
X163218834Y-100703576D02*
G01*
X163274767Y-100745448D01*
X163299184Y-100810912D01*
X163299500Y-100819758D01*
X163299500Y-101900994D01*
X163279815Y-101968033D01*
X163227011Y-102013788D01*
X163157853Y-102023732D01*
X163094297Y-101994707D01*
X163060939Y-101948447D01*
X163011879Y-101830007D01*
X162996524Y-101807027D01*
X162652962Y-102150589D01*
X162635925Y-102087007D01*
X162570099Y-101972993D01*
X162477007Y-101879901D01*
X162362993Y-101814075D01*
X162299409Y-101797037D01*
X162642972Y-101453474D01*
X162642971Y-101453473D01*
X162620002Y-101438126D01*
X162619990Y-101438119D01*
X162447105Y-101366508D01*
X162447099Y-101366506D01*
X162279927Y-101333253D01*
X162218016Y-101300868D01*
X162183442Y-101240152D01*
X162187182Y-101170382D01*
X162228049Y-101113711D01*
X162284718Y-101089164D01*
X162452032Y-101062664D01*
X162486238Y-101057247D01*
X162486238Y-101057246D01*
X162486243Y-101057246D01*
X162688412Y-100991557D01*
X162877816Y-100895051D01*
X162981449Y-100819758D01*
X163049786Y-100770109D01*
X163049788Y-100770106D01*
X163049792Y-100770104D01*
X163087819Y-100732077D01*
X163149142Y-100698592D01*
X163218834Y-100703576D01*
G37*
%TD.AperFunction*%
%TA.AperFunction,Conductor*%
G36*
X156608834Y-95355759D02*
G01*
X156664767Y-95397631D01*
X156689184Y-95463095D01*
X156689500Y-95471941D01*
X156689500Y-96515501D01*
X156669815Y-96582540D01*
X156617011Y-96628295D01*
X156565500Y-96639501D01*
X156100830Y-96639501D01*
X156100808Y-96639502D01*
X156064794Y-96642336D01*
X155910611Y-96687130D01*
X155910606Y-96687132D01*
X155772404Y-96768864D01*
X155772396Y-96768870D01*
X155768085Y-96773182D01*
X155706762Y-96806667D01*
X155680404Y-96809501D01*
X154110606Y-96809501D01*
X154043567Y-96789816D01*
X153997812Y-96737012D01*
X153987868Y-96667854D01*
X153987901Y-96667627D01*
X153990000Y-96653217D01*
X153990000Y-96520000D01*
X153314000Y-96520000D01*
X153305314Y-96517449D01*
X153296353Y-96518738D01*
X153272312Y-96507759D01*
X153246961Y-96500315D01*
X153241033Y-96493474D01*
X153232797Y-96489713D01*
X153218507Y-96467478D01*
X153201206Y-96447511D01*
X153198918Y-96436996D01*
X153195023Y-96430935D01*
X153190000Y-96396000D01*
X153190000Y-96160000D01*
X154334854Y-96160000D01*
X154376967Y-96223027D01*
X154376970Y-96223030D01*
X154456355Y-96276074D01*
X154470000Y-96278787D01*
X154970000Y-96278787D01*
X154983644Y-96276074D01*
X155063029Y-96223030D01*
X155063032Y-96223027D01*
X155105146Y-96160000D01*
X154970000Y-96160000D01*
X154970000Y-96278787D01*
X154470000Y-96278787D01*
X154470000Y-96160000D01*
X154334854Y-96160000D01*
X153190000Y-96160000D01*
X153190000Y-96144000D01*
X153209685Y-96076961D01*
X153262489Y-96031206D01*
X153314000Y-96020000D01*
X153989999Y-96020000D01*
X153989999Y-95886782D01*
X153980087Y-95818749D01*
X153944292Y-95745530D01*
X153943807Y-95742693D01*
X153941963Y-95740483D01*
X153937963Y-95708466D01*
X153932532Y-95676657D01*
X153933658Y-95674007D01*
X153933302Y-95671152D01*
X153947242Y-95642064D01*
X153959875Y-95612359D01*
X153962634Y-95609949D01*
X153963499Y-95608145D01*
X153990588Y-95585536D01*
X153999389Y-95580107D01*
X154066778Y-95561669D01*
X154133441Y-95582592D01*
X154152162Y-95597967D01*
X154154307Y-95600112D01*
X154154311Y-95600115D01*
X154154313Y-95600117D01*
X154293605Y-95682494D01*
X154319802Y-95690105D01*
X154449002Y-95727642D01*
X154449005Y-95727642D01*
X154449007Y-95727643D01*
X154485310Y-95730500D01*
X154485318Y-95730500D01*
X154954682Y-95730500D01*
X154954690Y-95730500D01*
X154990993Y-95727643D01*
X154990995Y-95727642D01*
X154990997Y-95727642D01*
X155057000Y-95708466D01*
X155146395Y-95682494D01*
X155285687Y-95600117D01*
X155288784Y-95597020D01*
X155298986Y-95586819D01*
X155360309Y-95553334D01*
X155386667Y-95550500D01*
X155693332Y-95550500D01*
X155700939Y-95550500D01*
X155700943Y-95550501D01*
X155828679Y-95550501D01*
X155852869Y-95552883D01*
X155871397Y-95556569D01*
X155891157Y-95560500D01*
X155891158Y-95560500D01*
X156048844Y-95560500D01*
X156048845Y-95560499D01*
X156203497Y-95529737D01*
X156349179Y-95469394D01*
X156480289Y-95381789D01*
X156480293Y-95381784D01*
X156484999Y-95377924D01*
X156486367Y-95379591D01*
X156539142Y-95350775D01*
X156608834Y-95355759D01*
G37*
%TD.AperFunction*%
%TA.AperFunction,Conductor*%
G36*
X150115601Y-94018598D02*
G01*
X150171534Y-94060470D01*
X150195951Y-94125934D01*
X150194972Y-94152656D01*
X150190000Y-94186784D01*
X150190000Y-94320000D01*
X150866000Y-94320000D01*
X150933039Y-94339685D01*
X150978794Y-94392489D01*
X150990000Y-94444000D01*
X150990000Y-94696000D01*
X150970315Y-94763039D01*
X150917511Y-94808794D01*
X150866000Y-94820000D01*
X150190001Y-94820000D01*
X150162767Y-94847234D01*
X150101443Y-94880718D01*
X150031752Y-94875733D01*
X150011965Y-94866284D01*
X149946393Y-94827505D01*
X149946390Y-94827504D01*
X149790997Y-94782357D01*
X149790991Y-94782356D01*
X149754697Y-94779500D01*
X149754690Y-94779500D01*
X149644000Y-94779500D01*
X149635314Y-94776949D01*
X149626353Y-94778238D01*
X149602312Y-94767259D01*
X149576961Y-94759815D01*
X149571033Y-94752974D01*
X149562797Y-94749213D01*
X149548507Y-94726978D01*
X149531206Y-94707011D01*
X149528918Y-94696496D01*
X149525023Y-94690435D01*
X149520000Y-94655500D01*
X149520000Y-94563047D01*
X149539685Y-94496008D01*
X149556319Y-94475366D01*
X149645366Y-94386319D01*
X149706689Y-94352834D01*
X149733047Y-94350000D01*
X149905146Y-94350000D01*
X149872177Y-94300659D01*
X149851299Y-94233982D01*
X149869783Y-94166602D01*
X149887595Y-94144090D01*
X149984587Y-94047098D01*
X150045909Y-94013614D01*
X150115601Y-94018598D01*
G37*
%TD.AperFunction*%
%TA.AperFunction,Conductor*%
G36*
X156515379Y-93042919D02*
G01*
X156559740Y-93071425D01*
X156653181Y-93164866D01*
X156686666Y-93226189D01*
X156689500Y-93252547D01*
X156689500Y-94048059D01*
X156669815Y-94115098D01*
X156617011Y-94160853D01*
X156547853Y-94170797D01*
X156484297Y-94141772D01*
X156481834Y-94139478D01*
X156480288Y-94138210D01*
X156349185Y-94050609D01*
X156349172Y-94050602D01*
X156203501Y-93990264D01*
X156203491Y-93990261D01*
X156123129Y-93974276D01*
X156061218Y-93941891D01*
X156026644Y-93881175D01*
X156030385Y-93811405D01*
X156071251Y-93754734D01*
X156078431Y-93749556D01*
X156163030Y-93693028D01*
X156163032Y-93693027D01*
X156205146Y-93630000D01*
X155479115Y-93630000D01*
X155475935Y-93691483D01*
X155476966Y-93693025D01*
X155476970Y-93693030D01*
X155556357Y-93746074D01*
X155556361Y-93746076D01*
X155626357Y-93759999D01*
X155626360Y-93760000D01*
X155669017Y-93760000D01*
X155736056Y-93779685D01*
X155781811Y-93832489D01*
X155791755Y-93901647D01*
X155762730Y-93965203D01*
X155716469Y-93998561D01*
X155590827Y-94050602D01*
X155590814Y-94050609D01*
X155459711Y-94138210D01*
X155361460Y-94236461D01*
X155300137Y-94269945D01*
X155230445Y-94264961D01*
X155210658Y-94255511D01*
X155146393Y-94217505D01*
X155146390Y-94217504D01*
X154990997Y-94172357D01*
X154990991Y-94172356D01*
X154954697Y-94169500D01*
X154954690Y-94169500D01*
X154502162Y-94169500D01*
X154478374Y-94162515D01*
X154453742Y-94159656D01*
X154445430Y-94152841D01*
X154435123Y-94149815D01*
X154418889Y-94131080D01*
X154399711Y-94115356D01*
X154394284Y-94102684D01*
X154389368Y-94097011D01*
X154384181Y-94083662D01*
X154380526Y-94072362D01*
X154379999Y-94067203D01*
X154332141Y-93922777D01*
X154331984Y-93922292D01*
X154331044Y-93887821D01*
X154329857Y-93853306D01*
X154330092Y-93852893D01*
X154330080Y-93852449D01*
X154334738Y-93844747D01*
X154362284Y-93796449D01*
X154448285Y-93710448D01*
X154509608Y-93676963D01*
X154579300Y-93681947D01*
X154604857Y-93695027D01*
X154636355Y-93716074D01*
X154650000Y-93718787D01*
X155150000Y-93718787D01*
X155163644Y-93716074D01*
X155228575Y-93672688D01*
X155232335Y-93600000D01*
X155150000Y-93600000D01*
X155150000Y-93718787D01*
X154650000Y-93718787D01*
X154650000Y-93474000D01*
X154669685Y-93406961D01*
X154722489Y-93361206D01*
X154774000Y-93350000D01*
X154900000Y-93350000D01*
X154900000Y-93294500D01*
X154919685Y-93227461D01*
X154972489Y-93181706D01*
X155024000Y-93170500D01*
X155134682Y-93170500D01*
X155134690Y-93170500D01*
X155170993Y-93167643D01*
X155170995Y-93167642D01*
X155170997Y-93167642D01*
X155285919Y-93134254D01*
X155355788Y-93134453D01*
X155383633Y-93146597D01*
X155388538Y-93149497D01*
X155393605Y-93152494D01*
X155417238Y-93159360D01*
X155549002Y-93197642D01*
X155549005Y-93197642D01*
X155549007Y-93197643D01*
X155585310Y-93200500D01*
X155585318Y-93200500D01*
X156054682Y-93200500D01*
X156054690Y-93200500D01*
X156090993Y-93197643D01*
X156090995Y-93197642D01*
X156090997Y-93197642D01*
X156152553Y-93179758D01*
X156246395Y-93152494D01*
X156385687Y-93070117D01*
X156385694Y-93070109D01*
X156391848Y-93065337D01*
X156392944Y-93066750D01*
X156445687Y-93037943D01*
X156515379Y-93042919D01*
G37*
%TD.AperFunction*%
%TA.AperFunction,Conductor*%
G36*
X143505703Y-89674800D02*
G01*
X143543477Y-89733578D01*
X143546117Y-89744322D01*
X143576506Y-89897097D01*
X143576508Y-89897105D01*
X143648119Y-90069990D01*
X143648126Y-90070002D01*
X143663473Y-90092971D01*
X143663474Y-90092972D01*
X144007037Y-89749409D01*
X144024075Y-89812993D01*
X144089901Y-89927007D01*
X144182993Y-90020099D01*
X144297007Y-90085925D01*
X144360590Y-90102962D01*
X144017027Y-90446524D01*
X144017027Y-90446525D01*
X144040007Y-90461879D01*
X144212894Y-90533491D01*
X144212902Y-90533493D01*
X144380071Y-90566746D01*
X144441982Y-90599131D01*
X144476556Y-90659846D01*
X144472817Y-90729616D01*
X144431950Y-90786288D01*
X144375278Y-90810836D01*
X144173760Y-90842753D01*
X143971585Y-90908444D01*
X143782179Y-91004951D01*
X143610213Y-91129890D01*
X143610209Y-91129894D01*
X143512181Y-91227923D01*
X143450858Y-91261408D01*
X143381166Y-91256424D01*
X143325233Y-91214552D01*
X143300816Y-91149088D01*
X143300500Y-91140242D01*
X143300500Y-89768513D01*
X143320185Y-89701474D01*
X143372989Y-89655719D01*
X143442147Y-89645775D01*
X143505703Y-89674800D01*
G37*
%TD.AperFunction*%
%TA.AperFunction,Conductor*%
G36*
X161227292Y-88046595D02*
G01*
X161253292Y-88048455D01*
X161264149Y-88054844D01*
X161270036Y-88056162D01*
X161275105Y-88061292D01*
X161285950Y-88067674D01*
X161286266Y-88067241D01*
X161462179Y-88195048D01*
X161462181Y-88195049D01*
X161462184Y-88195051D01*
X161651588Y-88291557D01*
X161853757Y-88357246D01*
X161853760Y-88357246D01*
X161853761Y-88357247D01*
X161914004Y-88366788D01*
X162055279Y-88389164D01*
X162118412Y-88419092D01*
X162155344Y-88478403D01*
X162154346Y-88548266D01*
X162115737Y-88606499D01*
X162060072Y-88633253D01*
X161892900Y-88666506D01*
X161892894Y-88666508D01*
X161720005Y-88738121D01*
X161697027Y-88753473D01*
X161697027Y-88753474D01*
X162040591Y-89097037D01*
X161977007Y-89114075D01*
X161862993Y-89179901D01*
X161769901Y-89272993D01*
X161704075Y-89387007D01*
X161687037Y-89450590D01*
X161343474Y-89107027D01*
X161343473Y-89107027D01*
X161328121Y-89130005D01*
X161256508Y-89302894D01*
X161256506Y-89302902D01*
X161220000Y-89486428D01*
X161220000Y-89673571D01*
X161256506Y-89857097D01*
X161256508Y-89857105D01*
X161328119Y-90029990D01*
X161328126Y-90030002D01*
X161343473Y-90052971D01*
X161343474Y-90052972D01*
X161687037Y-89709409D01*
X161704075Y-89772993D01*
X161769901Y-89887007D01*
X161862993Y-89980099D01*
X161977007Y-90045925D01*
X162040590Y-90062962D01*
X161697027Y-90406524D01*
X161697027Y-90406525D01*
X161720007Y-90421879D01*
X161892894Y-90493491D01*
X161892902Y-90493493D01*
X162060071Y-90526746D01*
X162121982Y-90559131D01*
X162156556Y-90619846D01*
X162152817Y-90689616D01*
X162111950Y-90746288D01*
X162055278Y-90770836D01*
X161853760Y-90802753D01*
X161651585Y-90868444D01*
X161462179Y-90964951D01*
X161290215Y-91089889D01*
X161180837Y-91199267D01*
X161119514Y-91232751D01*
X161049822Y-91227767D01*
X161005475Y-91199266D01*
X159068390Y-89262181D01*
X159034905Y-89200858D01*
X159039889Y-89131166D01*
X159081761Y-89075233D01*
X159147225Y-89050816D01*
X159156071Y-89050500D01*
X159164682Y-89050500D01*
X159164690Y-89050500D01*
X159200993Y-89047643D01*
X159200995Y-89047642D01*
X159200997Y-89047642D01*
X159241975Y-89035736D01*
X159356395Y-89002494D01*
X159495687Y-88920117D01*
X159610117Y-88805687D01*
X159692494Y-88666395D01*
X159704479Y-88625144D01*
X160170000Y-88625144D01*
X160233029Y-88583030D01*
X160233032Y-88583027D01*
X160286074Y-88503644D01*
X160288789Y-88490000D01*
X160170000Y-88490000D01*
X160170000Y-88625144D01*
X159704479Y-88625144D01*
X159737643Y-88510993D01*
X159740500Y-88474690D01*
X159740500Y-88364000D01*
X159760185Y-88296961D01*
X159812989Y-88251206D01*
X159864500Y-88240000D01*
X159941465Y-88240000D01*
X159955504Y-88232334D01*
X159981862Y-88229500D01*
X160634331Y-88229500D01*
X160634347Y-88229501D01*
X160641943Y-88229501D01*
X160800054Y-88229501D01*
X160800057Y-88229501D01*
X160952785Y-88188577D01*
X161032866Y-88142342D01*
X161089716Y-88109520D01*
X161128817Y-88070418D01*
X161136244Y-88064928D01*
X161160720Y-88055964D01*
X161183600Y-88043471D01*
X161193001Y-88044143D01*
X161201853Y-88040902D01*
X161227292Y-88046595D01*
G37*
%TD.AperFunction*%
%TA.AperFunction,Conductor*%
G36*
X162996524Y-90052972D02*
G01*
X162996525Y-90052971D01*
X163011876Y-90029998D01*
X163011881Y-90029989D01*
X163060939Y-89911553D01*
X163104780Y-89857149D01*
X163171074Y-89835084D01*
X163238773Y-89852363D01*
X163286384Y-89903500D01*
X163299500Y-89959005D01*
X163299500Y-91040242D01*
X163279815Y-91107281D01*
X163227011Y-91153036D01*
X163157853Y-91162980D01*
X163094297Y-91133955D01*
X163087819Y-91127923D01*
X163049786Y-91089890D01*
X162877820Y-90964951D01*
X162688414Y-90868444D01*
X162688413Y-90868443D01*
X162688412Y-90868443D01*
X162486243Y-90802754D01*
X162486241Y-90802753D01*
X162486240Y-90802753D01*
X162335356Y-90778855D01*
X162284720Y-90770835D01*
X162221586Y-90740907D01*
X162184655Y-90681595D01*
X162185653Y-90611733D01*
X162224263Y-90553500D01*
X162279928Y-90526746D01*
X162447097Y-90493493D01*
X162447105Y-90493491D01*
X162619992Y-90421879D01*
X162619998Y-90421876D01*
X162642971Y-90406525D01*
X162642972Y-90406524D01*
X162299410Y-90062962D01*
X162362993Y-90045925D01*
X162477007Y-89980099D01*
X162570099Y-89887007D01*
X162635925Y-89772993D01*
X162652962Y-89709410D01*
X162996524Y-90052972D01*
G37*
%TD.AperFunction*%
%TA.AperFunction,Conductor*%
G36*
X144974521Y-88413756D02*
G01*
X146222284Y-89661520D01*
X146222286Y-89661521D01*
X146222290Y-89661524D01*
X146341109Y-89730123D01*
X146359216Y-89740577D01*
X146511943Y-89781501D01*
X146511945Y-89781501D01*
X146677654Y-89781501D01*
X146677670Y-89781500D01*
X147692803Y-89781500D01*
X147759842Y-89801185D01*
X147805597Y-89853989D01*
X147815541Y-89923147D01*
X147786516Y-89986703D01*
X147780484Y-89993181D01*
X147380484Y-90393181D01*
X147319161Y-90426666D01*
X147292803Y-90429500D01*
X145540941Y-90429500D01*
X145507570Y-90438441D01*
X145507571Y-90438442D01*
X145388214Y-90470423D01*
X145388209Y-90470426D01*
X145251290Y-90549475D01*
X145251282Y-90549481D01*
X145139480Y-90661283D01*
X145139480Y-90661284D01*
X145139478Y-90661286D01*
X145054476Y-90746288D01*
X144974522Y-90826242D01*
X144913199Y-90859726D01*
X144848523Y-90856491D01*
X144806245Y-90842754D01*
X144676732Y-90822241D01*
X144604720Y-90810835D01*
X144541586Y-90780907D01*
X144504655Y-90721595D01*
X144505653Y-90651733D01*
X144544263Y-90593500D01*
X144599928Y-90566746D01*
X144767097Y-90533493D01*
X144767105Y-90533491D01*
X144939992Y-90461879D01*
X144939998Y-90461876D01*
X144962971Y-90446525D01*
X144962972Y-90446524D01*
X144619410Y-90102962D01*
X144682993Y-90085925D01*
X144797007Y-90020099D01*
X144890099Y-89927007D01*
X144955925Y-89812993D01*
X144972962Y-89749410D01*
X145316524Y-90092972D01*
X145316525Y-90092971D01*
X145331876Y-90069998D01*
X145331879Y-90069992D01*
X145403491Y-89897105D01*
X145403493Y-89897097D01*
X145439999Y-89713571D01*
X145440000Y-89713569D01*
X145440000Y-89526430D01*
X145439999Y-89526428D01*
X145403493Y-89342902D01*
X145403491Y-89342894D01*
X145331879Y-89170007D01*
X145316524Y-89147027D01*
X144972962Y-89490589D01*
X144955925Y-89427007D01*
X144890099Y-89312993D01*
X144797007Y-89219901D01*
X144682993Y-89154075D01*
X144619409Y-89137037D01*
X144962972Y-88793474D01*
X144962971Y-88793473D01*
X144940002Y-88778126D01*
X144939990Y-88778119D01*
X144767105Y-88706508D01*
X144767099Y-88706506D01*
X144599927Y-88673253D01*
X144538016Y-88640868D01*
X144503442Y-88580152D01*
X144507182Y-88510382D01*
X144548049Y-88453711D01*
X144604718Y-88429164D01*
X144772032Y-88402664D01*
X144806238Y-88397247D01*
X144806238Y-88397246D01*
X144806243Y-88397246D01*
X144848523Y-88383507D01*
X144918362Y-88381511D01*
X144974521Y-88413756D01*
G37*
%TD.AperFunction*%
%TA.AperFunction,Conductor*%
G36*
X143505703Y-88006045D02*
G01*
X143512181Y-88012077D01*
X143610213Y-88110109D01*
X143782179Y-88235048D01*
X143782181Y-88235049D01*
X143782184Y-88235051D01*
X143971588Y-88331557D01*
X144173757Y-88397246D01*
X144173760Y-88397246D01*
X144173761Y-88397247D01*
X144234004Y-88406788D01*
X144375279Y-88429164D01*
X144438412Y-88459092D01*
X144475344Y-88518403D01*
X144474346Y-88588266D01*
X144435737Y-88646499D01*
X144380072Y-88673253D01*
X144212900Y-88706506D01*
X144212894Y-88706508D01*
X144040005Y-88778121D01*
X144017027Y-88793473D01*
X144017027Y-88793474D01*
X144360591Y-89137037D01*
X144297007Y-89154075D01*
X144182993Y-89219901D01*
X144089901Y-89312993D01*
X144024075Y-89427007D01*
X144007037Y-89490590D01*
X143663474Y-89147027D01*
X143663473Y-89147027D01*
X143648121Y-89170005D01*
X143576508Y-89342894D01*
X143576506Y-89342902D01*
X143546117Y-89495677D01*
X143513732Y-89557588D01*
X143453016Y-89592162D01*
X143383247Y-89588423D01*
X143326575Y-89547556D01*
X143300994Y-89482538D01*
X143300500Y-89471486D01*
X143300500Y-88099758D01*
X143320185Y-88032719D01*
X143372989Y-87986964D01*
X143442147Y-87977020D01*
X143505703Y-88006045D01*
G37*
%TD.AperFunction*%
%TA.AperFunction,Conductor*%
G36*
X163218834Y-88003576D02*
G01*
X163274767Y-88045448D01*
X163299184Y-88110912D01*
X163299500Y-88119758D01*
X163299500Y-89200994D01*
X163279815Y-89268033D01*
X163227011Y-89313788D01*
X163157853Y-89323732D01*
X163094297Y-89294707D01*
X163060939Y-89248447D01*
X163011879Y-89130007D01*
X162996524Y-89107027D01*
X162652962Y-89450589D01*
X162635925Y-89387007D01*
X162570099Y-89272993D01*
X162477007Y-89179901D01*
X162362993Y-89114075D01*
X162299409Y-89097037D01*
X162642972Y-88753474D01*
X162642971Y-88753473D01*
X162620002Y-88738126D01*
X162619990Y-88738119D01*
X162447105Y-88666508D01*
X162447099Y-88666506D01*
X162279927Y-88633253D01*
X162218016Y-88600868D01*
X162183442Y-88540152D01*
X162187182Y-88470382D01*
X162228049Y-88413711D01*
X162284718Y-88389164D01*
X162452032Y-88362664D01*
X162486238Y-88357247D01*
X162486238Y-88357246D01*
X162486243Y-88357246D01*
X162688412Y-88291557D01*
X162877816Y-88195051D01*
X162945533Y-88145852D01*
X163049786Y-88070109D01*
X163049788Y-88070106D01*
X163049792Y-88070104D01*
X163087819Y-88032077D01*
X163149142Y-87998592D01*
X163218834Y-88003576D01*
G37*
%TD.AperFunction*%
%TA.AperFunction,Conductor*%
G36*
X152088434Y-84709876D02*
G01*
X152088436Y-84709877D01*
X152160821Y-84718569D01*
X152176897Y-84720500D01*
X152176898Y-84720500D01*
X152363103Y-84720500D01*
X152379178Y-84718569D01*
X152451564Y-84709877D01*
X152451565Y-84709876D01*
X152455215Y-84709438D01*
X152484785Y-84709438D01*
X152488434Y-84709876D01*
X152488436Y-84709877D01*
X152560821Y-84718569D01*
X152576897Y-84720500D01*
X152576898Y-84720500D01*
X152763103Y-84720500D01*
X152779178Y-84718569D01*
X152851564Y-84709877D01*
X152851565Y-84709876D01*
X152855215Y-84709438D01*
X152884785Y-84709438D01*
X152888434Y-84709876D01*
X152888436Y-84709877D01*
X152960821Y-84718569D01*
X152976897Y-84720500D01*
X152976898Y-84720500D01*
X153163103Y-84720500D01*
X153179178Y-84718569D01*
X153251564Y-84709877D01*
X153251565Y-84709876D01*
X153255215Y-84709438D01*
X153284785Y-84709438D01*
X153288434Y-84709876D01*
X153288436Y-84709877D01*
X153360821Y-84718569D01*
X153376897Y-84720500D01*
X153376898Y-84720500D01*
X153563103Y-84720500D01*
X153579178Y-84718569D01*
X153651564Y-84709877D01*
X153651565Y-84709876D01*
X153655215Y-84709438D01*
X153684785Y-84709438D01*
X153688434Y-84709876D01*
X153688436Y-84709877D01*
X153760821Y-84718569D01*
X153776897Y-84720500D01*
X153776898Y-84720500D01*
X153963103Y-84720500D01*
X153979178Y-84718569D01*
X154051564Y-84709877D01*
X154051565Y-84709876D01*
X154055215Y-84709438D01*
X154084785Y-84709438D01*
X154088434Y-84709876D01*
X154088436Y-84709877D01*
X154160821Y-84718569D01*
X154176897Y-84720500D01*
X154176898Y-84720500D01*
X154363103Y-84720500D01*
X154379178Y-84718569D01*
X154451564Y-84709877D01*
X154451565Y-84709876D01*
X154455215Y-84709438D01*
X154484785Y-84709438D01*
X154488434Y-84709876D01*
X154488436Y-84709877D01*
X154560821Y-84718569D01*
X154576897Y-84720500D01*
X154576898Y-84720500D01*
X154763103Y-84720500D01*
X154779178Y-84718569D01*
X154851564Y-84709877D01*
X154851565Y-84709876D01*
X154855215Y-84709438D01*
X154884785Y-84709438D01*
X154888434Y-84709876D01*
X154888436Y-84709877D01*
X154960821Y-84718569D01*
X154976897Y-84720500D01*
X154976898Y-84720500D01*
X155163103Y-84720500D01*
X155179178Y-84718569D01*
X155251564Y-84709877D01*
X155251565Y-84709876D01*
X155255215Y-84709438D01*
X155284785Y-84709438D01*
X155288434Y-84709876D01*
X155288436Y-84709877D01*
X155360821Y-84718569D01*
X155376897Y-84720500D01*
X155376898Y-84720500D01*
X155563101Y-84720500D01*
X155563102Y-84720500D01*
X155640949Y-84711151D01*
X155709854Y-84722701D01*
X155761579Y-84769672D01*
X155779698Y-84837152D01*
X155778848Y-84849049D01*
X155774452Y-84885660D01*
X155769500Y-84926898D01*
X155769500Y-85113102D01*
X155775222Y-85160754D01*
X155780561Y-85205217D01*
X155780561Y-85234783D01*
X155774718Y-85283440D01*
X155769500Y-85326898D01*
X155769500Y-85513102D01*
X155775103Y-85559758D01*
X155780561Y-85605217D01*
X155780561Y-85634783D01*
X155777592Y-85659514D01*
X155769500Y-85726898D01*
X155769500Y-85913102D01*
X155770923Y-85924949D01*
X155780561Y-86005217D01*
X155780561Y-86034783D01*
X155778259Y-86053955D01*
X155769500Y-86126898D01*
X155769500Y-86313102D01*
X155775222Y-86360754D01*
X155780561Y-86405217D01*
X155780561Y-86434783D01*
X155774718Y-86483440D01*
X155769500Y-86526898D01*
X155769500Y-86713102D01*
X155775222Y-86760754D01*
X155780561Y-86805217D01*
X155780561Y-86834783D01*
X155774718Y-86883440D01*
X155769500Y-86926898D01*
X155769500Y-87113102D01*
X155775222Y-87160754D01*
X155780561Y-87205217D01*
X155780561Y-87234783D01*
X155774718Y-87283440D01*
X155769500Y-87326898D01*
X155769500Y-87513102D01*
X155775222Y-87560754D01*
X155780561Y-87605217D01*
X155780561Y-87634783D01*
X155776898Y-87665288D01*
X155769500Y-87726898D01*
X155769500Y-87913102D01*
X155775107Y-87959792D01*
X155780561Y-88005217D01*
X155780561Y-88034783D01*
X155774718Y-88083440D01*
X155769500Y-88126898D01*
X155769500Y-88313102D01*
X155772310Y-88336498D01*
X155780561Y-88405217D01*
X155780561Y-88434783D01*
X155774718Y-88483440D01*
X155769500Y-88526898D01*
X155769500Y-88713102D01*
X155777619Y-88780717D01*
X155766068Y-88849624D01*
X155719096Y-88901348D01*
X155654504Y-88919500D01*
X155581155Y-88919500D01*
X155426510Y-88950261D01*
X155426498Y-88950264D01*
X155280827Y-89010602D01*
X155280816Y-89010608D01*
X155241589Y-89036819D01*
X155174911Y-89057696D01*
X155107531Y-89039211D01*
X155060841Y-88987231D01*
X155058138Y-88981168D01*
X155052549Y-88967675D01*
X155052542Y-88967662D01*
X154964941Y-88836559D01*
X154964938Y-88836555D01*
X154853444Y-88725061D01*
X154853440Y-88725058D01*
X154722337Y-88637457D01*
X154722324Y-88637450D01*
X154576653Y-88577112D01*
X154576641Y-88577109D01*
X154421997Y-88546348D01*
X154421994Y-88546348D01*
X154264310Y-88546348D01*
X154264307Y-88546348D01*
X154109662Y-88577109D01*
X154109650Y-88577112D01*
X153963979Y-88637450D01*
X153963961Y-88637460D01*
X153851059Y-88712899D01*
X153784382Y-88733777D01*
X153717002Y-88715292D01*
X153709198Y-88710053D01*
X153701353Y-88704343D01*
X153637490Y-88640480D01*
X153527674Y-88577078D01*
X153500559Y-88561423D01*
X153347831Y-88520499D01*
X153189717Y-88520499D01*
X153182121Y-88520499D01*
X153182105Y-88520500D01*
X152004142Y-88520500D01*
X152004126Y-88520499D01*
X151996530Y-88520499D01*
X151838416Y-88520499D01*
X151717479Y-88552904D01*
X151647629Y-88551241D01*
X151589767Y-88512078D01*
X151563769Y-88457320D01*
X151556445Y-88420500D01*
X151539737Y-88336503D01*
X151537688Y-88331557D01*
X151479397Y-88190827D01*
X151479390Y-88190814D01*
X151391789Y-88059711D01*
X151391786Y-88059707D01*
X151280292Y-87948213D01*
X151280288Y-87948210D01*
X151149185Y-87860609D01*
X151149172Y-87860602D01*
X151003501Y-87800264D01*
X151003491Y-87800261D01*
X150862024Y-87772121D01*
X150840213Y-87760712D01*
X150816766Y-87753230D01*
X150809801Y-87744804D01*
X150800113Y-87739736D01*
X150787931Y-87718344D01*
X150772253Y-87699375D01*
X150767901Y-87683168D01*
X150765539Y-87679020D01*
X150763104Y-87665314D01*
X150759877Y-87638436D01*
X150759874Y-87638430D01*
X150759437Y-87634784D01*
X150759437Y-87634783D01*
X150759438Y-87605215D01*
X150759876Y-87601565D01*
X150759877Y-87601564D01*
X150770500Y-87513102D01*
X150770500Y-87326898D01*
X150759877Y-87238436D01*
X150759876Y-87238434D01*
X150759438Y-87234785D01*
X150759438Y-87205215D01*
X150759876Y-87201565D01*
X150759877Y-87201564D01*
X150770500Y-87113102D01*
X150770500Y-86926898D01*
X150759877Y-86838436D01*
X150759876Y-86838434D01*
X150759438Y-86834785D01*
X150759438Y-86805215D01*
X150759876Y-86801565D01*
X150759877Y-86801564D01*
X150770500Y-86713102D01*
X150770500Y-86526898D01*
X150759877Y-86438436D01*
X150759876Y-86438434D01*
X150759438Y-86434785D01*
X150759438Y-86405215D01*
X150759876Y-86401565D01*
X150759877Y-86401564D01*
X150770500Y-86313102D01*
X150770500Y-86126898D01*
X150759877Y-86038436D01*
X150759876Y-86038434D01*
X150759438Y-86034785D01*
X150759438Y-86005215D01*
X150759876Y-86001565D01*
X150759877Y-86001564D01*
X150768505Y-85929714D01*
X150796042Y-85865501D01*
X150853925Y-85826368D01*
X150882857Y-85821864D01*
X150882782Y-85821097D01*
X150888836Y-85820500D01*
X150888842Y-85820500D01*
X151043497Y-85789737D01*
X151189179Y-85729394D01*
X151320289Y-85641789D01*
X151431789Y-85530289D01*
X151519394Y-85399179D01*
X151579737Y-85253497D01*
X151610500Y-85098842D01*
X151610500Y-84941158D01*
X151610500Y-84941155D01*
X151594818Y-84862321D01*
X151601045Y-84792730D01*
X151643907Y-84737552D01*
X151709797Y-84714307D01*
X151731211Y-84715013D01*
X151776898Y-84720500D01*
X151776899Y-84720500D01*
X151963103Y-84720500D01*
X151979178Y-84718569D01*
X152051564Y-84709877D01*
X152051565Y-84709876D01*
X152055215Y-84709438D01*
X152084785Y-84709438D01*
X152088434Y-84709876D01*
G37*
%TD.AperFunction*%
%TA.AperFunction,Conductor*%
G36*
X160762540Y-59720185D02*
G01*
X160808295Y-59772989D01*
X160819501Y-59824500D01*
X160819501Y-59997876D01*
X160825908Y-60057483D01*
X160876202Y-60192328D01*
X160876206Y-60192335D01*
X160962452Y-60307544D01*
X160962455Y-60307547D01*
X161077664Y-60393793D01*
X161077671Y-60393797D01*
X161209082Y-60442810D01*
X161265016Y-60484681D01*
X161289433Y-60550145D01*
X161274582Y-60618418D01*
X161253431Y-60646673D01*
X161139889Y-60760215D01*
X161014951Y-60932179D01*
X160918444Y-61121585D01*
X160852753Y-61323760D01*
X160846418Y-61363760D01*
X160819500Y-61533713D01*
X160819500Y-61746287D01*
X160836127Y-61851265D01*
X160852754Y-61956244D01*
X160852754Y-61956247D01*
X160866491Y-61998523D01*
X160868486Y-62068364D01*
X160836241Y-62124522D01*
X158412189Y-64548574D01*
X158412181Y-64548582D01*
X158409286Y-64551478D01*
X158409284Y-64551480D01*
X158297480Y-64663284D01*
X158275994Y-64700500D01*
X158269911Y-64711035D01*
X158269910Y-64711037D01*
X158218424Y-64800213D01*
X158218423Y-64800215D01*
X158177499Y-64952943D01*
X158177499Y-64952945D01*
X158177499Y-65121046D01*
X158177500Y-65121059D01*
X158177500Y-80240234D01*
X158157815Y-80307273D01*
X158156602Y-80309125D01*
X158068609Y-80440814D01*
X158068602Y-80440827D01*
X158008264Y-80586498D01*
X158008261Y-80586508D01*
X157991715Y-80669692D01*
X157959330Y-80731603D01*
X157898614Y-80766177D01*
X157870098Y-80769500D01*
X157731155Y-80769500D01*
X157576510Y-80800261D01*
X157576498Y-80800264D01*
X157430827Y-80860602D01*
X157430814Y-80860609D01*
X157299711Y-80948210D01*
X157299707Y-80948213D01*
X157188213Y-81059707D01*
X157188210Y-81059711D01*
X157100609Y-81190814D01*
X157100602Y-81190827D01*
X157040264Y-81336498D01*
X157040261Y-81336510D01*
X157009500Y-81491153D01*
X157009500Y-81491158D01*
X157009500Y-81648842D01*
X157009500Y-81648844D01*
X157009499Y-81648844D01*
X157032011Y-81762016D01*
X157035552Y-81779815D01*
X157037617Y-81790193D01*
X157040000Y-81814385D01*
X157040000Y-81816000D01*
X157020315Y-81883039D01*
X156967511Y-81928794D01*
X156916000Y-81940000D01*
X156664000Y-81940000D01*
X156596961Y-81920315D01*
X156551206Y-81867511D01*
X156540000Y-81816000D01*
X156540000Y-81571211D01*
X156526355Y-81573925D01*
X156446968Y-81626970D01*
X156393926Y-81706354D01*
X156393923Y-81706361D01*
X156386245Y-81744962D01*
X156353860Y-81806873D01*
X156293144Y-81841447D01*
X156230033Y-81839846D01*
X156100997Y-81802357D01*
X156100991Y-81802356D01*
X156064697Y-81799500D01*
X156064690Y-81799500D01*
X155954000Y-81799500D01*
X155945314Y-81796949D01*
X155936353Y-81798238D01*
X155912312Y-81787259D01*
X155886961Y-81779815D01*
X155881033Y-81772974D01*
X155872797Y-81769213D01*
X155858507Y-81746978D01*
X155841206Y-81727011D01*
X155838918Y-81716496D01*
X155835023Y-81710435D01*
X155830000Y-81675500D01*
X155830000Y-81494000D01*
X155849685Y-81426961D01*
X155902489Y-81381206D01*
X155954000Y-81370000D01*
X156215146Y-81370000D01*
X156173032Y-81306972D01*
X156173031Y-81306971D01*
X156112368Y-81266437D01*
X156067564Y-81212824D01*
X156058857Y-81143499D01*
X156089012Y-81080472D01*
X156093560Y-81075673D01*
X156849506Y-80319728D01*
X156849511Y-80319724D01*
X156859714Y-80309520D01*
X156859716Y-80309520D01*
X156971520Y-80197716D01*
X157021813Y-80110606D01*
X157050577Y-80060785D01*
X157091500Y-79908057D01*
X157091500Y-79749943D01*
X157091500Y-75839060D01*
X157091501Y-75839047D01*
X157091501Y-75670945D01*
X157091501Y-75670943D01*
X157050577Y-75518215D01*
X156971520Y-75381284D01*
X154857819Y-73267583D01*
X154824334Y-73206260D01*
X154821500Y-73179902D01*
X154821500Y-67381672D01*
X155130000Y-67381672D01*
X155156688Y-67376364D01*
X155156693Y-67376362D01*
X155234426Y-67324424D01*
X155270790Y-67269999D01*
X155130000Y-67269999D01*
X155130000Y-67381672D01*
X154821500Y-67381672D01*
X154821500Y-67129861D01*
X154841185Y-67062822D01*
X154857819Y-67042180D01*
X154880000Y-67019999D01*
X154880000Y-66894500D01*
X154882485Y-66886033D01*
X154881198Y-66877304D01*
X154892179Y-66853022D01*
X154899685Y-66827461D01*
X154906352Y-66821683D01*
X154909989Y-66813642D01*
X154932356Y-66799150D01*
X154952489Y-66781706D01*
X154962764Y-66779450D01*
X154968628Y-66775652D01*
X155002660Y-66770695D01*
X155003545Y-66770501D01*
X155003817Y-66770500D01*
X155129180Y-66770500D01*
X155135318Y-66770017D01*
X155139964Y-66770000D01*
X155140015Y-66770014D01*
X155140419Y-66769999D01*
X155272366Y-66769999D01*
X155315037Y-66725444D01*
X155319385Y-66722872D01*
X155319393Y-66722870D01*
X155457598Y-66641136D01*
X155571135Y-66527599D01*
X155652869Y-66389394D01*
X155695811Y-66241588D01*
X155697664Y-66235209D01*
X155697665Y-66235203D01*
X155700500Y-66199182D01*
X155700499Y-65800821D01*
X155697665Y-65764797D01*
X155666955Y-65659092D01*
X155667155Y-65589224D01*
X155705098Y-65530554D01*
X155768736Y-65501711D01*
X155786032Y-65500499D01*
X156077871Y-65500499D01*
X156077872Y-65500499D01*
X156137483Y-65494091D01*
X156272331Y-65443796D01*
X156387546Y-65357546D01*
X156473796Y-65242331D01*
X156524091Y-65107483D01*
X156524896Y-65099999D01*
X156780000Y-65099999D01*
X156839845Y-65099999D01*
X156869018Y-65094197D01*
X156902095Y-65072095D01*
X156924198Y-65039016D01*
X156924199Y-65039015D01*
X156929999Y-65009853D01*
X156930000Y-65009850D01*
X156930000Y-64525000D01*
X156780000Y-64525000D01*
X156780000Y-65099999D01*
X156524896Y-65099999D01*
X156530500Y-65047873D01*
X156530499Y-64274800D01*
X156530499Y-63502129D01*
X156530498Y-63502123D01*
X156530497Y-63502116D01*
X156524091Y-63442517D01*
X156510448Y-63405940D01*
X156505465Y-63336253D01*
X156538946Y-63274933D01*
X156630515Y-63183365D01*
X156706281Y-63052135D01*
X156745500Y-62905766D01*
X156745500Y-62754234D01*
X156745500Y-62748386D01*
X156748881Y-62736870D01*
X156747740Y-62724922D01*
X156758543Y-62703965D01*
X156765185Y-62681347D01*
X156775055Y-62671934D01*
X156779755Y-62662819D01*
X156807489Y-62641006D01*
X156814003Y-62637245D01*
X156881897Y-62620773D01*
X156947924Y-62643624D01*
X156991116Y-62698544D01*
X157000000Y-62744633D01*
X157000000Y-63110000D01*
X157300000Y-63110000D01*
X157300000Y-63610000D01*
X156994000Y-63610000D01*
X156926961Y-63590315D01*
X156881206Y-63537511D01*
X156870000Y-63486000D01*
X156870000Y-63456459D01*
X156869999Y-63456457D01*
X156869018Y-63455802D01*
X156869016Y-63455801D01*
X156839850Y-63450000D01*
X156780000Y-63450000D01*
X156780000Y-64025000D01*
X156936000Y-64025000D01*
X157003039Y-64044685D01*
X157048794Y-64097489D01*
X157060000Y-64149000D01*
X157060000Y-64174691D01*
X157119879Y-64278404D01*
X157119883Y-64278410D01*
X157231589Y-64390116D01*
X157231595Y-64390120D01*
X157349999Y-64458482D01*
X157350000Y-64458482D01*
X157350000Y-64076988D01*
X157359940Y-64094205D01*
X157415795Y-64150060D01*
X157484204Y-64189556D01*
X157560504Y-64210000D01*
X157639496Y-64210000D01*
X157715796Y-64189556D01*
X157784205Y-64150060D01*
X157840060Y-64094205D01*
X157850000Y-64076988D01*
X157850000Y-64458482D01*
X157968404Y-64390120D01*
X157968410Y-64390116D01*
X158080116Y-64278410D01*
X158080118Y-64278407D01*
X158159110Y-64141591D01*
X158199999Y-63988990D01*
X158200000Y-63988989D01*
X158200000Y-63610000D01*
X157900000Y-63610000D01*
X157900000Y-63110000D01*
X158200000Y-63110000D01*
X158200000Y-62731011D01*
X158199999Y-62731009D01*
X158159110Y-62578408D01*
X158080118Y-62441592D01*
X158080116Y-62441589D01*
X157968410Y-62329883D01*
X157968407Y-62329881D01*
X157850000Y-62261517D01*
X157850000Y-62643011D01*
X157840060Y-62625795D01*
X157784205Y-62569940D01*
X157715796Y-62530444D01*
X157639496Y-62510000D01*
X157560504Y-62510000D01*
X157484204Y-62530444D01*
X157415795Y-62569940D01*
X157359940Y-62625795D01*
X157350000Y-62643011D01*
X157350000Y-62242843D01*
X157341391Y-62233815D01*
X157328169Y-62165207D01*
X157354137Y-62100343D01*
X157363916Y-62089325D01*
X159716424Y-59736819D01*
X159777747Y-59703334D01*
X159804105Y-59700500D01*
X160695501Y-59700500D01*
X160762540Y-59720185D01*
G37*
%TD.AperFunction*%
%TA.AperFunction,Conductor*%
G36*
X148679758Y-58140185D02*
G01*
X148725513Y-58192989D01*
X148735457Y-58262147D01*
X148706432Y-58325703D01*
X148674720Y-58351887D01*
X148591592Y-58399881D01*
X148591589Y-58399883D01*
X148479883Y-58511589D01*
X148479881Y-58511592D01*
X148400889Y-58648408D01*
X148360000Y-58801009D01*
X148360000Y-58930000D01*
X148660000Y-58930000D01*
X148660000Y-59430000D01*
X148360000Y-59430000D01*
X148360000Y-59558990D01*
X148400889Y-59711591D01*
X148479881Y-59848407D01*
X148479883Y-59848410D01*
X148591589Y-59960116D01*
X148591595Y-59960120D01*
X148709999Y-60028482D01*
X148710000Y-60028482D01*
X148710000Y-59646988D01*
X148719940Y-59664205D01*
X148775795Y-59720060D01*
X148844204Y-59759556D01*
X148920504Y-59780000D01*
X148999496Y-59780000D01*
X149075796Y-59759556D01*
X149144205Y-59720060D01*
X149200060Y-59664205D01*
X149210000Y-59646988D01*
X149210000Y-60028482D01*
X149328404Y-59960120D01*
X149328410Y-59960116D01*
X149440116Y-59848410D01*
X149440118Y-59848407D01*
X149519110Y-59711591D01*
X149559999Y-59558990D01*
X149560000Y-59558989D01*
X149560000Y-59430000D01*
X149260000Y-59430000D01*
X149260000Y-58930000D01*
X149560000Y-58930000D01*
X149560000Y-58801011D01*
X149559999Y-58801009D01*
X149519110Y-58648408D01*
X149440118Y-58511592D01*
X149440116Y-58511589D01*
X149328410Y-58399883D01*
X149328407Y-58399881D01*
X149245280Y-58351887D01*
X149197065Y-58301320D01*
X149183843Y-58232712D01*
X149209811Y-58167848D01*
X149266725Y-58127320D01*
X149307281Y-58120500D01*
X157252719Y-58120500D01*
X157319758Y-58140185D01*
X157365513Y-58192989D01*
X157375457Y-58262147D01*
X157346432Y-58325703D01*
X157314720Y-58351887D01*
X157231592Y-58399881D01*
X157231589Y-58399883D01*
X157119883Y-58511589D01*
X157119881Y-58511592D01*
X157040889Y-58648408D01*
X157000000Y-58801009D01*
X157000000Y-58930000D01*
X157300000Y-58930000D01*
X157300000Y-59430000D01*
X157000000Y-59430000D01*
X157000000Y-59558990D01*
X157040889Y-59711591D01*
X157119881Y-59848407D01*
X157119883Y-59848410D01*
X157231589Y-59960116D01*
X157231592Y-59960118D01*
X157368408Y-60039110D01*
X157434821Y-60056905D01*
X157494482Y-60093269D01*
X157525012Y-60156116D01*
X157516718Y-60225491D01*
X157490410Y-60264361D01*
X156237592Y-61517181D01*
X156176269Y-61550666D01*
X156149911Y-61553500D01*
X155969049Y-61553500D01*
X155810934Y-61553500D01*
X155658207Y-61594423D01*
X155658206Y-61594423D01*
X155658204Y-61594424D01*
X155658201Y-61594425D01*
X155608088Y-61623359D01*
X155608087Y-61623360D01*
X155564681Y-61648420D01*
X155521277Y-61673479D01*
X155521274Y-61673481D01*
X155281583Y-61913173D01*
X155220260Y-61946658D01*
X155193902Y-61949492D01*
X151550951Y-61949492D01*
X151398220Y-61990415D01*
X151366527Y-62008715D01*
X151366525Y-62008716D01*
X151261295Y-62069469D01*
X151261290Y-62069473D01*
X150940003Y-62390761D01*
X150878680Y-62424246D01*
X150808988Y-62419262D01*
X150764641Y-62390761D01*
X150743367Y-62369487D01*
X150743365Y-62369485D01*
X150658010Y-62320205D01*
X150612136Y-62293719D01*
X150538950Y-62274109D01*
X150465766Y-62254500D01*
X150314234Y-62254500D01*
X150167863Y-62293719D01*
X150036635Y-62369485D01*
X150036632Y-62369487D01*
X149929487Y-62476632D01*
X149929485Y-62476635D01*
X149853719Y-62607863D01*
X149814500Y-62754234D01*
X149814500Y-62905765D01*
X149853719Y-63052136D01*
X149887348Y-63110382D01*
X149929485Y-63183365D01*
X149929487Y-63183367D01*
X150021048Y-63274928D01*
X150054533Y-63336251D01*
X150049550Y-63405939D01*
X150035909Y-63442515D01*
X150035908Y-63442516D01*
X150029501Y-63502116D01*
X150029501Y-63502123D01*
X150029500Y-63502135D01*
X150029500Y-65047870D01*
X150029501Y-65047876D01*
X150035908Y-65107483D01*
X150086202Y-65242328D01*
X150086206Y-65242335D01*
X150172452Y-65357544D01*
X150172453Y-65357544D01*
X150172454Y-65357546D01*
X150190207Y-65370836D01*
X150232404Y-65402425D01*
X150232529Y-65402592D01*
X150232725Y-65402666D01*
X150253450Y-65430541D01*
X150274274Y-65458359D01*
X150274288Y-65458567D01*
X150274414Y-65458736D01*
X150276781Y-65493426D01*
X150279258Y-65528051D01*
X150279162Y-65528305D01*
X150279172Y-65528444D01*
X150278355Y-65530457D01*
X150266730Y-65561472D01*
X150265239Y-65564180D01*
X150192997Y-65681303D01*
X150181201Y-65716900D01*
X150175713Y-65726874D01*
X150158677Y-65743799D01*
X150145007Y-65763543D01*
X150134340Y-65767977D01*
X150126147Y-65776118D01*
X150102664Y-65781146D01*
X150080491Y-65790365D01*
X150069122Y-65788329D01*
X150057826Y-65790748D01*
X150035350Y-65782281D01*
X150011715Y-65778049D01*
X149998113Y-65768254D01*
X149992442Y-65766118D01*
X149989324Y-65761925D01*
X149979394Y-65754774D01*
X149944288Y-65719668D01*
X149840417Y-65671232D01*
X149840409Y-65671230D01*
X149793095Y-65665001D01*
X149793078Y-65665000D01*
X149780000Y-65665000D01*
X149780000Y-66814999D01*
X149793078Y-66814999D01*
X149840416Y-66808767D01*
X149840417Y-66808767D01*
X149944288Y-66760331D01*
X149979393Y-66725226D01*
X150006849Y-66710232D01*
X150033331Y-66693586D01*
X150037262Y-66693625D01*
X150040715Y-66691740D01*
X150071918Y-66693971D01*
X150103197Y-66694284D01*
X150106484Y-66696443D01*
X150110407Y-66696724D01*
X150135448Y-66715469D01*
X150161595Y-66732644D01*
X150163920Y-66736782D01*
X150166341Y-66738594D01*
X150180378Y-66762524D01*
X150182860Y-66768107D01*
X150192997Y-66798697D01*
X150205414Y-66818827D01*
X150208803Y-66826449D01*
X150212001Y-66850391D01*
X150219500Y-66876831D01*
X150219500Y-67201691D01*
X150199815Y-67268730D01*
X150183181Y-67289372D01*
X150151923Y-67320629D01*
X150151917Y-67320637D01*
X150068255Y-67462103D01*
X150068254Y-67462106D01*
X150022402Y-67619926D01*
X150022401Y-67619932D01*
X150019500Y-67656798D01*
X150019500Y-68963201D01*
X150022401Y-69000067D01*
X150022402Y-69000073D01*
X150068254Y-69157893D01*
X150068254Y-69157894D01*
X150107229Y-69223798D01*
X150124411Y-69291522D01*
X150120000Y-69304711D01*
X150120000Y-69935000D01*
X150270000Y-69935000D01*
X150270000Y-69623838D01*
X150289685Y-69556799D01*
X150342489Y-69511044D01*
X150411647Y-69501100D01*
X150428591Y-69504761D01*
X150567431Y-69545098D01*
X150604306Y-69548000D01*
X150845500Y-69548000D01*
X150912539Y-69567685D01*
X150958294Y-69620489D01*
X150969500Y-69672000D01*
X150969500Y-70838201D01*
X150972401Y-70875067D01*
X150972402Y-70875073D01*
X151018254Y-71032893D01*
X151018255Y-71032896D01*
X151049390Y-71085543D01*
X151066573Y-71153267D01*
X151044413Y-71219530D01*
X151007756Y-71254202D01*
X150986956Y-71267031D01*
X150867029Y-71386959D01*
X150778001Y-71531294D01*
X150777998Y-71531301D01*
X150777997Y-71531303D01*
X150777995Y-71531308D01*
X150777995Y-71531309D01*
X150769780Y-71556099D01*
X150730007Y-71613543D01*
X150665491Y-71640365D01*
X150596715Y-71628049D01*
X150564394Y-71604774D01*
X150529288Y-71569668D01*
X150425417Y-71521232D01*
X150425409Y-71521230D01*
X150378095Y-71515001D01*
X150378078Y-71515000D01*
X150365000Y-71515000D01*
X150365000Y-72664999D01*
X150378078Y-72664999D01*
X150425416Y-72658767D01*
X150425417Y-72658767D01*
X150529288Y-72610331D01*
X150564393Y-72575226D01*
X150625715Y-72541740D01*
X150695407Y-72546724D01*
X150751341Y-72588594D01*
X150769779Y-72623898D01*
X150777996Y-72648694D01*
X150777997Y-72648696D01*
X150778001Y-72648705D01*
X150867029Y-72793040D01*
X150867032Y-72793044D01*
X150986956Y-72912968D01*
X151005596Y-72924465D01*
X151052321Y-72976412D01*
X151064500Y-73030004D01*
X151064500Y-73608330D01*
X151064499Y-73608348D01*
X151064499Y-73774054D01*
X151064498Y-73774054D01*
X151073876Y-73809054D01*
X151105423Y-73926785D01*
X151131115Y-73971284D01*
X151161410Y-74023757D01*
X151184479Y-74063714D01*
X151184481Y-74063717D01*
X151303349Y-74182585D01*
X151303355Y-74182590D01*
X152579478Y-75458713D01*
X152579480Y-75458716D01*
X152691284Y-75570520D01*
X152691286Y-75570521D01*
X154503181Y-77382416D01*
X154536666Y-77443739D01*
X154539500Y-77470097D01*
X154539500Y-77584697D01*
X154542356Y-77620991D01*
X154542357Y-77620997D01*
X154587504Y-77776390D01*
X154587505Y-77776393D01*
X154587506Y-77776395D01*
X154621272Y-77833491D01*
X154667544Y-77911733D01*
X154669883Y-77915687D01*
X154673678Y-77919482D01*
X154688387Y-77946417D01*
X154704977Y-77972231D01*
X154705867Y-77978425D01*
X154707165Y-77980801D01*
X154710000Y-78007166D01*
X154710000Y-78119403D01*
X154690315Y-78186442D01*
X154673681Y-78207084D01*
X154607084Y-78273681D01*
X154545761Y-78307166D01*
X154519403Y-78310000D01*
X154460000Y-78310000D01*
X154460000Y-78365500D01*
X154440315Y-78432539D01*
X154387511Y-78478294D01*
X154336000Y-78489500D01*
X154225302Y-78489500D01*
X154189008Y-78492356D01*
X154189002Y-78492357D01*
X154033610Y-78537504D01*
X154026444Y-78540605D01*
X154025573Y-78538592D01*
X153968688Y-78553017D01*
X153938713Y-78548179D01*
X153780997Y-78502357D01*
X153780991Y-78502356D01*
X153744697Y-78499500D01*
X153744690Y-78499500D01*
X153275310Y-78499500D01*
X153275302Y-78499500D01*
X153239008Y-78502356D01*
X153239002Y-78502357D01*
X153083609Y-78547504D01*
X153083606Y-78547505D01*
X152944315Y-78629881D01*
X152944307Y-78629887D01*
X152829887Y-78744307D01*
X152829881Y-78744315D01*
X152804996Y-78786393D01*
X152787181Y-78803026D01*
X152772575Y-78822537D01*
X152762098Y-78826444D01*
X152753926Y-78834075D01*
X152729947Y-78838436D01*
X152707111Y-78846954D01*
X152696184Y-78844577D01*
X152685184Y-78846578D01*
X152662653Y-78837282D01*
X152638838Y-78832102D01*
X152625016Y-78821755D01*
X152620595Y-78819931D01*
X152610584Y-78810951D01*
X152505488Y-78705855D01*
X152505486Y-78705852D01*
X152471818Y-78672184D01*
X152438333Y-78610861D01*
X152435499Y-78584503D01*
X152435499Y-78468096D01*
X152421011Y-78358036D01*
X152421009Y-78358031D01*
X152421009Y-78358028D01*
X152364279Y-78221071D01*
X152274036Y-78103464D01*
X152230425Y-78070000D01*
X153124854Y-78070000D01*
X153260000Y-78070000D01*
X153760000Y-78070000D01*
X153860660Y-78070000D01*
X153858883Y-78015729D01*
X153856420Y-78012043D01*
X154106896Y-78012043D01*
X154108467Y-78060000D01*
X154210000Y-78060000D01*
X154210000Y-77941211D01*
X154196355Y-77943925D01*
X154116970Y-77996969D01*
X154116966Y-77996974D01*
X154106896Y-78012043D01*
X153856420Y-78012043D01*
X153853033Y-78006974D01*
X153853029Y-78006969D01*
X153773644Y-77953925D01*
X153760000Y-77951211D01*
X153760000Y-78070000D01*
X153260000Y-78070000D01*
X153260000Y-77951211D01*
X153246355Y-77953925D01*
X153166970Y-78006969D01*
X153166967Y-78006972D01*
X153124854Y-78070000D01*
X152230425Y-78070000D01*
X152184024Y-78034395D01*
X152180113Y-78030826D01*
X152164624Y-78005304D01*
X152147012Y-77981183D01*
X152146688Y-77975748D01*
X152143864Y-77971095D01*
X152144632Y-77941245D01*
X152142857Y-77911437D01*
X152144625Y-77904639D01*
X152177643Y-77790993D01*
X152180500Y-77754690D01*
X152180500Y-77285310D01*
X152177643Y-77249007D01*
X152173153Y-77233553D01*
X152132495Y-77093609D01*
X152132494Y-77093606D01*
X152132494Y-77093605D01*
X152050117Y-76954313D01*
X152050115Y-76954311D01*
X152050112Y-76954307D01*
X151935692Y-76839887D01*
X151935684Y-76839881D01*
X151796393Y-76757505D01*
X151796390Y-76757504D01*
X151640997Y-76712357D01*
X151640991Y-76712356D01*
X151604697Y-76709500D01*
X151604690Y-76709500D01*
X151490097Y-76709500D01*
X151460656Y-76700855D01*
X151430670Y-76694332D01*
X151425654Y-76690577D01*
X151423058Y-76689815D01*
X151402416Y-76673181D01*
X151276590Y-76547355D01*
X151276588Y-76547352D01*
X151157717Y-76428481D01*
X151157709Y-76428475D01*
X151054202Y-76368716D01*
X151054201Y-76368715D01*
X151054201Y-76368716D01*
X151020785Y-76349423D01*
X150868057Y-76308499D01*
X150709943Y-76308499D01*
X150702347Y-76308499D01*
X150702331Y-76308500D01*
X150200119Y-76308500D01*
X150200103Y-76308499D01*
X150192507Y-76308499D01*
X150034393Y-76308499D01*
X149919847Y-76339192D01*
X149881664Y-76349423D01*
X149848249Y-76368716D01*
X149848248Y-76368716D01*
X149744737Y-76428477D01*
X149744732Y-76428481D01*
X149632930Y-76540283D01*
X149632930Y-76540284D01*
X149632928Y-76540286D01*
X149549482Y-76623732D01*
X149480032Y-76693182D01*
X149418709Y-76726666D01*
X149392354Y-76729500D01*
X149350831Y-76729500D01*
X149350806Y-76729501D01*
X149314793Y-76732335D01*
X149160610Y-76777129D01*
X149160607Y-76777130D01*
X149103120Y-76811128D01*
X149035396Y-76828310D01*
X148976880Y-76811128D01*
X148919392Y-76777130D01*
X148919389Y-76777129D01*
X148765209Y-76732335D01*
X148765203Y-76732334D01*
X148729182Y-76729500D01*
X148330831Y-76729500D01*
X148330809Y-76729501D01*
X148294795Y-76732335D01*
X148140612Y-76777129D01*
X148140607Y-76777131D01*
X148002405Y-76858863D01*
X148002397Y-76858869D01*
X147888870Y-76972396D01*
X147888864Y-76972404D01*
X147807132Y-77110606D01*
X147807130Y-77110611D01*
X147762336Y-77264791D01*
X147762335Y-77264797D01*
X147759501Y-77300811D01*
X147759501Y-77799169D01*
X147759502Y-77799191D01*
X147762335Y-77835201D01*
X147793692Y-77943133D01*
X147793492Y-78013002D01*
X147755549Y-78071672D01*
X147736626Y-78085108D01*
X147733392Y-78086975D01*
X147733384Y-78086981D01*
X147705181Y-78115185D01*
X147643858Y-78148670D01*
X147574166Y-78143686D01*
X147518233Y-78101814D01*
X147493816Y-78036350D01*
X147493500Y-78027504D01*
X147493500Y-74163946D01*
X147493500Y-74163943D01*
X147473196Y-74088165D01*
X147452577Y-74011215D01*
X147403831Y-73926785D01*
X147373520Y-73874284D01*
X147261716Y-73762480D01*
X147261715Y-73762479D01*
X147257385Y-73758149D01*
X147257374Y-73758139D01*
X145877312Y-72378077D01*
X149565001Y-72378077D01*
X149571232Y-72425416D01*
X149571232Y-72425417D01*
X149619668Y-72529288D01*
X149700711Y-72610331D01*
X149804582Y-72658767D01*
X149804590Y-72658769D01*
X149851907Y-72664999D01*
X149851918Y-72664999D01*
X149865000Y-72664998D01*
X149865000Y-72340000D01*
X149565001Y-72340000D01*
X149565001Y-72378077D01*
X145877312Y-72378077D01*
X145823757Y-72324522D01*
X145790272Y-72263199D01*
X145793507Y-72198523D01*
X145807246Y-72156243D01*
X145840500Y-71946287D01*
X145840500Y-71801921D01*
X149565000Y-71801921D01*
X149565000Y-71840000D01*
X149865000Y-71840000D01*
X149865000Y-71514999D01*
X149851915Y-71515000D01*
X149851912Y-71515000D01*
X149804590Y-71521230D01*
X149804582Y-71521232D01*
X149700711Y-71569668D01*
X149619668Y-71650711D01*
X149571232Y-71754582D01*
X149571230Y-71754590D01*
X149565001Y-71801904D01*
X149565000Y-71801921D01*
X145840500Y-71801921D01*
X145840500Y-71733713D01*
X145807246Y-71523757D01*
X145741557Y-71321588D01*
X145645051Y-71132184D01*
X145645049Y-71132181D01*
X145645048Y-71132179D01*
X145520109Y-70960213D01*
X145369786Y-70809890D01*
X145352220Y-70797128D01*
X149470000Y-70797128D01*
X149484503Y-70870040D01*
X149484504Y-70870043D01*
X149539759Y-70952738D01*
X149539760Y-70952739D01*
X149620000Y-71006354D01*
X149620000Y-71006353D01*
X150120000Y-71006353D01*
X150200239Y-70952739D01*
X150200240Y-70952738D01*
X150255495Y-70870043D01*
X150255496Y-70870040D01*
X150269999Y-70797128D01*
X150270000Y-70797126D01*
X150270000Y-70435000D01*
X150120000Y-70435000D01*
X150120000Y-71006353D01*
X149620000Y-71006353D01*
X149620000Y-70435000D01*
X149470000Y-70435000D01*
X149470000Y-70797128D01*
X145352220Y-70797128D01*
X145197820Y-70684951D01*
X145197115Y-70684591D01*
X145189054Y-70680485D01*
X145138259Y-70632512D01*
X145121463Y-70564692D01*
X145143999Y-70498556D01*
X145189054Y-70459515D01*
X145197816Y-70455051D01*
X145252876Y-70415048D01*
X145369786Y-70330109D01*
X145369788Y-70330106D01*
X145369792Y-70330104D01*
X145520104Y-70179792D01*
X145520106Y-70179788D01*
X145520109Y-70179786D01*
X145645048Y-70007820D01*
X145645047Y-70007820D01*
X145645051Y-70007816D01*
X145741557Y-69818412D01*
X145807246Y-69616243D01*
X145814116Y-69572871D01*
X149470000Y-69572871D01*
X149470000Y-69935000D01*
X149620000Y-69935000D01*
X149620000Y-69363644D01*
X149539762Y-69417257D01*
X149539759Y-69417260D01*
X149484505Y-69499955D01*
X149484503Y-69499959D01*
X149470000Y-69572871D01*
X145814116Y-69572871D01*
X145818515Y-69545097D01*
X145838762Y-69417260D01*
X145840500Y-69406287D01*
X145840500Y-69193713D01*
X145807246Y-68983757D01*
X145741557Y-68781588D01*
X145645051Y-68592184D01*
X145645049Y-68592181D01*
X145645048Y-68592179D01*
X145520109Y-68420213D01*
X145369786Y-68269890D01*
X145197820Y-68144951D01*
X145197115Y-68144591D01*
X145189054Y-68140485D01*
X145138259Y-68092512D01*
X145121463Y-68024692D01*
X145143999Y-67958556D01*
X145189054Y-67919515D01*
X145197816Y-67915051D01*
X145252876Y-67875048D01*
X145369786Y-67790109D01*
X145369788Y-67790106D01*
X145369792Y-67790104D01*
X145520104Y-67639792D01*
X145520106Y-67639788D01*
X145520109Y-67639786D01*
X145645048Y-67467820D01*
X145645047Y-67467820D01*
X145645051Y-67467816D01*
X145741557Y-67278412D01*
X145807246Y-67076243D01*
X145840500Y-66866287D01*
X145840500Y-66653713D01*
X145820601Y-66528077D01*
X148980001Y-66528077D01*
X148986232Y-66575416D01*
X148986232Y-66575417D01*
X149034668Y-66679288D01*
X149115711Y-66760331D01*
X149219582Y-66808767D01*
X149219590Y-66808769D01*
X149266907Y-66814999D01*
X149266918Y-66814999D01*
X149280000Y-66814998D01*
X149280000Y-66490000D01*
X148980001Y-66490000D01*
X148980001Y-66528077D01*
X145820601Y-66528077D01*
X145820526Y-66527604D01*
X145809508Y-66458036D01*
X145807246Y-66443758D01*
X145789582Y-66389394D01*
X145741557Y-66241588D01*
X145645051Y-66052184D01*
X145572206Y-65951921D01*
X148980000Y-65951921D01*
X148980000Y-65990000D01*
X149280000Y-65990000D01*
X149280000Y-65664999D01*
X149266915Y-65665000D01*
X149266912Y-65665000D01*
X149219590Y-65671230D01*
X149219582Y-65671232D01*
X149115711Y-65719668D01*
X149034668Y-65800711D01*
X148986232Y-65904582D01*
X148986230Y-65904590D01*
X148980001Y-65951904D01*
X148980000Y-65951921D01*
X145572206Y-65951921D01*
X145520104Y-65880208D01*
X145369792Y-65729896D01*
X145369786Y-65729890D01*
X145197820Y-65604951D01*
X145008414Y-65508444D01*
X145008413Y-65508443D01*
X145008412Y-65508443D01*
X144806243Y-65442754D01*
X144806241Y-65442753D01*
X144806240Y-65442753D01*
X144655356Y-65418855D01*
X144604720Y-65410835D01*
X144541586Y-65380907D01*
X144504655Y-65321595D01*
X144505653Y-65251733D01*
X144544263Y-65193500D01*
X144599928Y-65166746D01*
X144767097Y-65133493D01*
X144767105Y-65133491D01*
X144939992Y-65061879D01*
X144939998Y-65061876D01*
X144962971Y-65046525D01*
X144962972Y-65046524D01*
X144926292Y-65009844D01*
X149630001Y-65009844D01*
X149635802Y-65039018D01*
X149657904Y-65072095D01*
X149690983Y-65094198D01*
X149690984Y-65094199D01*
X149720147Y-65099999D01*
X149779999Y-65099998D01*
X149780000Y-65099998D01*
X149780000Y-64525000D01*
X149630001Y-64525000D01*
X149630001Y-65009844D01*
X144926292Y-65009844D01*
X144619410Y-64702962D01*
X144682993Y-64685925D01*
X144797007Y-64620099D01*
X144890099Y-64527007D01*
X144955925Y-64412993D01*
X144972962Y-64349410D01*
X145316524Y-64692972D01*
X145316525Y-64692971D01*
X145331876Y-64669998D01*
X145331879Y-64669992D01*
X145403491Y-64497105D01*
X145403493Y-64497097D01*
X145439999Y-64313571D01*
X145440000Y-64313569D01*
X145440000Y-64126430D01*
X145439999Y-64126428D01*
X145403493Y-63942902D01*
X145403491Y-63942894D01*
X145331879Y-63770007D01*
X145316524Y-63747027D01*
X144972962Y-64090589D01*
X144955925Y-64027007D01*
X144890099Y-63912993D01*
X144797007Y-63819901D01*
X144682993Y-63754075D01*
X144619409Y-63737037D01*
X144885490Y-63470957D01*
X144962972Y-63393474D01*
X144962971Y-63393473D01*
X144940002Y-63378126D01*
X144939990Y-63378119D01*
X144767105Y-63306508D01*
X144767099Y-63306506D01*
X144599927Y-63273253D01*
X144538016Y-63240868D01*
X144503442Y-63180152D01*
X144507182Y-63110382D01*
X144548049Y-63053711D01*
X144604718Y-63029164D01*
X144772032Y-63002664D01*
X144806238Y-62997247D01*
X144806238Y-62997246D01*
X144806243Y-62997246D01*
X145008412Y-62931557D01*
X145197816Y-62835051D01*
X145309052Y-62754234D01*
X145341019Y-62731009D01*
X148360000Y-62731009D01*
X148360000Y-63110000D01*
X148660000Y-63110000D01*
X148660000Y-63610000D01*
X148360000Y-63610000D01*
X148360000Y-63988990D01*
X148400889Y-64141591D01*
X148479881Y-64278407D01*
X148479883Y-64278410D01*
X148591589Y-64390116D01*
X148591595Y-64390120D01*
X148709999Y-64458482D01*
X148710000Y-64458482D01*
X148710000Y-64076988D01*
X148719940Y-64094205D01*
X148775795Y-64150060D01*
X148844204Y-64189556D01*
X148920504Y-64210000D01*
X148999496Y-64210000D01*
X149075796Y-64189556D01*
X149144205Y-64150060D01*
X149200060Y-64094205D01*
X149210000Y-64076988D01*
X149210000Y-64458482D01*
X149328404Y-64390120D01*
X149328410Y-64390116D01*
X149332570Y-64385957D01*
X149440116Y-64278410D01*
X149440120Y-64278404D01*
X149500000Y-64174691D01*
X149500000Y-64149000D01*
X149519685Y-64081961D01*
X149572489Y-64036206D01*
X149624000Y-64025000D01*
X149780000Y-64025000D01*
X149780000Y-63450000D01*
X149779999Y-63449999D01*
X149720156Y-63450000D01*
X149720154Y-63450001D01*
X149690981Y-63455802D01*
X149690000Y-63456457D01*
X149690000Y-63486000D01*
X149670315Y-63553039D01*
X149617511Y-63598794D01*
X149566000Y-63610000D01*
X149260000Y-63610000D01*
X149260000Y-63110000D01*
X149560000Y-63110000D01*
X149560000Y-62731011D01*
X149559999Y-62731009D01*
X149519110Y-62578408D01*
X149440118Y-62441592D01*
X149440116Y-62441589D01*
X149328410Y-62329883D01*
X149328407Y-62329881D01*
X149210000Y-62261517D01*
X149210000Y-62643011D01*
X149200060Y-62625795D01*
X149144205Y-62569940D01*
X149075796Y-62530444D01*
X148999496Y-62510000D01*
X148920504Y-62510000D01*
X148844204Y-62530444D01*
X148775795Y-62569940D01*
X148719940Y-62625795D01*
X148710000Y-62643011D01*
X148710000Y-62261517D01*
X148591592Y-62329881D01*
X148591589Y-62329883D01*
X148479883Y-62441589D01*
X148479881Y-62441592D01*
X148400889Y-62578408D01*
X148360000Y-62731009D01*
X145341019Y-62731009D01*
X145369786Y-62710109D01*
X145369788Y-62710106D01*
X145369792Y-62710104D01*
X145520104Y-62559792D01*
X145520106Y-62559788D01*
X145520109Y-62559786D01*
X145645048Y-62387820D01*
X145645047Y-62387820D01*
X145645051Y-62387816D01*
X145741557Y-62198412D01*
X145807246Y-61996243D01*
X145840500Y-61786287D01*
X145840500Y-61573713D01*
X145807246Y-61363757D01*
X145741557Y-61161588D01*
X145645051Y-60972184D01*
X145645049Y-60972181D01*
X145645048Y-60972179D01*
X145520109Y-60800213D01*
X145406569Y-60686673D01*
X145373084Y-60625350D01*
X145378068Y-60555658D01*
X145419940Y-60499725D01*
X145450915Y-60482810D01*
X145582331Y-60433796D01*
X145697546Y-60347546D01*
X145783796Y-60232331D01*
X145834091Y-60097483D01*
X145840500Y-60037873D01*
X145840499Y-58930000D01*
X145840499Y-58244500D01*
X145860184Y-58177461D01*
X145912987Y-58131706D01*
X145964499Y-58120500D01*
X148612719Y-58120500D01*
X148679758Y-58140185D01*
G37*
%TD.AperFunction*%
%TA.AperFunction,Conductor*%
G36*
X144974522Y-75713757D02*
G01*
X145855181Y-76594416D01*
X145888666Y-76655739D01*
X145891500Y-76682097D01*
X145891500Y-78719369D01*
X145871815Y-78786408D01*
X145819011Y-78832163D01*
X145749853Y-78842107D01*
X145686297Y-78813082D01*
X145657016Y-78775665D01*
X145645050Y-78752182D01*
X145520109Y-78580213D01*
X145369786Y-78429890D01*
X145197820Y-78304951D01*
X145008414Y-78208444D01*
X145008413Y-78208443D01*
X145008412Y-78208443D01*
X144806243Y-78142754D01*
X144806241Y-78142753D01*
X144806240Y-78142753D01*
X144632180Y-78115185D01*
X144604720Y-78110835D01*
X144541586Y-78080907D01*
X144504655Y-78021595D01*
X144505653Y-77951733D01*
X144544263Y-77893500D01*
X144599928Y-77866746D01*
X144767097Y-77833493D01*
X144767105Y-77833491D01*
X144939992Y-77761879D01*
X144939998Y-77761876D01*
X144962971Y-77746525D01*
X144962972Y-77746524D01*
X144619410Y-77402962D01*
X144682993Y-77385925D01*
X144797007Y-77320099D01*
X144890099Y-77227007D01*
X144955925Y-77112993D01*
X144972962Y-77049410D01*
X145316524Y-77392972D01*
X145316525Y-77392971D01*
X145331876Y-77369998D01*
X145331879Y-77369992D01*
X145403491Y-77197105D01*
X145403493Y-77197097D01*
X145439999Y-77013571D01*
X145440000Y-77013569D01*
X145440000Y-76826430D01*
X145439999Y-76826428D01*
X145403493Y-76642902D01*
X145403491Y-76642894D01*
X145331879Y-76470007D01*
X145316524Y-76447027D01*
X144972962Y-76790589D01*
X144955925Y-76727007D01*
X144890099Y-76612993D01*
X144797007Y-76519901D01*
X144682993Y-76454075D01*
X144619409Y-76437037D01*
X144962972Y-76093474D01*
X144962971Y-76093473D01*
X144940002Y-76078126D01*
X144939990Y-76078119D01*
X144767105Y-76006508D01*
X144767099Y-76006506D01*
X144599927Y-75973253D01*
X144538016Y-75940868D01*
X144503442Y-75880152D01*
X144507182Y-75810382D01*
X144548049Y-75753711D01*
X144604718Y-75729164D01*
X144772032Y-75702664D01*
X144806238Y-75697247D01*
X144806238Y-75697246D01*
X144806243Y-75697246D01*
X144848523Y-75683507D01*
X144918362Y-75681511D01*
X144974522Y-75713757D01*
G37*
%TD.AperFunction*%
%TA.AperFunction,Conductor*%
G36*
X161811473Y-75643506D02*
G01*
X161853757Y-75657246D01*
X161853763Y-75657247D01*
X161853761Y-75657247D01*
X161914004Y-75666788D01*
X162055279Y-75689164D01*
X162118412Y-75719092D01*
X162155344Y-75778403D01*
X162154346Y-75848266D01*
X162115737Y-75906499D01*
X162060072Y-75933253D01*
X161892900Y-75966506D01*
X161892894Y-75966508D01*
X161720005Y-76038121D01*
X161697027Y-76053473D01*
X161697027Y-76053474D01*
X162040591Y-76397037D01*
X161977007Y-76414075D01*
X161862993Y-76479901D01*
X161769901Y-76572993D01*
X161704075Y-76687007D01*
X161687037Y-76750590D01*
X161343474Y-76407027D01*
X161343473Y-76407027D01*
X161328121Y-76430005D01*
X161256508Y-76602894D01*
X161256506Y-76602902D01*
X161220000Y-76786428D01*
X161220000Y-76973571D01*
X161256506Y-77157097D01*
X161256508Y-77157105D01*
X161328119Y-77329990D01*
X161328126Y-77330002D01*
X161343473Y-77352971D01*
X161343474Y-77352972D01*
X161687037Y-77009409D01*
X161704075Y-77072993D01*
X161769901Y-77187007D01*
X161862993Y-77280099D01*
X161977007Y-77345925D01*
X162040590Y-77362962D01*
X161697027Y-77706524D01*
X161697027Y-77706525D01*
X161720007Y-77721879D01*
X161892894Y-77793491D01*
X161892902Y-77793493D01*
X162060071Y-77826746D01*
X162121982Y-77859131D01*
X162156556Y-77919846D01*
X162152817Y-77989616D01*
X162111950Y-78046288D01*
X162055278Y-78070836D01*
X161853760Y-78102753D01*
X161651585Y-78168444D01*
X161462179Y-78264951D01*
X161290213Y-78389890D01*
X161139890Y-78540213D01*
X161014948Y-78712184D01*
X161012404Y-78716336D01*
X161011513Y-78715790D01*
X160967004Y-78762913D01*
X160899182Y-78779704D01*
X160833048Y-78757162D01*
X160789600Y-78702445D01*
X160780500Y-78655818D01*
X160780500Y-76630096D01*
X160800185Y-76563057D01*
X160816815Y-76542419D01*
X161685478Y-75673755D01*
X161746799Y-75640272D01*
X161811473Y-75643506D01*
G37*
%TD.AperFunction*%
%TA.AperFunction,Conductor*%
G36*
X143505703Y-76974800D02*
G01*
X143543477Y-77033578D01*
X143546117Y-77044322D01*
X143576506Y-77197097D01*
X143576508Y-77197105D01*
X143648119Y-77369990D01*
X143648126Y-77370002D01*
X143663473Y-77392971D01*
X143663474Y-77392972D01*
X144007037Y-77049409D01*
X144024075Y-77112993D01*
X144089901Y-77227007D01*
X144182993Y-77320099D01*
X144297007Y-77385925D01*
X144360590Y-77402962D01*
X144017027Y-77746524D01*
X144017027Y-77746525D01*
X144040007Y-77761879D01*
X144212894Y-77833491D01*
X144212902Y-77833493D01*
X144380071Y-77866746D01*
X144441982Y-77899131D01*
X144476556Y-77959846D01*
X144472817Y-78029616D01*
X144431950Y-78086288D01*
X144375278Y-78110836D01*
X144173760Y-78142753D01*
X143971585Y-78208444D01*
X143782179Y-78304951D01*
X143610213Y-78429890D01*
X143610209Y-78429894D01*
X143512181Y-78527923D01*
X143450858Y-78561408D01*
X143381166Y-78556424D01*
X143325233Y-78514552D01*
X143300816Y-78449088D01*
X143300500Y-78440242D01*
X143300500Y-77068513D01*
X143320185Y-77001474D01*
X143372989Y-76955719D01*
X143442147Y-76945775D01*
X143505703Y-76974800D01*
G37*
%TD.AperFunction*%
%TA.AperFunction,Conductor*%
G36*
X162996524Y-77352972D02*
G01*
X162996525Y-77352971D01*
X163011876Y-77329998D01*
X163011881Y-77329989D01*
X163060939Y-77211553D01*
X163104780Y-77157149D01*
X163171074Y-77135084D01*
X163238773Y-77152363D01*
X163286384Y-77203500D01*
X163299500Y-77259005D01*
X163299500Y-78340242D01*
X163279815Y-78407281D01*
X163227011Y-78453036D01*
X163157853Y-78462980D01*
X163094297Y-78433955D01*
X163087819Y-78427923D01*
X163049786Y-78389890D01*
X162877820Y-78264951D01*
X162688414Y-78168444D01*
X162688413Y-78168443D01*
X162688412Y-78168443D01*
X162486243Y-78102754D01*
X162486241Y-78102753D01*
X162486240Y-78102753D01*
X162335356Y-78078855D01*
X162284720Y-78070835D01*
X162221586Y-78040907D01*
X162184655Y-77981595D01*
X162185653Y-77911733D01*
X162224263Y-77853500D01*
X162279928Y-77826746D01*
X162447097Y-77793493D01*
X162447105Y-77793491D01*
X162619992Y-77721879D01*
X162619998Y-77721876D01*
X162642971Y-77706525D01*
X162642972Y-77706524D01*
X162299410Y-77362962D01*
X162362993Y-77345925D01*
X162477007Y-77280099D01*
X162570099Y-77187007D01*
X162635925Y-77072993D01*
X162652962Y-77009410D01*
X162996524Y-77352972D01*
G37*
%TD.AperFunction*%
%TA.AperFunction,Conductor*%
G36*
X143505703Y-75306045D02*
G01*
X143512181Y-75312077D01*
X143610213Y-75410109D01*
X143782179Y-75535048D01*
X143782181Y-75535049D01*
X143782184Y-75535051D01*
X143971588Y-75631557D01*
X144173757Y-75697246D01*
X144173760Y-75697246D01*
X144173761Y-75697247D01*
X144234004Y-75706788D01*
X144375279Y-75729164D01*
X144438412Y-75759092D01*
X144475344Y-75818403D01*
X144474346Y-75888266D01*
X144435737Y-75946499D01*
X144380072Y-75973253D01*
X144212900Y-76006506D01*
X144212894Y-76006508D01*
X144040005Y-76078121D01*
X144017027Y-76093473D01*
X144017027Y-76093474D01*
X144360591Y-76437037D01*
X144297007Y-76454075D01*
X144182993Y-76519901D01*
X144089901Y-76612993D01*
X144024075Y-76727007D01*
X144007037Y-76790590D01*
X143663474Y-76447027D01*
X143663473Y-76447027D01*
X143648121Y-76470005D01*
X143576508Y-76642894D01*
X143576506Y-76642902D01*
X143546117Y-76795677D01*
X143513732Y-76857588D01*
X143453016Y-76892162D01*
X143383247Y-76888423D01*
X143326575Y-76847556D01*
X143300994Y-76782538D01*
X143300500Y-76771486D01*
X143300500Y-75399758D01*
X143320185Y-75332719D01*
X143372989Y-75286964D01*
X143442147Y-75277020D01*
X143505703Y-75306045D01*
G37*
%TD.AperFunction*%
%TA.AperFunction,Conductor*%
G36*
X163218834Y-75303576D02*
G01*
X163274767Y-75345448D01*
X163299184Y-75410912D01*
X163299500Y-75419758D01*
X163299500Y-76500994D01*
X163279815Y-76568033D01*
X163227011Y-76613788D01*
X163157853Y-76623732D01*
X163094297Y-76594707D01*
X163060939Y-76548447D01*
X163011879Y-76430007D01*
X162996524Y-76407027D01*
X162652962Y-76750589D01*
X162635925Y-76687007D01*
X162570099Y-76572993D01*
X162477007Y-76479901D01*
X162362993Y-76414075D01*
X162299409Y-76397037D01*
X162642972Y-76053474D01*
X162642971Y-76053473D01*
X162620002Y-76038126D01*
X162619990Y-76038119D01*
X162447105Y-75966508D01*
X162447099Y-75966506D01*
X162279927Y-75933253D01*
X162218016Y-75900868D01*
X162183442Y-75840152D01*
X162187182Y-75770382D01*
X162228049Y-75713711D01*
X162284718Y-75689164D01*
X162452032Y-75662664D01*
X162486238Y-75657247D01*
X162486238Y-75657246D01*
X162486243Y-75657246D01*
X162688412Y-75591557D01*
X162877816Y-75495051D01*
X162981449Y-75419758D01*
X163049786Y-75370109D01*
X163049788Y-75370106D01*
X163049792Y-75370104D01*
X163087819Y-75332077D01*
X163149142Y-75298592D01*
X163218834Y-75303576D01*
G37*
%TD.AperFunction*%
%TA.AperFunction,Conductor*%
G36*
X153138834Y-66902415D02*
G01*
X153194767Y-66944287D01*
X153219184Y-67009751D01*
X153219500Y-67018597D01*
X153219500Y-69222152D01*
X153199815Y-69289191D01*
X153147011Y-69334946D01*
X153119692Y-69343769D01*
X152986508Y-69370261D01*
X152986498Y-69370264D01*
X152840827Y-69430602D01*
X152840816Y-69430608D01*
X152737106Y-69499905D01*
X152670429Y-69520782D01*
X152603049Y-69502297D01*
X152556359Y-69450318D01*
X152549140Y-69431397D01*
X152521745Y-69337106D01*
X152521744Y-69337103D01*
X152521744Y-69337102D01*
X152438081Y-69195635D01*
X152438079Y-69195633D01*
X152438076Y-69195629D01*
X152321870Y-69079423D01*
X152321862Y-69079417D01*
X152243681Y-69033181D01*
X152180398Y-68995756D01*
X152180397Y-68995755D01*
X152180396Y-68995755D01*
X152180393Y-68995754D01*
X152022573Y-68949902D01*
X152022567Y-68949901D01*
X151985701Y-68947000D01*
X151985694Y-68947000D01*
X151744500Y-68947000D01*
X151677461Y-68927315D01*
X151631706Y-68874511D01*
X151620500Y-68823000D01*
X151620500Y-67656813D01*
X151620499Y-67656798D01*
X151619160Y-67639786D01*
X151617598Y-67619931D01*
X151612297Y-67601685D01*
X151612297Y-67601682D01*
X151600187Y-67559999D01*
X152039210Y-67559999D01*
X152075573Y-67614424D01*
X152153307Y-67666363D01*
X152180000Y-67671672D01*
X152680000Y-67671672D01*
X152706688Y-67666364D01*
X152706693Y-67666362D01*
X152784426Y-67614424D01*
X152820790Y-67559999D01*
X152680000Y-67559999D01*
X152680000Y-67671672D01*
X152180000Y-67671672D01*
X152180000Y-67559999D01*
X152039210Y-67559999D01*
X151600187Y-67559999D01*
X151571746Y-67462106D01*
X151571744Y-67462103D01*
X151571744Y-67462102D01*
X151503595Y-67346869D01*
X151486413Y-67279146D01*
X151508573Y-67212883D01*
X151563039Y-67169120D01*
X151571310Y-67166048D01*
X151613697Y-67152003D01*
X151758044Y-67062968D01*
X151807938Y-67013073D01*
X151832924Y-66999429D01*
X151856291Y-66983156D01*
X151863195Y-66982899D01*
X151869258Y-66979589D01*
X151897658Y-66981619D01*
X151926113Y-66980563D01*
X151935177Y-66984302D01*
X151938949Y-66984572D01*
X151958730Y-66994018D01*
X151990607Y-67012870D01*
X151990609Y-67012870D01*
X151994964Y-67015446D01*
X152037633Y-67059999D01*
X152169566Y-67059999D01*
X152179294Y-67060381D01*
X152180819Y-67060501D01*
X152679180Y-67060500D01*
X152715204Y-67057666D01*
X152869393Y-67012870D01*
X153007598Y-66931136D01*
X153007603Y-66931131D01*
X153007819Y-66930916D01*
X153008029Y-66930801D01*
X153013764Y-66926353D01*
X153014481Y-66927278D01*
X153069142Y-66897431D01*
X153138834Y-66902415D01*
G37*
%TD.AperFunction*%
%TA.AperFunction,Conductor*%
G36*
X161811473Y-62943506D02*
G01*
X161853757Y-62957246D01*
X161853763Y-62957247D01*
X161853761Y-62957247D01*
X161914004Y-62966788D01*
X162055279Y-62989164D01*
X162118412Y-63019092D01*
X162155344Y-63078403D01*
X162154346Y-63148266D01*
X162115737Y-63206499D01*
X162060072Y-63233253D01*
X161892900Y-63266506D01*
X161892894Y-63266508D01*
X161720005Y-63338121D01*
X161697027Y-63353473D01*
X161697027Y-63353474D01*
X162040591Y-63697037D01*
X161977007Y-63714075D01*
X161862993Y-63779901D01*
X161769901Y-63872993D01*
X161704075Y-63987007D01*
X161687037Y-64050590D01*
X161343474Y-63707027D01*
X161343473Y-63707027D01*
X161328121Y-63730005D01*
X161256508Y-63902894D01*
X161256506Y-63902902D01*
X161220000Y-64086428D01*
X161220000Y-64273571D01*
X161256506Y-64457097D01*
X161256508Y-64457105D01*
X161328119Y-64629990D01*
X161328126Y-64630002D01*
X161343473Y-64652971D01*
X161343474Y-64652972D01*
X161687037Y-64309409D01*
X161704075Y-64372993D01*
X161769901Y-64487007D01*
X161862993Y-64580099D01*
X161977007Y-64645925D01*
X162040590Y-64662962D01*
X161697027Y-65006524D01*
X161697027Y-65006525D01*
X161720007Y-65021879D01*
X161892894Y-65093491D01*
X161892902Y-65093493D01*
X162060071Y-65126746D01*
X162121982Y-65159131D01*
X162156556Y-65219846D01*
X162152817Y-65289616D01*
X162111950Y-65346288D01*
X162055278Y-65370836D01*
X161853760Y-65402753D01*
X161651585Y-65468444D01*
X161462179Y-65564951D01*
X161290213Y-65689890D01*
X161139890Y-65840213D01*
X161014951Y-66012179D01*
X160918444Y-66201585D01*
X160852753Y-66403760D01*
X160819500Y-66613713D01*
X160819500Y-66826287D01*
X160827580Y-66877304D01*
X160852754Y-67036244D01*
X160852754Y-67036247D01*
X160866491Y-67078523D01*
X160868486Y-67148364D01*
X160836241Y-67204522D01*
X159590181Y-68450583D01*
X159528858Y-68484068D01*
X159459166Y-68479084D01*
X159403233Y-68437212D01*
X159378816Y-68371748D01*
X159378500Y-68362902D01*
X159378500Y-65332096D01*
X159398185Y-65265057D01*
X159414814Y-65244420D01*
X161685478Y-62973755D01*
X161746799Y-62940272D01*
X161811473Y-62943506D01*
G37*
%TD.AperFunction*%
%TA.AperFunction,Conductor*%
G36*
X143505703Y-64274800D02*
G01*
X143543477Y-64333578D01*
X143546117Y-64344322D01*
X143576506Y-64497097D01*
X143576508Y-64497105D01*
X143648119Y-64669990D01*
X143648126Y-64670002D01*
X143663473Y-64692971D01*
X143663474Y-64692972D01*
X144007037Y-64349409D01*
X144024075Y-64412993D01*
X144089901Y-64527007D01*
X144182993Y-64620099D01*
X144297007Y-64685925D01*
X144360590Y-64702962D01*
X144017027Y-65046524D01*
X144017027Y-65046525D01*
X144040007Y-65061879D01*
X144212894Y-65133491D01*
X144212902Y-65133493D01*
X144380071Y-65166746D01*
X144441982Y-65199131D01*
X144476556Y-65259846D01*
X144472817Y-65329616D01*
X144431950Y-65386288D01*
X144375278Y-65410836D01*
X144173760Y-65442753D01*
X143971585Y-65508444D01*
X143782179Y-65604951D01*
X143610213Y-65729890D01*
X143610209Y-65729894D01*
X143512181Y-65827923D01*
X143450858Y-65861408D01*
X143381166Y-65856424D01*
X143325233Y-65814552D01*
X143300816Y-65749088D01*
X143300500Y-65740242D01*
X143300500Y-64368513D01*
X143320185Y-64301474D01*
X143372989Y-64255719D01*
X143442147Y-64245775D01*
X143505703Y-64274800D01*
G37*
%TD.AperFunction*%
%TA.AperFunction,Conductor*%
G36*
X162996524Y-64652972D02*
G01*
X162996525Y-64652971D01*
X163011876Y-64629998D01*
X163011881Y-64629989D01*
X163060939Y-64511553D01*
X163104780Y-64457149D01*
X163171074Y-64435084D01*
X163238773Y-64452363D01*
X163286384Y-64503500D01*
X163299500Y-64559005D01*
X163299500Y-65640242D01*
X163279815Y-65707281D01*
X163227011Y-65753036D01*
X163157853Y-65762980D01*
X163094297Y-65733955D01*
X163087819Y-65727923D01*
X163049786Y-65689890D01*
X162877820Y-65564951D01*
X162688414Y-65468444D01*
X162688413Y-65468443D01*
X162688412Y-65468443D01*
X162486243Y-65402754D01*
X162486241Y-65402753D01*
X162486240Y-65402753D01*
X162335356Y-65378855D01*
X162284720Y-65370835D01*
X162221586Y-65340907D01*
X162184655Y-65281595D01*
X162185653Y-65211733D01*
X162224263Y-65153500D01*
X162279928Y-65126746D01*
X162447097Y-65093493D01*
X162447105Y-65093491D01*
X162619992Y-65021879D01*
X162619998Y-65021876D01*
X162642971Y-65006525D01*
X162642972Y-65006524D01*
X162299410Y-64662962D01*
X162362993Y-64645925D01*
X162477007Y-64580099D01*
X162570099Y-64487007D01*
X162635925Y-64372993D01*
X162652962Y-64309410D01*
X162996524Y-64652972D01*
G37*
%TD.AperFunction*%
%TA.AperFunction,Conductor*%
G36*
X143505703Y-62606045D02*
G01*
X143512181Y-62612077D01*
X143610213Y-62710109D01*
X143782179Y-62835048D01*
X143782181Y-62835049D01*
X143782184Y-62835051D01*
X143971588Y-62931557D01*
X144173757Y-62997246D01*
X144173760Y-62997246D01*
X144173761Y-62997247D01*
X144234004Y-63006788D01*
X144375279Y-63029164D01*
X144438412Y-63059092D01*
X144475344Y-63118403D01*
X144474346Y-63188266D01*
X144435737Y-63246499D01*
X144380072Y-63273253D01*
X144212900Y-63306506D01*
X144212894Y-63306508D01*
X144040005Y-63378121D01*
X144017027Y-63393473D01*
X144017027Y-63393474D01*
X144360591Y-63737037D01*
X144297007Y-63754075D01*
X144182993Y-63819901D01*
X144089901Y-63912993D01*
X144024075Y-64027007D01*
X144007037Y-64090590D01*
X143663474Y-63747027D01*
X143663473Y-63747027D01*
X143648121Y-63770005D01*
X143576508Y-63942894D01*
X143576506Y-63942902D01*
X143546117Y-64095677D01*
X143513732Y-64157588D01*
X143453016Y-64192162D01*
X143383247Y-64188423D01*
X143326575Y-64147556D01*
X143300994Y-64082538D01*
X143300500Y-64071486D01*
X143300500Y-62699758D01*
X143320185Y-62632719D01*
X143372989Y-62586964D01*
X143442147Y-62577020D01*
X143505703Y-62606045D01*
G37*
%TD.AperFunction*%
%TA.AperFunction,Conductor*%
G36*
X163218834Y-62603576D02*
G01*
X163274767Y-62645448D01*
X163299184Y-62710912D01*
X163299500Y-62719758D01*
X163299500Y-63800994D01*
X163279815Y-63868033D01*
X163227011Y-63913788D01*
X163157853Y-63923732D01*
X163094297Y-63894707D01*
X163060939Y-63848447D01*
X163011879Y-63730007D01*
X162996524Y-63707027D01*
X162652962Y-64050589D01*
X162635925Y-63987007D01*
X162570099Y-63872993D01*
X162477007Y-63779901D01*
X162362993Y-63714075D01*
X162299409Y-63697037D01*
X162642972Y-63353474D01*
X162642971Y-63353473D01*
X162620002Y-63338126D01*
X162619990Y-63338119D01*
X162447105Y-63266508D01*
X162447099Y-63266506D01*
X162279927Y-63233253D01*
X162218016Y-63200868D01*
X162183442Y-63140152D01*
X162187182Y-63070382D01*
X162228049Y-63013711D01*
X162284718Y-62989164D01*
X162452032Y-62962664D01*
X162486238Y-62957247D01*
X162486238Y-62957246D01*
X162486243Y-62957246D01*
X162688412Y-62891557D01*
X162877816Y-62795051D01*
X162933996Y-62754234D01*
X163049786Y-62670109D01*
X163049788Y-62670106D01*
X163049792Y-62670104D01*
X163087819Y-62632077D01*
X163149142Y-62598592D01*
X163218834Y-62603576D01*
G37*
%TD.AperFunction*%
%TA.AperFunction,Conductor*%
G36*
X160704185Y-58123050D02*
G01*
X160713147Y-58121762D01*
X160737187Y-58132740D01*
X160762539Y-58140185D01*
X160768466Y-58147025D01*
X160776703Y-58150787D01*
X160790992Y-58173021D01*
X160808294Y-58192989D01*
X160810581Y-58203503D01*
X160814477Y-58209565D01*
X160819500Y-58244500D01*
X160819500Y-58375500D01*
X160799815Y-58442539D01*
X160747011Y-58488294D01*
X160695500Y-58499500D01*
X159583065Y-58499500D01*
X159424950Y-58499500D01*
X159272223Y-58540423D01*
X159272222Y-58540423D01*
X159272220Y-58540424D01*
X159272217Y-58540425D01*
X159222104Y-58569359D01*
X159222103Y-58569360D01*
X159203674Y-58580000D01*
X159135293Y-58619479D01*
X159135290Y-58619481D01*
X158350067Y-59404705D01*
X158288744Y-59438190D01*
X158219052Y-59433206D01*
X158214064Y-59430000D01*
X157900000Y-59430000D01*
X157900000Y-58930000D01*
X158200000Y-58930000D01*
X158200000Y-58801011D01*
X158199999Y-58801009D01*
X158159110Y-58648408D01*
X158080118Y-58511592D01*
X158080116Y-58511589D01*
X157968410Y-58399883D01*
X157968407Y-58399881D01*
X157885280Y-58351887D01*
X157837065Y-58301320D01*
X157823843Y-58232712D01*
X157849811Y-58167848D01*
X157906725Y-58127320D01*
X157947281Y-58120500D01*
X160695500Y-58120500D01*
X160704185Y-58123050D01*
G37*
%TD.AperFunction*%
%TD*%
M02*
