%TF.GenerationSoftware,KiCad,Pcbnew,9.0.5*%
%TF.CreationDate,2025-12-04T18:44:12-08:00*%
%TF.ProjectId,devboard,64657662-6f61-4726-942e-6b696361645f,rev?*%
%TF.SameCoordinates,Original*%
%TF.FileFunction,Copper,L2,Bot*%
%TF.FilePolarity,Positive*%
%FSLAX46Y46*%
G04 Gerber Fmt 4.6, Leading zero omitted, Abs format (unit mm)*
G04 Created by KiCad (PCBNEW 9.0.5) date 2025-12-04 18:44:12*
%MOMM*%
%LPD*%
G01*
G04 APERTURE LIST*
%TA.AperFunction,ComponentPad*%
%ADD10R,1.700000X1.700000*%
%TD*%
%TA.AperFunction,ComponentPad*%
%ADD11C,1.700000*%
%TD*%
%TA.AperFunction,HeatsinkPad*%
%ADD12O,1.000000X2.100000*%
%TD*%
%TA.AperFunction,HeatsinkPad*%
%ADD13O,1.000000X1.600000*%
%TD*%
%TA.AperFunction,ViaPad*%
%ADD14C,0.600000*%
%TD*%
%TA.AperFunction,Conductor*%
%ADD15C,0.200000*%
%TD*%
G04 APERTURE END LIST*
D10*
%TO.P,J2,1,Pin_1*%
%TO.N,GPI00*%
X144490000Y-59140000D03*
D11*
%TO.P,J2,2,Pin_2*%
%TO.N,GPI01*%
X144490000Y-61680000D03*
%TO.P,J2,3,Pin_3*%
%TO.N,GND*%
X144490000Y-64220000D03*
%TO.P,J2,4,Pin_4*%
%TO.N,GPI02*%
X144490000Y-66760000D03*
%TO.P,J2,5,Pin_5*%
%TO.N,GPI03*%
X144490000Y-69300000D03*
%TO.P,J2,6,Pin_6*%
%TO.N,GPI04*%
X144490000Y-71840000D03*
%TO.P,J2,7,Pin_7*%
%TO.N,GPI05*%
X144490000Y-74380000D03*
%TO.P,J2,8,Pin_8*%
%TO.N,GND*%
X144490000Y-76920000D03*
%TO.P,J2,9,Pin_9*%
%TO.N,GPI06*%
X144490000Y-79460000D03*
%TO.P,J2,10,Pin_10*%
%TO.N,GPI07*%
X144490000Y-82000000D03*
%TO.P,J2,11,Pin_11*%
%TO.N,GPI08*%
X144490000Y-84540000D03*
%TO.P,J2,12,Pin_12*%
%TO.N,GPI09*%
X144490000Y-87080000D03*
%TO.P,J2,13,Pin_13*%
%TO.N,GND*%
X144490000Y-89620000D03*
%TO.P,J2,14,Pin_14*%
%TO.N,PGI010*%
X144490000Y-92160000D03*
%TO.P,J2,15,Pin_15*%
%TO.N,GPI011*%
X144490000Y-94700000D03*
%TO.P,J2,16,Pin_16*%
%TO.N,GPI012*%
X144490000Y-97240000D03*
%TO.P,J2,17,Pin_17*%
%TO.N,GPI013*%
X144490000Y-99780000D03*
%TO.P,J2,18,Pin_18*%
%TO.N,GND*%
X144490000Y-102320000D03*
%TO.P,J2,19,Pin_19*%
%TO.N,GPI014*%
X144490000Y-104860000D03*
%TO.P,J2,20,Pin_20*%
%TO.N,GPI015*%
X144490000Y-107400000D03*
%TD*%
D10*
%TO.P,J4,1,Pin_1*%
%TO.N,SWCLK*%
X150740000Y-107120000D03*
D11*
%TO.P,J4,2,Pin_2*%
%TO.N,GND*%
X153280000Y-107120000D03*
%TO.P,J4,3,Pin_3*%
%TO.N,SWD*%
X155820000Y-107120000D03*
%TD*%
D10*
%TO.P,J3,1,Pin_1*%
%TO.N,VBUS*%
X162170000Y-59100000D03*
D11*
%TO.P,J3,2,Pin_2*%
%TO.N,GPI029_ADC3*%
X162170000Y-61640000D03*
%TO.P,J3,3,Pin_3*%
%TO.N,GND*%
X162170000Y-64180000D03*
%TO.P,J3,4,Pin_4*%
%TO.N,GPI028_ADC2*%
X162170000Y-66720000D03*
%TO.P,J3,5,Pin_5*%
%TO.N,+3V3*%
X162170000Y-69260000D03*
%TO.P,J3,6,Pin_6*%
%TO.N,GPIO27_ADC1*%
X162170000Y-71800000D03*
%TO.P,J3,7,Pin_7*%
%TO.N,GPI026_ADCO*%
X162170000Y-74340000D03*
%TO.P,J3,8,Pin_8*%
%TO.N,GND*%
X162170000Y-76880000D03*
%TO.P,J3,9,Pin_9*%
%TO.N,GPI024*%
X162170000Y-79420000D03*
%TO.P,J3,10,Pin_10*%
%TO.N,GPI023*%
X162170000Y-81960000D03*
%TO.P,J3,11,Pin_11*%
%TO.N,RUN*%
X162170000Y-84500000D03*
%TO.P,J3,12,Pin_12*%
%TO.N,GPI022*%
X162170000Y-87040000D03*
%TO.P,J3,13,Pin_13*%
%TO.N,GND*%
X162170000Y-89580000D03*
%TO.P,J3,14,Pin_14*%
%TO.N,GPI021*%
X162170000Y-92120000D03*
%TO.P,J3,15,Pin_15*%
%TO.N,GPI020*%
X162170000Y-94660000D03*
%TO.P,J3,16,Pin_16*%
%TO.N,GPI019*%
X162170000Y-97200000D03*
%TO.P,J3,17,Pin_17*%
%TO.N,GPI018*%
X162170000Y-99740000D03*
%TO.P,J3,18,Pin_18*%
%TO.N,GND*%
X162170000Y-102280000D03*
%TO.P,J3,19,Pin_19*%
%TO.N,GPI017*%
X162170000Y-104820000D03*
%TO.P,J3,20,Pin_20*%
%TO.N,GPI016*%
X162170000Y-107360000D03*
%TD*%
D12*
%TO.P,J1,S1,SHIELD*%
%TO.N,GND*%
X157600000Y-63360000D03*
D13*
X157600000Y-59180000D03*
D12*
X148960000Y-63360000D03*
D13*
X148960000Y-59180000D03*
%TD*%
D14*
%TO.N,+3V3*%
X153220000Y-70140000D03*
X154320735Y-75079265D03*
X157810000Y-81570000D03*
X153670000Y-80141473D03*
X153670000Y-83246176D03*
%TO.N,GND*%
X152470000Y-91800000D03*
X155180000Y-68170000D03*
X154970000Y-94130000D03*
X151340000Y-95071472D03*
X156771765Y-80396765D03*
X158767739Y-58987739D03*
X152190000Y-96238295D03*
X152910000Y-68160000D03*
X146780000Y-88420000D03*
X156630000Y-93390000D03*
X156790000Y-81160000D03*
%TO.N,XIN*%
X152979622Y-89721000D03*
X155970000Y-94760000D03*
%TO.N,GPI02*%
X147894000Y-83100000D03*
%TO.N,GPI01*%
X148295000Y-83842784D03*
%TO.N,GPI00*%
X148696000Y-84579713D03*
%TO.N,GPI08*%
X150770000Y-88570000D03*
%TO.N,GPI03*%
X147493000Y-81510000D03*
%TO.N,GPI029_ADC3*%
X158699735Y-84741735D03*
X158778000Y-80820000D03*
%TO.N,RUN*%
X155660000Y-89720000D03*
%TO.N,SWD*%
X154343152Y-89346848D03*
%TO.N,SWCLK*%
X151609236Y-89429237D03*
%TO.N,QSPI_SS*%
X150140000Y-97610000D03*
X150810000Y-85020000D03*
%TD*%
D15*
%TO.N,+3V3*%
X157810000Y-78568530D02*
X157810000Y-81570000D01*
X153670000Y-80141473D02*
X153670000Y-83246176D01*
X154320735Y-75079265D02*
X157810000Y-78568530D01*
X161290000Y-70140000D02*
X153220000Y-70140000D01*
X162170000Y-69260000D02*
X161290000Y-70140000D01*
%TO.N,GND*%
X146680000Y-88520000D02*
X145590000Y-88520000D01*
X152910000Y-68160000D02*
X155170000Y-68160000D01*
X155170000Y-68160000D02*
X155180000Y-68170000D01*
X151340000Y-95388295D02*
X152190000Y-96238295D01*
X145590000Y-88520000D02*
X144490000Y-89620000D01*
X146780000Y-88420000D02*
X146680000Y-88520000D01*
X151340000Y-95071472D02*
X151340000Y-95388295D01*
%TO.N,XIN*%
X152979622Y-89800622D02*
X152979622Y-89721000D01*
X155970000Y-94760000D02*
X155970000Y-92791000D01*
X155970000Y-92791000D02*
X152979622Y-89800622D01*
%TO.N,GPI02*%
X144490000Y-66760000D02*
X148094000Y-70364000D01*
X148094000Y-70364000D02*
X148094000Y-82900000D01*
X148094000Y-82900000D02*
X147894000Y-83100000D01*
%TO.N,GPI01*%
X148495000Y-65685000D02*
X148495000Y-83642784D01*
X144490000Y-61680000D02*
X148495000Y-65685000D01*
X148495000Y-83642784D02*
X148295000Y-83842784D01*
%TO.N,GPI00*%
X148159000Y-62809000D02*
X148159000Y-64781900D01*
X148159000Y-64781900D02*
X148896000Y-65518900D01*
X148896000Y-65518900D02*
X148896000Y-84379713D01*
X144490000Y-59140000D02*
X148159000Y-62809000D01*
X148896000Y-84379713D02*
X148696000Y-84579713D01*
%TO.N,GPI08*%
X148520000Y-88570000D02*
X150770000Y-88570000D01*
X144490000Y-84540000D02*
X148520000Y-88570000D01*
%TO.N,GPI03*%
X147493000Y-72303000D02*
X147493000Y-81510000D01*
X144490000Y-69300000D02*
X147493000Y-72303000D01*
%TO.N,GPI029_ADC3*%
X158778000Y-80820000D02*
X158699735Y-80898265D01*
X158699735Y-80898265D02*
X158699735Y-84741735D01*
%TO.N,RUN*%
X156950000Y-89720000D02*
X155660000Y-89720000D01*
X162170000Y-84500000D02*
X156950000Y-89720000D01*
%TO.N,SWD*%
X154343152Y-89346848D02*
X154116304Y-89120000D01*
X151869000Y-94750529D02*
X154080000Y-96961529D01*
X152640000Y-89120000D02*
X152210236Y-89549764D01*
X151869000Y-91531057D02*
X151869000Y-94750529D01*
X152210236Y-91189821D02*
X151869000Y-91531057D01*
X152210236Y-89549764D02*
X152210236Y-91189821D01*
X154080000Y-96961529D02*
X154080000Y-105380000D01*
X154116304Y-89120000D02*
X152640000Y-89120000D01*
X155820000Y-107120000D02*
X154080000Y-105380000D01*
%TO.N,SWCLK*%
X150740000Y-90298473D02*
X151609236Y-89429237D01*
X150740000Y-92050000D02*
X150740000Y-90500000D01*
X150740000Y-90500000D02*
X150740000Y-90298473D01*
X150740000Y-107120000D02*
X150740000Y-92050000D01*
%TO.N,QSPI_SS*%
X151371000Y-88818943D02*
X151371000Y-85581000D01*
X150140000Y-90049943D02*
X151371000Y-88818943D01*
X151371000Y-85581000D02*
X150810000Y-85020000D01*
X150140000Y-97610000D02*
X150140000Y-90049943D01*
%TD*%
%TA.AperFunction,Conductor*%
%TO.N,GND*%
G36*
X146045703Y-86945385D02*
G01*
X146052181Y-86951417D01*
X148151284Y-89050520D01*
X148151286Y-89050521D01*
X148151290Y-89050524D01*
X148265853Y-89116666D01*
X148288216Y-89129577D01*
X148440943Y-89170501D01*
X148440945Y-89170501D01*
X148606654Y-89170501D01*
X148606670Y-89170500D01*
X149870845Y-89170500D01*
X149937884Y-89190185D01*
X149983639Y-89242989D01*
X149993583Y-89312147D01*
X149964558Y-89375703D01*
X149958526Y-89382181D01*
X149659481Y-89681225D01*
X149659479Y-89681227D01*
X149641299Y-89712716D01*
X149633615Y-89726027D01*
X149580423Y-89818158D01*
X149539499Y-89970886D01*
X149539499Y-89970888D01*
X149539499Y-90138989D01*
X149539500Y-90139002D01*
X149539500Y-97030234D01*
X149519815Y-97097273D01*
X149518602Y-97099125D01*
X149430609Y-97230814D01*
X149430602Y-97230827D01*
X149370264Y-97376498D01*
X149370261Y-97376510D01*
X149339500Y-97531153D01*
X149339500Y-97688846D01*
X149370261Y-97843489D01*
X149370264Y-97843501D01*
X149430602Y-97989172D01*
X149430609Y-97989185D01*
X149518210Y-98120288D01*
X149518213Y-98120292D01*
X149629707Y-98231786D01*
X149629711Y-98231789D01*
X149760814Y-98319390D01*
X149760827Y-98319397D01*
X149906498Y-98379735D01*
X149906503Y-98379737D01*
X150001112Y-98398556D01*
X150039691Y-98406230D01*
X150101602Y-98438615D01*
X150136176Y-98499330D01*
X150139500Y-98527847D01*
X150139500Y-105645500D01*
X150119815Y-105712539D01*
X150067011Y-105758294D01*
X150015501Y-105769500D01*
X149842130Y-105769500D01*
X149842123Y-105769501D01*
X149782516Y-105775908D01*
X149647671Y-105826202D01*
X149647664Y-105826206D01*
X149532455Y-105912452D01*
X149532452Y-105912455D01*
X149446206Y-106027664D01*
X149446202Y-106027671D01*
X149395908Y-106162517D01*
X149391179Y-106206506D01*
X149389501Y-106222123D01*
X149389500Y-106222135D01*
X149389500Y-108017870D01*
X149389501Y-108017876D01*
X149395908Y-108077483D01*
X149427494Y-108162167D01*
X149432478Y-108231858D01*
X149398993Y-108293182D01*
X149337670Y-108326666D01*
X149311312Y-108329500D01*
X145727352Y-108329500D01*
X145660313Y-108309815D01*
X145614558Y-108257011D01*
X145604614Y-108187853D01*
X145627034Y-108132614D01*
X145645051Y-108107816D01*
X145741557Y-107918412D01*
X145807246Y-107716243D01*
X145840500Y-107506287D01*
X145840500Y-107293713D01*
X145807246Y-107083757D01*
X145741557Y-106881588D01*
X145645051Y-106692184D01*
X145645049Y-106692181D01*
X145645048Y-106692179D01*
X145520109Y-106520213D01*
X145369786Y-106369890D01*
X145197820Y-106244951D01*
X145197115Y-106244591D01*
X145189054Y-106240485D01*
X145138259Y-106192512D01*
X145121463Y-106124692D01*
X145143999Y-106058556D01*
X145189054Y-106019515D01*
X145197816Y-106015051D01*
X145266776Y-105964949D01*
X145369786Y-105890109D01*
X145369788Y-105890106D01*
X145369792Y-105890104D01*
X145520104Y-105739792D01*
X145520106Y-105739788D01*
X145520109Y-105739786D01*
X145645048Y-105567820D01*
X145645047Y-105567820D01*
X145645051Y-105567816D01*
X145741557Y-105378412D01*
X145807246Y-105176243D01*
X145840500Y-104966287D01*
X145840500Y-104753713D01*
X145807246Y-104543757D01*
X145741557Y-104341588D01*
X145645051Y-104152184D01*
X145645049Y-104152181D01*
X145645048Y-104152179D01*
X145520109Y-103980213D01*
X145369786Y-103829890D01*
X145197820Y-103704951D01*
X145008414Y-103608444D01*
X145008413Y-103608443D01*
X145008412Y-103608443D01*
X144806243Y-103542754D01*
X144806241Y-103542753D01*
X144806240Y-103542753D01*
X144655356Y-103518855D01*
X144604720Y-103510835D01*
X144541586Y-103480907D01*
X144504655Y-103421595D01*
X144505653Y-103351733D01*
X144544263Y-103293500D01*
X144599928Y-103266746D01*
X144767097Y-103233493D01*
X144767105Y-103233491D01*
X144939992Y-103161879D01*
X144939998Y-103161876D01*
X144962971Y-103146525D01*
X144962972Y-103146524D01*
X144619410Y-102802962D01*
X144682993Y-102785925D01*
X144797007Y-102720099D01*
X144890099Y-102627007D01*
X144955925Y-102512993D01*
X144972962Y-102449410D01*
X145316524Y-102792972D01*
X145316525Y-102792971D01*
X145331876Y-102769998D01*
X145331879Y-102769992D01*
X145403491Y-102597105D01*
X145403493Y-102597097D01*
X145439999Y-102413571D01*
X145440000Y-102413569D01*
X145440000Y-102226430D01*
X145439999Y-102226428D01*
X145403493Y-102042902D01*
X145403491Y-102042894D01*
X145331879Y-101870007D01*
X145316524Y-101847027D01*
X144972962Y-102190589D01*
X144955925Y-102127007D01*
X144890099Y-102012993D01*
X144797007Y-101919901D01*
X144682993Y-101854075D01*
X144619409Y-101837037D01*
X144962972Y-101493474D01*
X144962971Y-101493473D01*
X144940002Y-101478126D01*
X144939990Y-101478119D01*
X144767105Y-101406508D01*
X144767099Y-101406506D01*
X144599927Y-101373253D01*
X144538016Y-101340868D01*
X144503442Y-101280152D01*
X144507182Y-101210382D01*
X144548049Y-101153711D01*
X144604718Y-101129164D01*
X144772032Y-101102664D01*
X144806238Y-101097247D01*
X144806238Y-101097246D01*
X144806243Y-101097246D01*
X145008412Y-101031557D01*
X145197816Y-100935051D01*
X145252876Y-100895048D01*
X145369786Y-100810109D01*
X145369788Y-100810106D01*
X145369792Y-100810104D01*
X145520104Y-100659792D01*
X145520106Y-100659788D01*
X145520109Y-100659786D01*
X145645048Y-100487820D01*
X145645047Y-100487820D01*
X145645051Y-100487816D01*
X145741557Y-100298412D01*
X145807246Y-100096243D01*
X145840500Y-99886287D01*
X145840500Y-99673713D01*
X145807246Y-99463757D01*
X145741557Y-99261588D01*
X145645051Y-99072184D01*
X145645049Y-99072181D01*
X145645048Y-99072179D01*
X145520109Y-98900213D01*
X145369786Y-98749890D01*
X145197820Y-98624951D01*
X145197115Y-98624591D01*
X145189054Y-98620485D01*
X145138259Y-98572512D01*
X145121463Y-98504692D01*
X145143999Y-98438556D01*
X145189054Y-98399515D01*
X145197816Y-98395051D01*
X145301950Y-98319394D01*
X145369786Y-98270109D01*
X145369788Y-98270106D01*
X145369792Y-98270104D01*
X145520104Y-98119792D01*
X145520106Y-98119788D01*
X145520109Y-98119786D01*
X145645048Y-97947820D01*
X145645047Y-97947820D01*
X145645051Y-97947816D01*
X145741557Y-97758412D01*
X145807246Y-97556243D01*
X145840500Y-97346287D01*
X145840500Y-97133713D01*
X145807246Y-96923757D01*
X145741557Y-96721588D01*
X145645051Y-96532184D01*
X145645049Y-96532181D01*
X145645048Y-96532179D01*
X145520109Y-96360213D01*
X145369786Y-96209890D01*
X145197820Y-96084951D01*
X145197115Y-96084591D01*
X145189054Y-96080485D01*
X145138259Y-96032512D01*
X145121463Y-95964692D01*
X145143999Y-95898556D01*
X145189054Y-95859515D01*
X145197816Y-95855051D01*
X145252876Y-95815048D01*
X145369786Y-95730109D01*
X145369788Y-95730106D01*
X145369792Y-95730104D01*
X145520104Y-95579792D01*
X145520106Y-95579788D01*
X145520109Y-95579786D01*
X145645048Y-95407820D01*
X145645047Y-95407820D01*
X145645051Y-95407816D01*
X145741557Y-95218412D01*
X145807246Y-95016243D01*
X145840500Y-94806287D01*
X145840500Y-94593713D01*
X145807246Y-94383757D01*
X145741557Y-94181588D01*
X145645051Y-93992184D01*
X145645049Y-93992181D01*
X145645048Y-93992179D01*
X145520109Y-93820213D01*
X145369786Y-93669890D01*
X145197820Y-93544951D01*
X145197115Y-93544591D01*
X145189054Y-93540485D01*
X145138259Y-93492512D01*
X145121463Y-93424692D01*
X145143999Y-93358556D01*
X145189054Y-93319515D01*
X145197816Y-93315051D01*
X145252876Y-93275048D01*
X145369786Y-93190109D01*
X145369788Y-93190106D01*
X145369792Y-93190104D01*
X145520104Y-93039792D01*
X145520106Y-93039788D01*
X145520109Y-93039786D01*
X145645048Y-92867820D01*
X145645047Y-92867820D01*
X145645051Y-92867816D01*
X145741557Y-92678412D01*
X145807246Y-92476243D01*
X145840500Y-92266287D01*
X145840500Y-92053713D01*
X145807246Y-91843757D01*
X145741557Y-91641588D01*
X145645051Y-91452184D01*
X145645049Y-91452181D01*
X145645048Y-91452179D01*
X145520109Y-91280213D01*
X145369786Y-91129890D01*
X145197820Y-91004951D01*
X145008414Y-90908444D01*
X145008413Y-90908443D01*
X145008412Y-90908443D01*
X144806243Y-90842754D01*
X144806241Y-90842753D01*
X144806240Y-90842753D01*
X144655356Y-90818855D01*
X144604720Y-90810835D01*
X144541586Y-90780907D01*
X144504655Y-90721595D01*
X144505653Y-90651733D01*
X144544263Y-90593500D01*
X144599928Y-90566746D01*
X144767097Y-90533493D01*
X144767105Y-90533491D01*
X144939992Y-90461879D01*
X144939998Y-90461876D01*
X144962971Y-90446525D01*
X144962972Y-90446524D01*
X144619410Y-90102962D01*
X144682993Y-90085925D01*
X144797007Y-90020099D01*
X144890099Y-89927007D01*
X144955925Y-89812993D01*
X144972962Y-89749410D01*
X145316524Y-90092972D01*
X145316525Y-90092971D01*
X145331876Y-90069998D01*
X145331879Y-90069992D01*
X145403491Y-89897105D01*
X145403493Y-89897097D01*
X145439999Y-89713571D01*
X145440000Y-89713569D01*
X145440000Y-89526430D01*
X145439999Y-89526428D01*
X145403493Y-89342902D01*
X145403491Y-89342894D01*
X145331879Y-89170007D01*
X145316524Y-89147027D01*
X144972962Y-89490589D01*
X144955925Y-89427007D01*
X144890099Y-89312993D01*
X144797007Y-89219901D01*
X144682993Y-89154075D01*
X144619409Y-89137037D01*
X144962972Y-88793474D01*
X144962971Y-88793473D01*
X144940002Y-88778126D01*
X144939990Y-88778119D01*
X144767105Y-88706508D01*
X144767099Y-88706506D01*
X144599927Y-88673253D01*
X144538016Y-88640868D01*
X144503442Y-88580152D01*
X144507182Y-88510382D01*
X144548049Y-88453711D01*
X144604718Y-88429164D01*
X144772032Y-88402664D01*
X144806238Y-88397247D01*
X144806238Y-88397246D01*
X144806243Y-88397246D01*
X145008412Y-88331557D01*
X145197816Y-88235051D01*
X145252876Y-88195048D01*
X145369786Y-88110109D01*
X145369788Y-88110106D01*
X145369792Y-88110104D01*
X145520104Y-87959792D01*
X145520106Y-87959788D01*
X145520109Y-87959786D01*
X145645048Y-87787820D01*
X145645047Y-87787820D01*
X145645051Y-87787816D01*
X145741557Y-87598412D01*
X145807246Y-87396243D01*
X145840500Y-87186287D01*
X145840500Y-87039098D01*
X145860185Y-86972059D01*
X145912989Y-86926304D01*
X145982147Y-86916360D01*
X146045703Y-86945385D01*
G37*
%TD.AperFunction*%
%TA.AperFunction,Conductor*%
G36*
X154389616Y-107137182D02*
G01*
X154446288Y-107178049D01*
X154470835Y-107234720D01*
X154502754Y-107436243D01*
X154553678Y-107592971D01*
X154568444Y-107638414D01*
X154664951Y-107827820D01*
X154789890Y-107999786D01*
X154907923Y-108117819D01*
X154941408Y-108179142D01*
X154936424Y-108248834D01*
X154894552Y-108304767D01*
X154829088Y-108329184D01*
X154820242Y-108329500D01*
X152168688Y-108329500D01*
X152101649Y-108309815D01*
X152055894Y-108257011D01*
X152045950Y-108187853D01*
X152052506Y-108162167D01*
X152063528Y-108132614D01*
X152084091Y-108077483D01*
X152090500Y-108017873D01*
X152090499Y-107268509D01*
X152110183Y-107201472D01*
X152162987Y-107155717D01*
X152232146Y-107145773D01*
X152295702Y-107174798D01*
X152333476Y-107233576D01*
X152336116Y-107244319D01*
X152366506Y-107397099D01*
X152366508Y-107397105D01*
X152438119Y-107569990D01*
X152438126Y-107570002D01*
X152453473Y-107592971D01*
X152453474Y-107592972D01*
X152797037Y-107249409D01*
X152814075Y-107312993D01*
X152879901Y-107427007D01*
X152972993Y-107520099D01*
X153087007Y-107585925D01*
X153150590Y-107602962D01*
X152807027Y-107946524D01*
X152807027Y-107946525D01*
X152830007Y-107961879D01*
X153002894Y-108033491D01*
X153002902Y-108033493D01*
X153186428Y-108069999D01*
X153186431Y-108070000D01*
X153373569Y-108070000D01*
X153373571Y-108069999D01*
X153557097Y-108033493D01*
X153557105Y-108033491D01*
X153729992Y-107961879D01*
X153729998Y-107961876D01*
X153752971Y-107946525D01*
X153752972Y-107946524D01*
X153409410Y-107602962D01*
X153472993Y-107585925D01*
X153587007Y-107520099D01*
X153680099Y-107427007D01*
X153745925Y-107312993D01*
X153762962Y-107249410D01*
X154106524Y-107592972D01*
X154106525Y-107592971D01*
X154121876Y-107569998D01*
X154121879Y-107569992D01*
X154193491Y-107397105D01*
X154193493Y-107397097D01*
X154226746Y-107229928D01*
X154259131Y-107168017D01*
X154319846Y-107133443D01*
X154389616Y-107137182D01*
G37*
%TD.AperFunction*%
%TA.AperFunction,Conductor*%
G36*
X160725398Y-86881953D02*
G01*
X160738834Y-86882914D01*
X160756560Y-86896184D01*
X160776703Y-86905383D01*
X160783985Y-86916714D01*
X160794767Y-86924786D01*
X160802504Y-86945531D01*
X160814477Y-86964161D01*
X160817628Y-86986079D01*
X160819184Y-86990250D01*
X160819500Y-86999096D01*
X160819500Y-87146286D01*
X160852753Y-87356239D01*
X160918444Y-87558414D01*
X161014951Y-87747820D01*
X161139890Y-87919786D01*
X161290213Y-88070109D01*
X161462179Y-88195048D01*
X161462181Y-88195049D01*
X161462184Y-88195051D01*
X161651588Y-88291557D01*
X161853757Y-88357246D01*
X161853760Y-88357246D01*
X161853761Y-88357247D01*
X161914004Y-88366788D01*
X162055279Y-88389164D01*
X162118412Y-88419092D01*
X162155344Y-88478403D01*
X162154346Y-88548266D01*
X162115737Y-88606499D01*
X162060072Y-88633253D01*
X161892900Y-88666506D01*
X161892894Y-88666508D01*
X161720005Y-88738121D01*
X161697027Y-88753473D01*
X161697027Y-88753474D01*
X162040591Y-89097037D01*
X161977007Y-89114075D01*
X161862993Y-89179901D01*
X161769901Y-89272993D01*
X161704075Y-89387007D01*
X161687037Y-89450590D01*
X161343474Y-89107027D01*
X161343473Y-89107027D01*
X161328121Y-89130005D01*
X161256508Y-89302894D01*
X161256506Y-89302902D01*
X161220000Y-89486428D01*
X161220000Y-89673571D01*
X161256506Y-89857097D01*
X161256508Y-89857105D01*
X161328119Y-90029990D01*
X161328126Y-90030002D01*
X161343473Y-90052971D01*
X161343474Y-90052972D01*
X161687037Y-89709409D01*
X161704075Y-89772993D01*
X161769901Y-89887007D01*
X161862993Y-89980099D01*
X161977007Y-90045925D01*
X162040590Y-90062962D01*
X161697027Y-90406524D01*
X161697027Y-90406525D01*
X161720007Y-90421879D01*
X161892894Y-90493491D01*
X161892902Y-90493493D01*
X162060071Y-90526746D01*
X162121982Y-90559131D01*
X162156556Y-90619846D01*
X162152817Y-90689616D01*
X162111950Y-90746288D01*
X162055278Y-90770836D01*
X161853760Y-90802753D01*
X161651585Y-90868444D01*
X161462179Y-90964951D01*
X161290213Y-91089890D01*
X161139890Y-91240213D01*
X161014951Y-91412179D01*
X160918444Y-91601585D01*
X160852753Y-91803760D01*
X160846418Y-91843760D01*
X160819500Y-92013713D01*
X160819500Y-92226287D01*
X160852754Y-92436243D01*
X160892710Y-92559215D01*
X160918444Y-92638414D01*
X161014951Y-92827820D01*
X161139890Y-92999786D01*
X161290213Y-93150109D01*
X161462182Y-93275050D01*
X161470946Y-93279516D01*
X161521742Y-93327491D01*
X161538536Y-93395312D01*
X161515998Y-93461447D01*
X161470946Y-93500484D01*
X161462182Y-93504949D01*
X161290213Y-93629890D01*
X161139890Y-93780213D01*
X161014951Y-93952179D01*
X160918444Y-94141585D01*
X160852753Y-94343760D01*
X160821971Y-94538113D01*
X160819500Y-94553713D01*
X160819500Y-94766287D01*
X160852754Y-94976243D01*
X160905697Y-95139185D01*
X160918444Y-95178414D01*
X161014951Y-95367820D01*
X161139890Y-95539786D01*
X161290213Y-95690109D01*
X161462182Y-95815050D01*
X161470946Y-95819516D01*
X161521742Y-95867491D01*
X161538536Y-95935312D01*
X161515998Y-96001447D01*
X161470946Y-96040484D01*
X161462182Y-96044949D01*
X161290213Y-96169890D01*
X161139890Y-96320213D01*
X161014951Y-96492179D01*
X160918444Y-96681585D01*
X160852753Y-96883760D01*
X160846418Y-96923760D01*
X160819500Y-97093713D01*
X160819500Y-97306287D01*
X160852754Y-97516243D01*
X160908836Y-97688846D01*
X160918444Y-97718414D01*
X161014951Y-97907820D01*
X161139890Y-98079786D01*
X161290213Y-98230109D01*
X161462182Y-98355050D01*
X161470946Y-98359516D01*
X161521742Y-98407491D01*
X161538536Y-98475312D01*
X161515998Y-98541447D01*
X161470946Y-98580484D01*
X161462182Y-98584949D01*
X161290213Y-98709890D01*
X161139890Y-98860213D01*
X161014951Y-99032179D01*
X160918444Y-99221585D01*
X160852753Y-99423760D01*
X160819500Y-99633713D01*
X160819500Y-99846286D01*
X160852753Y-100056239D01*
X160918444Y-100258414D01*
X161014951Y-100447820D01*
X161139890Y-100619786D01*
X161290213Y-100770109D01*
X161462179Y-100895048D01*
X161462181Y-100895049D01*
X161462184Y-100895051D01*
X161651588Y-100991557D01*
X161853757Y-101057246D01*
X161853760Y-101057246D01*
X161853761Y-101057247D01*
X161914004Y-101066788D01*
X162055279Y-101089164D01*
X162118412Y-101119092D01*
X162155344Y-101178403D01*
X162154346Y-101248266D01*
X162115737Y-101306499D01*
X162060072Y-101333253D01*
X161892900Y-101366506D01*
X161892894Y-101366508D01*
X161720005Y-101438121D01*
X161697027Y-101453473D01*
X161697027Y-101453474D01*
X162040591Y-101797037D01*
X161977007Y-101814075D01*
X161862993Y-101879901D01*
X161769901Y-101972993D01*
X161704075Y-102087007D01*
X161687037Y-102150590D01*
X161343474Y-101807027D01*
X161343473Y-101807027D01*
X161328121Y-101830005D01*
X161256508Y-102002894D01*
X161256506Y-102002902D01*
X161220000Y-102186428D01*
X161220000Y-102373571D01*
X161256506Y-102557097D01*
X161256508Y-102557105D01*
X161328119Y-102729990D01*
X161328126Y-102730002D01*
X161343473Y-102752971D01*
X161343474Y-102752972D01*
X161687037Y-102409409D01*
X161704075Y-102472993D01*
X161769901Y-102587007D01*
X161862993Y-102680099D01*
X161977007Y-102745925D01*
X162040590Y-102762962D01*
X161697027Y-103106524D01*
X161697027Y-103106525D01*
X161720007Y-103121879D01*
X161892894Y-103193491D01*
X161892902Y-103193493D01*
X162060071Y-103226746D01*
X162121982Y-103259131D01*
X162156556Y-103319846D01*
X162152817Y-103389616D01*
X162111950Y-103446288D01*
X162055278Y-103470836D01*
X161853760Y-103502753D01*
X161651585Y-103568444D01*
X161462179Y-103664951D01*
X161290213Y-103789890D01*
X161139890Y-103940213D01*
X161014951Y-104112179D01*
X160918444Y-104301585D01*
X160852753Y-104503760D01*
X160846418Y-104543760D01*
X160819500Y-104713713D01*
X160819500Y-104926287D01*
X160852754Y-105136243D01*
X160906267Y-105300939D01*
X160918444Y-105338414D01*
X161014951Y-105527820D01*
X161139890Y-105699786D01*
X161290213Y-105850109D01*
X161462182Y-105975050D01*
X161470946Y-105979516D01*
X161521742Y-106027491D01*
X161538536Y-106095312D01*
X161515998Y-106161447D01*
X161470946Y-106200484D01*
X161462182Y-106204949D01*
X161290213Y-106329890D01*
X161139890Y-106480213D01*
X161014951Y-106652179D01*
X160918444Y-106841585D01*
X160852753Y-107043760D01*
X160840678Y-107119999D01*
X160819500Y-107253713D01*
X160819500Y-107466287D01*
X160852754Y-107676243D01*
X160902003Y-107827816D01*
X160918444Y-107878414D01*
X161014951Y-108067820D01*
X161062027Y-108132615D01*
X161085507Y-108198422D01*
X161069681Y-108266475D01*
X161019575Y-108315170D01*
X160961709Y-108329500D01*
X156819758Y-108329500D01*
X156752719Y-108309815D01*
X156706964Y-108257011D01*
X156697020Y-108187853D01*
X156726045Y-108124297D01*
X156732077Y-108117819D01*
X156782080Y-108067816D01*
X156850104Y-107999792D01*
X156850106Y-107999788D01*
X156850109Y-107999786D01*
X156975048Y-107827820D01*
X156975047Y-107827820D01*
X156975051Y-107827816D01*
X157071557Y-107638412D01*
X157137246Y-107436243D01*
X157170500Y-107226287D01*
X157170500Y-107013713D01*
X157137246Y-106803757D01*
X157071557Y-106601588D01*
X156975051Y-106412184D01*
X156975049Y-106412181D01*
X156975048Y-106412179D01*
X156850109Y-106240213D01*
X156699786Y-106089890D01*
X156527820Y-105964951D01*
X156338414Y-105868444D01*
X156338413Y-105868443D01*
X156338412Y-105868443D01*
X156136243Y-105802754D01*
X156136241Y-105802753D01*
X156136240Y-105802753D01*
X155974957Y-105777208D01*
X155926287Y-105769500D01*
X155713713Y-105769500D01*
X155685006Y-105774046D01*
X155503757Y-105802753D01*
X155461473Y-105816492D01*
X155391632Y-105818486D01*
X155335476Y-105786241D01*
X154716819Y-105167583D01*
X154683334Y-105106260D01*
X154680500Y-105079902D01*
X154680500Y-96882474D01*
X154680500Y-96882472D01*
X154639577Y-96729745D01*
X154639577Y-96729744D01*
X154639577Y-96729743D01*
X154610639Y-96679624D01*
X154610637Y-96679621D01*
X154564550Y-96599794D01*
X154560520Y-96592813D01*
X154448716Y-96481009D01*
X154448715Y-96481008D01*
X154444385Y-96476678D01*
X154444374Y-96476668D01*
X152505819Y-94538113D01*
X152472334Y-94476790D01*
X152469500Y-94450432D01*
X152469500Y-91831154D01*
X152489185Y-91764115D01*
X152505819Y-91743473D01*
X152690756Y-91558537D01*
X152769813Y-91421605D01*
X152810737Y-91268878D01*
X152810737Y-91110763D01*
X152810737Y-91103168D01*
X152810736Y-91103150D01*
X152810736Y-90780333D01*
X152830421Y-90713294D01*
X152883225Y-90667539D01*
X152952383Y-90657595D01*
X153015939Y-90686620D01*
X153022417Y-90692652D01*
X155333181Y-93003416D01*
X155366666Y-93064739D01*
X155369500Y-93091097D01*
X155369500Y-94180234D01*
X155349815Y-94247273D01*
X155348602Y-94249125D01*
X155260609Y-94380814D01*
X155260602Y-94380827D01*
X155200264Y-94526498D01*
X155200261Y-94526510D01*
X155169500Y-94681153D01*
X155169500Y-94838846D01*
X155200261Y-94993489D01*
X155200264Y-94993501D01*
X155260602Y-95139172D01*
X155260609Y-95139185D01*
X155348210Y-95270288D01*
X155348213Y-95270292D01*
X155459707Y-95381786D01*
X155459711Y-95381789D01*
X155590814Y-95469390D01*
X155590827Y-95469397D01*
X155736498Y-95529735D01*
X155736503Y-95529737D01*
X155891153Y-95560499D01*
X155891156Y-95560500D01*
X155891158Y-95560500D01*
X156048844Y-95560500D01*
X156048845Y-95560499D01*
X156203497Y-95529737D01*
X156349179Y-95469394D01*
X156480289Y-95381789D01*
X156591789Y-95270289D01*
X156679394Y-95139179D01*
X156739737Y-94993497D01*
X156770500Y-94838842D01*
X156770500Y-94681158D01*
X156770500Y-94681155D01*
X156770499Y-94681153D01*
X156739738Y-94526510D01*
X156739737Y-94526503D01*
X156729502Y-94501794D01*
X156679397Y-94380827D01*
X156679390Y-94380814D01*
X156591398Y-94249125D01*
X156570520Y-94182447D01*
X156570500Y-94180234D01*
X156570500Y-92711944D01*
X156570500Y-92711943D01*
X156561515Y-92678412D01*
X156529577Y-92559215D01*
X156481673Y-92476243D01*
X156450520Y-92422284D01*
X156338716Y-92310480D01*
X156338715Y-92310479D01*
X156334385Y-92306149D01*
X156334374Y-92306139D01*
X154380505Y-90352270D01*
X154347020Y-90290947D01*
X154352004Y-90221255D01*
X154393876Y-90165322D01*
X154443995Y-90142972D01*
X154488696Y-90134079D01*
X154576649Y-90116585D01*
X154722331Y-90056242D01*
X154761560Y-90030030D01*
X154828237Y-90009151D01*
X154895617Y-90027635D01*
X154942308Y-90079613D01*
X154945012Y-90085676D01*
X154950603Y-90099173D01*
X154950609Y-90099185D01*
X155038210Y-90230288D01*
X155038213Y-90230292D01*
X155149707Y-90341786D01*
X155149711Y-90341789D01*
X155280814Y-90429390D01*
X155280827Y-90429397D01*
X155359247Y-90461879D01*
X155426503Y-90489737D01*
X155524375Y-90509205D01*
X155581153Y-90520499D01*
X155581156Y-90520500D01*
X155581158Y-90520500D01*
X155738844Y-90520500D01*
X155738845Y-90520499D01*
X155893497Y-90489737D01*
X156039179Y-90429394D01*
X156050426Y-90421879D01*
X156170875Y-90341398D01*
X156237553Y-90320520D01*
X156239766Y-90320500D01*
X156863331Y-90320500D01*
X156863347Y-90320501D01*
X156870943Y-90320501D01*
X157029054Y-90320501D01*
X157029057Y-90320501D01*
X157181785Y-90279577D01*
X157231904Y-90250639D01*
X157318716Y-90200520D01*
X157430520Y-90088716D01*
X157430520Y-90088714D01*
X157440728Y-90078507D01*
X157440729Y-90078504D01*
X160607821Y-86911413D01*
X160627255Y-86900802D01*
X160643989Y-86886302D01*
X160657320Y-86884385D01*
X160669142Y-86877930D01*
X160691228Y-86879509D01*
X160713147Y-86876358D01*
X160725398Y-86881953D01*
G37*
%TD.AperFunction*%
%TA.AperFunction,Conductor*%
G36*
X151545703Y-95276913D02*
G01*
X151552181Y-95282945D01*
X153443181Y-97173945D01*
X153476666Y-97235268D01*
X153479500Y-97261626D01*
X153479500Y-105293330D01*
X153479499Y-105293348D01*
X153479499Y-105459054D01*
X153479498Y-105459054D01*
X153520423Y-105611785D01*
X153549358Y-105661900D01*
X153549359Y-105661904D01*
X153549360Y-105661904D01*
X153599479Y-105748714D01*
X153599481Y-105748717D01*
X153718349Y-105867585D01*
X153718355Y-105867590D01*
X154486241Y-106635476D01*
X154519726Y-106696799D01*
X154516492Y-106761473D01*
X154502753Y-106803757D01*
X154470836Y-107005278D01*
X154440907Y-107068413D01*
X154381595Y-107105344D01*
X154311733Y-107104346D01*
X154253500Y-107065736D01*
X154226746Y-107010071D01*
X154193493Y-106842902D01*
X154193491Y-106842894D01*
X154121879Y-106670007D01*
X154106524Y-106647027D01*
X153762962Y-106990589D01*
X153745925Y-106927007D01*
X153680099Y-106812993D01*
X153587007Y-106719901D01*
X153472993Y-106654075D01*
X153409409Y-106637037D01*
X153752972Y-106293474D01*
X153752971Y-106293473D01*
X153730002Y-106278126D01*
X153729990Y-106278119D01*
X153557105Y-106206508D01*
X153557097Y-106206506D01*
X153373570Y-106170000D01*
X153186430Y-106170000D01*
X153002902Y-106206506D01*
X153002894Y-106206508D01*
X152830005Y-106278121D01*
X152807027Y-106293473D01*
X152807027Y-106293474D01*
X153150591Y-106637037D01*
X153087007Y-106654075D01*
X152972993Y-106719901D01*
X152879901Y-106812993D01*
X152814075Y-106927007D01*
X152797037Y-106990590D01*
X152453474Y-106647027D01*
X152453473Y-106647027D01*
X152438121Y-106670005D01*
X152366508Y-106842894D01*
X152366506Y-106842900D01*
X152336116Y-106995681D01*
X152303731Y-107057592D01*
X152243015Y-107092166D01*
X152173246Y-107088426D01*
X152116574Y-107047559D01*
X152090992Y-106982541D01*
X152090499Y-106971489D01*
X152090499Y-106222129D01*
X152090498Y-106222123D01*
X152090497Y-106222116D01*
X152084091Y-106162517D01*
X152080359Y-106152512D01*
X152033797Y-106027671D01*
X152033793Y-106027664D01*
X151947547Y-105912455D01*
X151947544Y-105912452D01*
X151832335Y-105826206D01*
X151832328Y-105826202D01*
X151697482Y-105775908D01*
X151697483Y-105775908D01*
X151637883Y-105769501D01*
X151637881Y-105769500D01*
X151637873Y-105769500D01*
X151637865Y-105769500D01*
X151464500Y-105769500D01*
X151397461Y-105749815D01*
X151351706Y-105697011D01*
X151340500Y-105645500D01*
X151340500Y-95370626D01*
X151360185Y-95303587D01*
X151412989Y-95257832D01*
X151482147Y-95247888D01*
X151545703Y-95276913D01*
G37*
%TD.AperFunction*%
%TA.AperFunction,Conductor*%
G36*
X143505703Y-102374800D02*
G01*
X143543477Y-102433578D01*
X143546117Y-102444322D01*
X143576506Y-102597097D01*
X143576508Y-102597105D01*
X143648119Y-102769990D01*
X143648126Y-102770002D01*
X143663473Y-102792971D01*
X143663474Y-102792972D01*
X144007037Y-102449409D01*
X144024075Y-102512993D01*
X144089901Y-102627007D01*
X144182993Y-102720099D01*
X144297007Y-102785925D01*
X144360590Y-102802962D01*
X144017027Y-103146524D01*
X144017027Y-103146525D01*
X144040007Y-103161879D01*
X144212894Y-103233491D01*
X144212902Y-103233493D01*
X144380071Y-103266746D01*
X144441982Y-103299131D01*
X144476556Y-103359846D01*
X144472817Y-103429616D01*
X144431950Y-103486288D01*
X144375278Y-103510836D01*
X144173760Y-103542753D01*
X143971585Y-103608444D01*
X143782179Y-103704951D01*
X143610213Y-103829890D01*
X143610209Y-103829894D01*
X143512181Y-103927923D01*
X143450858Y-103961408D01*
X143381166Y-103956424D01*
X143325233Y-103914552D01*
X143300816Y-103849088D01*
X143300500Y-103840242D01*
X143300500Y-102468513D01*
X143320185Y-102401474D01*
X143372989Y-102355719D01*
X143442147Y-102345775D01*
X143505703Y-102374800D01*
G37*
%TD.AperFunction*%
%TA.AperFunction,Conductor*%
G36*
X162996524Y-102752972D02*
G01*
X162996525Y-102752971D01*
X163011876Y-102729998D01*
X163011881Y-102729989D01*
X163060939Y-102611553D01*
X163104780Y-102557149D01*
X163171074Y-102535084D01*
X163238773Y-102552363D01*
X163286384Y-102603500D01*
X163299500Y-102659005D01*
X163299500Y-103740242D01*
X163279815Y-103807281D01*
X163227011Y-103853036D01*
X163157853Y-103862980D01*
X163094297Y-103833955D01*
X163087819Y-103827923D01*
X163049786Y-103789890D01*
X162877820Y-103664951D01*
X162688414Y-103568444D01*
X162688413Y-103568443D01*
X162688412Y-103568443D01*
X162486243Y-103502754D01*
X162486241Y-103502753D01*
X162486240Y-103502753D01*
X162335356Y-103478855D01*
X162284720Y-103470835D01*
X162221586Y-103440907D01*
X162184655Y-103381595D01*
X162185653Y-103311733D01*
X162224263Y-103253500D01*
X162279928Y-103226746D01*
X162447097Y-103193493D01*
X162447105Y-103193491D01*
X162619992Y-103121879D01*
X162619998Y-103121876D01*
X162642971Y-103106525D01*
X162642972Y-103106524D01*
X162299410Y-102762962D01*
X162362993Y-102745925D01*
X162477007Y-102680099D01*
X162570099Y-102587007D01*
X162635925Y-102472993D01*
X162652962Y-102409410D01*
X162996524Y-102752972D01*
G37*
%TD.AperFunction*%
%TA.AperFunction,Conductor*%
G36*
X143505703Y-100706045D02*
G01*
X143512181Y-100712077D01*
X143610213Y-100810109D01*
X143782179Y-100935048D01*
X143782181Y-100935049D01*
X143782184Y-100935051D01*
X143971588Y-101031557D01*
X144173757Y-101097246D01*
X144173760Y-101097246D01*
X144173761Y-101097247D01*
X144234004Y-101106788D01*
X144375279Y-101129164D01*
X144438412Y-101159092D01*
X144475344Y-101218403D01*
X144474346Y-101288266D01*
X144435737Y-101346499D01*
X144380072Y-101373253D01*
X144212900Y-101406506D01*
X144212894Y-101406508D01*
X144040005Y-101478121D01*
X144017027Y-101493473D01*
X144017027Y-101493474D01*
X144360591Y-101837037D01*
X144297007Y-101854075D01*
X144182993Y-101919901D01*
X144089901Y-102012993D01*
X144024075Y-102127007D01*
X144007037Y-102190590D01*
X143663474Y-101847027D01*
X143663473Y-101847027D01*
X143648121Y-101870005D01*
X143576508Y-102042894D01*
X143576506Y-102042902D01*
X143546117Y-102195677D01*
X143513732Y-102257588D01*
X143453016Y-102292162D01*
X143383247Y-102288423D01*
X143326575Y-102247556D01*
X143300994Y-102182538D01*
X143300500Y-102171486D01*
X143300500Y-100799758D01*
X143320185Y-100732719D01*
X143372989Y-100686964D01*
X143442147Y-100677020D01*
X143505703Y-100706045D01*
G37*
%TD.AperFunction*%
%TA.AperFunction,Conductor*%
G36*
X163218834Y-100703576D02*
G01*
X163274767Y-100745448D01*
X163299184Y-100810912D01*
X163299500Y-100819758D01*
X163299500Y-101900994D01*
X163279815Y-101968033D01*
X163227011Y-102013788D01*
X163157853Y-102023732D01*
X163094297Y-101994707D01*
X163060939Y-101948447D01*
X163011879Y-101830007D01*
X162996524Y-101807027D01*
X162652962Y-102150589D01*
X162635925Y-102087007D01*
X162570099Y-101972993D01*
X162477007Y-101879901D01*
X162362993Y-101814075D01*
X162299409Y-101797037D01*
X162642972Y-101453474D01*
X162642971Y-101453473D01*
X162620002Y-101438126D01*
X162619990Y-101438119D01*
X162447105Y-101366508D01*
X162447099Y-101366506D01*
X162279927Y-101333253D01*
X162218016Y-101300868D01*
X162183442Y-101240152D01*
X162187182Y-101170382D01*
X162228049Y-101113711D01*
X162284718Y-101089164D01*
X162452032Y-101062664D01*
X162486238Y-101057247D01*
X162486238Y-101057246D01*
X162486243Y-101057246D01*
X162688412Y-100991557D01*
X162877816Y-100895051D01*
X162981449Y-100819758D01*
X163049786Y-100770109D01*
X163049788Y-100770106D01*
X163049792Y-100770104D01*
X163087819Y-100732077D01*
X163149142Y-100698592D01*
X163218834Y-100703576D01*
G37*
%TD.AperFunction*%
%TA.AperFunction,Conductor*%
G36*
X143505703Y-89674800D02*
G01*
X143543477Y-89733578D01*
X143546117Y-89744322D01*
X143576506Y-89897097D01*
X143576508Y-89897105D01*
X143648119Y-90069990D01*
X143648126Y-90070002D01*
X143663473Y-90092971D01*
X143663474Y-90092972D01*
X144007037Y-89749409D01*
X144024075Y-89812993D01*
X144089901Y-89927007D01*
X144182993Y-90020099D01*
X144297007Y-90085925D01*
X144360590Y-90102962D01*
X144017027Y-90446524D01*
X144017027Y-90446525D01*
X144040007Y-90461879D01*
X144212894Y-90533491D01*
X144212902Y-90533493D01*
X144380071Y-90566746D01*
X144441982Y-90599131D01*
X144476556Y-90659846D01*
X144472817Y-90729616D01*
X144431950Y-90786288D01*
X144375278Y-90810836D01*
X144173760Y-90842753D01*
X143971585Y-90908444D01*
X143782179Y-91004951D01*
X143610213Y-91129890D01*
X143610209Y-91129894D01*
X143512181Y-91227923D01*
X143450858Y-91261408D01*
X143381166Y-91256424D01*
X143325233Y-91214552D01*
X143300816Y-91149088D01*
X143300500Y-91140242D01*
X143300500Y-89768513D01*
X143320185Y-89701474D01*
X143372989Y-89655719D01*
X143442147Y-89645775D01*
X143505703Y-89674800D01*
G37*
%TD.AperFunction*%
%TA.AperFunction,Conductor*%
G36*
X162996524Y-90052972D02*
G01*
X162996525Y-90052971D01*
X163011876Y-90029998D01*
X163011881Y-90029989D01*
X163060939Y-89911553D01*
X163104780Y-89857149D01*
X163171074Y-89835084D01*
X163238773Y-89852363D01*
X163286384Y-89903500D01*
X163299500Y-89959005D01*
X163299500Y-91040242D01*
X163279815Y-91107281D01*
X163227011Y-91153036D01*
X163157853Y-91162980D01*
X163094297Y-91133955D01*
X163087819Y-91127923D01*
X163049786Y-91089890D01*
X162877820Y-90964951D01*
X162688414Y-90868444D01*
X162688413Y-90868443D01*
X162688412Y-90868443D01*
X162486243Y-90802754D01*
X162486241Y-90802753D01*
X162486240Y-90802753D01*
X162335356Y-90778855D01*
X162284720Y-90770835D01*
X162221586Y-90740907D01*
X162184655Y-90681595D01*
X162185653Y-90611733D01*
X162224263Y-90553500D01*
X162279928Y-90526746D01*
X162447097Y-90493493D01*
X162447105Y-90493491D01*
X162619992Y-90421879D01*
X162619998Y-90421876D01*
X162642971Y-90406525D01*
X162642972Y-90406524D01*
X162299410Y-90062962D01*
X162362993Y-90045925D01*
X162477007Y-89980099D01*
X162570099Y-89887007D01*
X162635925Y-89772993D01*
X162652962Y-89709410D01*
X162996524Y-90052972D01*
G37*
%TD.AperFunction*%
%TA.AperFunction,Conductor*%
G36*
X143505703Y-88006045D02*
G01*
X143512181Y-88012077D01*
X143610213Y-88110109D01*
X143782179Y-88235048D01*
X143782181Y-88235049D01*
X143782184Y-88235051D01*
X143971588Y-88331557D01*
X144173757Y-88397246D01*
X144173760Y-88397246D01*
X144173761Y-88397247D01*
X144234004Y-88406788D01*
X144375279Y-88429164D01*
X144438412Y-88459092D01*
X144475344Y-88518403D01*
X144474346Y-88588266D01*
X144435737Y-88646499D01*
X144380072Y-88673253D01*
X144212900Y-88706506D01*
X144212894Y-88706508D01*
X144040005Y-88778121D01*
X144017027Y-88793473D01*
X144017027Y-88793474D01*
X144360591Y-89137037D01*
X144297007Y-89154075D01*
X144182993Y-89219901D01*
X144089901Y-89312993D01*
X144024075Y-89427007D01*
X144007037Y-89490590D01*
X143663474Y-89147027D01*
X143663473Y-89147027D01*
X143648121Y-89170005D01*
X143576508Y-89342894D01*
X143576506Y-89342902D01*
X143546117Y-89495677D01*
X143513732Y-89557588D01*
X143453016Y-89592162D01*
X143383247Y-89588423D01*
X143326575Y-89547556D01*
X143300994Y-89482538D01*
X143300500Y-89471486D01*
X143300500Y-88099758D01*
X143320185Y-88032719D01*
X143372989Y-87986964D01*
X143442147Y-87977020D01*
X143505703Y-88006045D01*
G37*
%TD.AperFunction*%
%TA.AperFunction,Conductor*%
G36*
X163218834Y-88003576D02*
G01*
X163274767Y-88045448D01*
X163299184Y-88110912D01*
X163299500Y-88119758D01*
X163299500Y-89200994D01*
X163279815Y-89268033D01*
X163227011Y-89313788D01*
X163157853Y-89323732D01*
X163094297Y-89294707D01*
X163060939Y-89248447D01*
X163011879Y-89130007D01*
X162996524Y-89107027D01*
X162652962Y-89450589D01*
X162635925Y-89387007D01*
X162570099Y-89272993D01*
X162477007Y-89179901D01*
X162362993Y-89114075D01*
X162299409Y-89097037D01*
X162642972Y-88753474D01*
X162642971Y-88753473D01*
X162620002Y-88738126D01*
X162619990Y-88738119D01*
X162447105Y-88666508D01*
X162447099Y-88666506D01*
X162279927Y-88633253D01*
X162218016Y-88600868D01*
X162183442Y-88540152D01*
X162187182Y-88470382D01*
X162228049Y-88413711D01*
X162284718Y-88389164D01*
X162452032Y-88362664D01*
X162486238Y-88357247D01*
X162486238Y-88357246D01*
X162486243Y-88357246D01*
X162688412Y-88291557D01*
X162877816Y-88195051D01*
X162981449Y-88119758D01*
X163049786Y-88070109D01*
X163049788Y-88070106D01*
X163049792Y-88070104D01*
X163087819Y-88032077D01*
X163149142Y-87998592D01*
X163218834Y-88003576D01*
G37*
%TD.AperFunction*%
%TA.AperFunction,Conductor*%
G36*
X148679758Y-58140185D02*
G01*
X148725513Y-58192989D01*
X148735457Y-58262147D01*
X148706432Y-58325703D01*
X148674720Y-58351887D01*
X148591592Y-58399881D01*
X148591589Y-58399883D01*
X148479883Y-58511589D01*
X148479881Y-58511592D01*
X148400889Y-58648408D01*
X148360000Y-58801009D01*
X148360000Y-58930000D01*
X148660000Y-58930000D01*
X148660000Y-59430000D01*
X148360000Y-59430000D01*
X148360000Y-59558990D01*
X148400889Y-59711591D01*
X148479881Y-59848407D01*
X148479883Y-59848410D01*
X148591589Y-59960116D01*
X148591595Y-59960120D01*
X148709999Y-60028482D01*
X148710000Y-60028482D01*
X148710000Y-59646988D01*
X148719940Y-59664205D01*
X148775795Y-59720060D01*
X148844204Y-59759556D01*
X148920504Y-59780000D01*
X148999496Y-59780000D01*
X149075796Y-59759556D01*
X149144205Y-59720060D01*
X149200060Y-59664205D01*
X149210000Y-59646988D01*
X149210000Y-60028482D01*
X149328404Y-59960120D01*
X149328410Y-59960116D01*
X149440116Y-59848410D01*
X149440118Y-59848407D01*
X149519110Y-59711591D01*
X149559999Y-59558990D01*
X149560000Y-59558989D01*
X149560000Y-59430000D01*
X149260000Y-59430000D01*
X149260000Y-58930000D01*
X149560000Y-58930000D01*
X149560000Y-58801011D01*
X149559999Y-58801009D01*
X149519110Y-58648408D01*
X149440118Y-58511592D01*
X149440116Y-58511589D01*
X149328410Y-58399883D01*
X149328407Y-58399881D01*
X149245280Y-58351887D01*
X149197065Y-58301320D01*
X149183843Y-58232712D01*
X149209811Y-58167848D01*
X149266725Y-58127320D01*
X149307281Y-58120500D01*
X157252719Y-58120500D01*
X157319758Y-58140185D01*
X157365513Y-58192989D01*
X157375457Y-58262147D01*
X157346432Y-58325703D01*
X157314720Y-58351887D01*
X157231592Y-58399881D01*
X157231589Y-58399883D01*
X157119883Y-58511589D01*
X157119881Y-58511592D01*
X157040889Y-58648408D01*
X157000000Y-58801009D01*
X157000000Y-58930000D01*
X157300000Y-58930000D01*
X157300000Y-59430000D01*
X157000000Y-59430000D01*
X157000000Y-59558990D01*
X157040889Y-59711591D01*
X157119881Y-59848407D01*
X157119883Y-59848410D01*
X157231589Y-59960116D01*
X157231595Y-59960120D01*
X157349999Y-60028482D01*
X157350000Y-60028482D01*
X157350000Y-59646988D01*
X157359940Y-59664205D01*
X157415795Y-59720060D01*
X157484204Y-59759556D01*
X157560504Y-59780000D01*
X157639496Y-59780000D01*
X157715796Y-59759556D01*
X157784205Y-59720060D01*
X157840060Y-59664205D01*
X157850000Y-59646988D01*
X157850000Y-60028482D01*
X157968404Y-59960120D01*
X157968410Y-59960116D01*
X158080116Y-59848410D01*
X158080118Y-59848407D01*
X158159110Y-59711591D01*
X158199999Y-59558990D01*
X158200000Y-59558989D01*
X158200000Y-59430000D01*
X157900000Y-59430000D01*
X157900000Y-58930000D01*
X158200000Y-58930000D01*
X158200000Y-58801011D01*
X158199999Y-58801009D01*
X158159110Y-58648408D01*
X158080118Y-58511592D01*
X158080116Y-58511589D01*
X157968410Y-58399883D01*
X157968407Y-58399881D01*
X157885280Y-58351887D01*
X157837065Y-58301320D01*
X157823843Y-58232712D01*
X157849811Y-58167848D01*
X157906725Y-58127320D01*
X157947281Y-58120500D01*
X160695500Y-58120500D01*
X160762539Y-58140185D01*
X160808294Y-58192989D01*
X160819500Y-58244500D01*
X160819500Y-59997870D01*
X160819501Y-59997876D01*
X160825908Y-60057483D01*
X160876202Y-60192328D01*
X160876206Y-60192335D01*
X160962452Y-60307544D01*
X160962455Y-60307547D01*
X161077664Y-60393793D01*
X161077671Y-60393797D01*
X161209082Y-60442810D01*
X161265016Y-60484681D01*
X161289433Y-60550145D01*
X161274582Y-60618418D01*
X161253431Y-60646673D01*
X161139889Y-60760215D01*
X161014951Y-60932179D01*
X160918444Y-61121585D01*
X160852753Y-61323760D01*
X160819500Y-61533713D01*
X160819500Y-61746286D01*
X160852753Y-61956239D01*
X160918444Y-62158414D01*
X161014951Y-62347820D01*
X161139890Y-62519786D01*
X161290213Y-62670109D01*
X161462179Y-62795048D01*
X161462181Y-62795049D01*
X161462184Y-62795051D01*
X161651588Y-62891557D01*
X161853757Y-62957246D01*
X161853760Y-62957246D01*
X161853761Y-62957247D01*
X161914004Y-62966788D01*
X162055279Y-62989164D01*
X162118412Y-63019092D01*
X162155344Y-63078403D01*
X162154346Y-63148266D01*
X162115737Y-63206499D01*
X162060072Y-63233253D01*
X161892900Y-63266506D01*
X161892894Y-63266508D01*
X161720005Y-63338121D01*
X161697027Y-63353473D01*
X161697027Y-63353474D01*
X162040591Y-63697037D01*
X161977007Y-63714075D01*
X161862993Y-63779901D01*
X161769901Y-63872993D01*
X161704075Y-63987007D01*
X161687037Y-64050590D01*
X161343474Y-63707027D01*
X161343473Y-63707027D01*
X161328121Y-63730005D01*
X161256508Y-63902894D01*
X161256506Y-63902902D01*
X161220000Y-64086428D01*
X161220000Y-64273571D01*
X161256506Y-64457097D01*
X161256508Y-64457105D01*
X161328119Y-64629990D01*
X161328126Y-64630002D01*
X161343473Y-64652971D01*
X161343474Y-64652972D01*
X161687037Y-64309409D01*
X161704075Y-64372993D01*
X161769901Y-64487007D01*
X161862993Y-64580099D01*
X161977007Y-64645925D01*
X162040590Y-64662962D01*
X161697027Y-65006524D01*
X161697027Y-65006525D01*
X161720007Y-65021879D01*
X161892894Y-65093491D01*
X161892902Y-65093493D01*
X162060071Y-65126746D01*
X162121982Y-65159131D01*
X162156556Y-65219846D01*
X162152817Y-65289616D01*
X162111950Y-65346288D01*
X162055278Y-65370836D01*
X161853760Y-65402753D01*
X161651585Y-65468444D01*
X161462179Y-65564951D01*
X161290213Y-65689890D01*
X161139890Y-65840213D01*
X161014951Y-66012179D01*
X160918444Y-66201585D01*
X160852753Y-66403760D01*
X160819500Y-66613713D01*
X160819500Y-66826286D01*
X160852753Y-67036239D01*
X160918444Y-67238414D01*
X161014951Y-67427820D01*
X161139890Y-67599786D01*
X161290213Y-67750109D01*
X161462182Y-67875050D01*
X161470946Y-67879516D01*
X161521742Y-67927491D01*
X161538536Y-67995312D01*
X161515998Y-68061447D01*
X161470946Y-68100484D01*
X161462182Y-68104949D01*
X161290213Y-68229890D01*
X161139890Y-68380213D01*
X161014951Y-68552179D01*
X160918444Y-68741585D01*
X160852753Y-68943760D01*
X160819500Y-69153713D01*
X160819500Y-69366287D01*
X160824222Y-69396103D01*
X160815266Y-69465397D01*
X160770269Y-69518848D01*
X160703517Y-69539487D01*
X160701748Y-69539500D01*
X153799766Y-69539500D01*
X153732727Y-69519815D01*
X153730875Y-69518602D01*
X153599185Y-69430609D01*
X153599172Y-69430602D01*
X153453501Y-69370264D01*
X153453489Y-69370261D01*
X153298845Y-69339500D01*
X153298842Y-69339500D01*
X153141158Y-69339500D01*
X153141155Y-69339500D01*
X152986510Y-69370261D01*
X152986498Y-69370264D01*
X152840827Y-69430602D01*
X152840814Y-69430609D01*
X152709711Y-69518210D01*
X152709707Y-69518213D01*
X152598213Y-69629707D01*
X152598210Y-69629711D01*
X152510609Y-69760814D01*
X152510602Y-69760827D01*
X152450264Y-69906498D01*
X152450261Y-69906510D01*
X152419500Y-70061153D01*
X152419500Y-70218846D01*
X152450261Y-70373489D01*
X152450264Y-70373501D01*
X152510602Y-70519172D01*
X152510609Y-70519185D01*
X152598210Y-70650288D01*
X152598213Y-70650292D01*
X152709707Y-70761786D01*
X152709711Y-70761789D01*
X152840814Y-70849390D01*
X152840827Y-70849397D01*
X152986498Y-70909735D01*
X152986503Y-70909737D01*
X153120667Y-70936424D01*
X153141153Y-70940499D01*
X153141156Y-70940500D01*
X153141158Y-70940500D01*
X153298844Y-70940500D01*
X153298845Y-70940499D01*
X153453497Y-70909737D01*
X153599179Y-70849394D01*
X153608778Y-70842980D01*
X153730875Y-70761398D01*
X153797553Y-70740520D01*
X153799766Y-70740500D01*
X161027097Y-70740500D01*
X161094136Y-70760185D01*
X161139891Y-70812989D01*
X161149835Y-70882147D01*
X161127416Y-70937385D01*
X161014948Y-71092184D01*
X160918444Y-71281585D01*
X160852753Y-71483760D01*
X160819500Y-71693713D01*
X160819500Y-71906286D01*
X160852753Y-72116239D01*
X160918444Y-72318414D01*
X161014951Y-72507820D01*
X161139890Y-72679786D01*
X161290213Y-72830109D01*
X161462182Y-72955050D01*
X161470946Y-72959516D01*
X161521742Y-73007491D01*
X161538536Y-73075312D01*
X161515998Y-73141447D01*
X161470946Y-73180484D01*
X161462182Y-73184949D01*
X161290213Y-73309890D01*
X161139890Y-73460213D01*
X161014951Y-73632179D01*
X160918444Y-73821585D01*
X160852753Y-74023760D01*
X160846418Y-74063760D01*
X160819500Y-74233713D01*
X160819500Y-74446287D01*
X160825835Y-74486286D01*
X160838931Y-74568972D01*
X160852754Y-74656243D01*
X160867001Y-74700092D01*
X160918444Y-74858414D01*
X161014951Y-75047820D01*
X161139890Y-75219786D01*
X161290213Y-75370109D01*
X161462179Y-75495048D01*
X161462181Y-75495049D01*
X161462184Y-75495051D01*
X161651588Y-75591557D01*
X161853757Y-75657246D01*
X161853760Y-75657246D01*
X161853761Y-75657247D01*
X161914004Y-75666788D01*
X162055279Y-75689164D01*
X162118412Y-75719092D01*
X162155344Y-75778403D01*
X162154346Y-75848266D01*
X162115737Y-75906499D01*
X162060072Y-75933253D01*
X161892900Y-75966506D01*
X161892894Y-75966508D01*
X161720005Y-76038121D01*
X161697027Y-76053473D01*
X161697027Y-76053474D01*
X162040591Y-76397037D01*
X161977007Y-76414075D01*
X161862993Y-76479901D01*
X161769901Y-76572993D01*
X161704075Y-76687007D01*
X161687037Y-76750590D01*
X161343474Y-76407027D01*
X161343473Y-76407027D01*
X161328121Y-76430005D01*
X161256508Y-76602894D01*
X161256506Y-76602902D01*
X161220000Y-76786428D01*
X161220000Y-76973571D01*
X161256506Y-77157097D01*
X161256508Y-77157105D01*
X161328119Y-77329990D01*
X161328126Y-77330002D01*
X161343473Y-77352971D01*
X161343474Y-77352972D01*
X161687037Y-77009409D01*
X161704075Y-77072993D01*
X161769901Y-77187007D01*
X161862993Y-77280099D01*
X161977007Y-77345925D01*
X162040590Y-77362962D01*
X161697027Y-77706524D01*
X161697027Y-77706525D01*
X161720007Y-77721879D01*
X161892894Y-77793491D01*
X161892902Y-77793493D01*
X162060071Y-77826746D01*
X162121982Y-77859131D01*
X162156556Y-77919846D01*
X162152817Y-77989616D01*
X162111950Y-78046288D01*
X162055278Y-78070836D01*
X161853760Y-78102753D01*
X161651585Y-78168444D01*
X161462179Y-78264951D01*
X161290213Y-78389890D01*
X161139890Y-78540213D01*
X161014951Y-78712179D01*
X160918444Y-78901585D01*
X160852753Y-79103760D01*
X160819500Y-79313713D01*
X160819500Y-79526286D01*
X160836113Y-79631180D01*
X160852754Y-79736243D01*
X160861220Y-79762300D01*
X160918444Y-79938414D01*
X161014951Y-80127820D01*
X161139890Y-80299786D01*
X161290213Y-80450109D01*
X161462182Y-80575050D01*
X161470946Y-80579516D01*
X161521742Y-80627491D01*
X161538536Y-80695312D01*
X161515998Y-80761447D01*
X161470946Y-80800484D01*
X161462182Y-80804949D01*
X161290213Y-80929890D01*
X161139890Y-81080213D01*
X161014951Y-81252179D01*
X160918444Y-81441585D01*
X160852753Y-81643760D01*
X160836956Y-81743501D01*
X160819500Y-81853713D01*
X160819500Y-82066287D01*
X160852754Y-82276243D01*
X160853889Y-82279737D01*
X160918444Y-82478414D01*
X161014951Y-82667820D01*
X161139890Y-82839786D01*
X161290213Y-82990109D01*
X161462182Y-83115050D01*
X161470946Y-83119516D01*
X161521742Y-83167491D01*
X161538536Y-83235312D01*
X161515998Y-83301447D01*
X161470946Y-83340484D01*
X161462182Y-83344949D01*
X161290213Y-83469890D01*
X161139890Y-83620213D01*
X161014951Y-83792179D01*
X160918444Y-83981585D01*
X160852753Y-84183760D01*
X160832663Y-84310606D01*
X160819500Y-84393713D01*
X160819500Y-84606287D01*
X160827779Y-84658557D01*
X160852754Y-84816244D01*
X160852754Y-84816247D01*
X160866491Y-84858523D01*
X160868486Y-84928364D01*
X160836241Y-84984522D01*
X156737584Y-89083181D01*
X156676261Y-89116666D01*
X156649903Y-89119500D01*
X156239766Y-89119500D01*
X156172727Y-89099815D01*
X156170875Y-89098602D01*
X156039185Y-89010609D01*
X156039172Y-89010602D01*
X155893501Y-88950264D01*
X155893489Y-88950261D01*
X155738845Y-88919500D01*
X155738842Y-88919500D01*
X155581158Y-88919500D01*
X155581155Y-88919500D01*
X155426510Y-88950261D01*
X155426498Y-88950264D01*
X155280827Y-89010602D01*
X155280816Y-89010608D01*
X155241589Y-89036819D01*
X155174911Y-89057696D01*
X155107531Y-89039211D01*
X155060841Y-88987231D01*
X155058138Y-88981168D01*
X155052549Y-88967675D01*
X155052542Y-88967662D01*
X154964941Y-88836559D01*
X154964938Y-88836555D01*
X154853444Y-88725061D01*
X154853440Y-88725058D01*
X154722337Y-88637457D01*
X154722324Y-88637450D01*
X154576653Y-88577112D01*
X154576641Y-88577109D01*
X154421997Y-88546348D01*
X154421994Y-88546348D01*
X154311887Y-88546348D01*
X154279793Y-88542123D01*
X154195361Y-88519499D01*
X154037247Y-88519499D01*
X154029651Y-88519499D01*
X154029635Y-88519500D01*
X152560943Y-88519500D01*
X152408213Y-88560423D01*
X152379311Y-88577111D01*
X152379310Y-88577111D01*
X152271287Y-88639477D01*
X152271282Y-88639481D01*
X152183181Y-88727583D01*
X152121858Y-88761068D01*
X152052166Y-88756084D01*
X151996233Y-88714212D01*
X151971816Y-88648748D01*
X151971500Y-88639902D01*
X151971500Y-85670060D01*
X151971501Y-85670047D01*
X151971501Y-85501945D01*
X151971501Y-85501943D01*
X151930577Y-85349215D01*
X151895875Y-85289110D01*
X151895873Y-85289106D01*
X151895873Y-85289105D01*
X151851524Y-85212290D01*
X151851521Y-85212286D01*
X151851520Y-85212284D01*
X151739716Y-85100480D01*
X151739715Y-85100479D01*
X151735385Y-85096149D01*
X151735374Y-85096139D01*
X151644574Y-85005339D01*
X151611089Y-84944016D01*
X151610638Y-84941849D01*
X151592595Y-84851147D01*
X151579737Y-84786503D01*
X151579735Y-84786498D01*
X151519397Y-84640827D01*
X151519390Y-84640814D01*
X151431789Y-84509711D01*
X151431786Y-84509707D01*
X151320292Y-84398213D01*
X151320288Y-84398210D01*
X151189185Y-84310609D01*
X151189172Y-84310602D01*
X151043501Y-84250264D01*
X151043489Y-84250261D01*
X150888845Y-84219500D01*
X150888842Y-84219500D01*
X150731158Y-84219500D01*
X150731155Y-84219500D01*
X150576510Y-84250261D01*
X150576498Y-84250264D01*
X150430827Y-84310602D01*
X150430814Y-84310609D01*
X150299711Y-84398210D01*
X150299707Y-84398213D01*
X150188213Y-84509707D01*
X150188210Y-84509711D01*
X150100609Y-84640814D01*
X150100602Y-84640827D01*
X150040264Y-84786498D01*
X150040261Y-84786510D01*
X150009500Y-84941153D01*
X150009500Y-85098846D01*
X150040261Y-85253489D01*
X150040264Y-85253501D01*
X150100602Y-85399172D01*
X150100609Y-85399185D01*
X150188210Y-85530288D01*
X150188213Y-85530292D01*
X150299707Y-85641786D01*
X150299711Y-85641789D01*
X150430814Y-85729390D01*
X150430827Y-85729397D01*
X150528853Y-85770000D01*
X150576503Y-85789737D01*
X150670693Y-85808472D01*
X150732602Y-85840856D01*
X150767176Y-85901572D01*
X150770500Y-85930089D01*
X150770500Y-87651953D01*
X150750815Y-87718992D01*
X150698011Y-87764747D01*
X150670692Y-87773570D01*
X150536508Y-87800261D01*
X150536498Y-87800264D01*
X150390827Y-87860602D01*
X150390814Y-87860609D01*
X150259125Y-87948602D01*
X150192447Y-87969480D01*
X150190234Y-87969500D01*
X148820098Y-87969500D01*
X148753059Y-87949815D01*
X148732417Y-87933181D01*
X145823757Y-85024522D01*
X145790272Y-84963199D01*
X145793507Y-84898523D01*
X145807246Y-84856243D01*
X145840500Y-84646287D01*
X145840500Y-84433713D01*
X145807246Y-84223757D01*
X145741557Y-84021588D01*
X145645051Y-83832184D01*
X145645049Y-83832181D01*
X145645048Y-83832179D01*
X145520109Y-83660213D01*
X145369786Y-83509890D01*
X145197820Y-83384951D01*
X145197115Y-83384591D01*
X145189054Y-83380485D01*
X145138259Y-83332512D01*
X145121463Y-83264692D01*
X145143999Y-83198556D01*
X145189054Y-83159515D01*
X145197816Y-83155051D01*
X145252876Y-83115048D01*
X145369786Y-83030109D01*
X145369788Y-83030106D01*
X145369792Y-83030104D01*
X145520104Y-82879792D01*
X145520106Y-82879788D01*
X145520109Y-82879786D01*
X145645048Y-82707820D01*
X145645047Y-82707820D01*
X145645051Y-82707816D01*
X145741557Y-82518412D01*
X145807246Y-82316243D01*
X145840500Y-82106287D01*
X145840500Y-81893713D01*
X145807246Y-81683757D01*
X145741557Y-81481588D01*
X145645051Y-81292184D01*
X145645049Y-81292181D01*
X145645048Y-81292179D01*
X145520109Y-81120213D01*
X145369786Y-80969890D01*
X145197820Y-80844951D01*
X145197115Y-80844591D01*
X145189054Y-80840485D01*
X145138259Y-80792512D01*
X145121463Y-80724692D01*
X145143999Y-80658556D01*
X145189054Y-80619515D01*
X145197816Y-80615051D01*
X145327738Y-80520658D01*
X145369786Y-80490109D01*
X145369788Y-80490106D01*
X145369792Y-80490104D01*
X145520104Y-80339792D01*
X145520106Y-80339788D01*
X145520109Y-80339786D01*
X145645048Y-80167820D01*
X145645047Y-80167820D01*
X145645051Y-80167816D01*
X145741557Y-79978412D01*
X145807246Y-79776243D01*
X145840500Y-79566287D01*
X145840500Y-79353713D01*
X145807246Y-79143757D01*
X145741557Y-78941588D01*
X145645051Y-78752184D01*
X145645049Y-78752181D01*
X145645048Y-78752179D01*
X145520109Y-78580213D01*
X145369786Y-78429890D01*
X145197820Y-78304951D01*
X145008414Y-78208444D01*
X145008413Y-78208443D01*
X145008412Y-78208443D01*
X144806243Y-78142754D01*
X144806241Y-78142753D01*
X144806240Y-78142753D01*
X144655356Y-78118855D01*
X144604720Y-78110835D01*
X144541586Y-78080907D01*
X144504655Y-78021595D01*
X144505653Y-77951733D01*
X144544263Y-77893500D01*
X144599928Y-77866746D01*
X144767097Y-77833493D01*
X144767105Y-77833491D01*
X144939992Y-77761879D01*
X144939998Y-77761876D01*
X144962971Y-77746525D01*
X144962972Y-77746524D01*
X144619410Y-77402962D01*
X144682993Y-77385925D01*
X144797007Y-77320099D01*
X144890099Y-77227007D01*
X144955925Y-77112993D01*
X144972962Y-77049410D01*
X145316524Y-77392972D01*
X145316525Y-77392971D01*
X145331876Y-77369998D01*
X145331879Y-77369992D01*
X145403491Y-77197105D01*
X145403493Y-77197097D01*
X145439999Y-77013571D01*
X145440000Y-77013569D01*
X145440000Y-76826430D01*
X145439999Y-76826428D01*
X145403493Y-76642902D01*
X145403491Y-76642894D01*
X145331879Y-76470007D01*
X145316524Y-76447027D01*
X144972962Y-76790589D01*
X144955925Y-76727007D01*
X144890099Y-76612993D01*
X144797007Y-76519901D01*
X144682993Y-76454075D01*
X144619409Y-76437037D01*
X144962972Y-76093474D01*
X144962971Y-76093473D01*
X144940002Y-76078126D01*
X144939990Y-76078119D01*
X144767105Y-76006508D01*
X144767099Y-76006506D01*
X144599927Y-75973253D01*
X144538016Y-75940868D01*
X144503442Y-75880152D01*
X144507182Y-75810382D01*
X144548049Y-75753711D01*
X144604718Y-75729164D01*
X144772032Y-75702664D01*
X144806238Y-75697247D01*
X144806238Y-75697246D01*
X144806243Y-75697246D01*
X145008412Y-75631557D01*
X145197816Y-75535051D01*
X145303249Y-75458450D01*
X145369786Y-75410109D01*
X145369788Y-75410106D01*
X145369792Y-75410104D01*
X145520104Y-75259792D01*
X145520106Y-75259788D01*
X145520109Y-75259786D01*
X145645048Y-75087820D01*
X145645047Y-75087820D01*
X145645051Y-75087816D01*
X145741557Y-74898412D01*
X145807246Y-74696243D01*
X145840500Y-74486287D01*
X145840500Y-74273713D01*
X145807246Y-74063757D01*
X145741557Y-73861588D01*
X145645051Y-73672184D01*
X145645049Y-73672181D01*
X145645048Y-73672179D01*
X145520109Y-73500213D01*
X145369786Y-73349890D01*
X145197820Y-73224951D01*
X145197115Y-73224591D01*
X145189054Y-73220485D01*
X145138259Y-73172512D01*
X145121463Y-73104692D01*
X145143999Y-73038556D01*
X145189054Y-72999515D01*
X145197816Y-72995051D01*
X145252876Y-72955048D01*
X145369786Y-72870109D01*
X145369788Y-72870106D01*
X145369792Y-72870104D01*
X145520104Y-72719792D01*
X145520106Y-72719788D01*
X145520109Y-72719786D01*
X145645048Y-72547820D01*
X145645047Y-72547820D01*
X145645051Y-72547816D01*
X145741557Y-72358412D01*
X145807246Y-72156243D01*
X145840500Y-71946287D01*
X145840500Y-71799097D01*
X145860185Y-71732058D01*
X145912989Y-71686303D01*
X145982147Y-71676359D01*
X146045703Y-71705384D01*
X146052181Y-71711416D01*
X146856181Y-72515416D01*
X146889666Y-72576739D01*
X146892500Y-72603097D01*
X146892500Y-80930234D01*
X146872815Y-80997273D01*
X146871602Y-80999125D01*
X146783609Y-81130814D01*
X146783602Y-81130827D01*
X146723264Y-81276498D01*
X146723261Y-81276510D01*
X146692500Y-81431153D01*
X146692500Y-81588846D01*
X146723261Y-81743489D01*
X146723264Y-81743501D01*
X146783602Y-81889172D01*
X146783609Y-81889185D01*
X146871210Y-82020288D01*
X146871213Y-82020292D01*
X146982707Y-82131786D01*
X146982711Y-82131789D01*
X147113814Y-82219390D01*
X147113827Y-82219397D01*
X147258665Y-82279390D01*
X147259503Y-82279737D01*
X147279989Y-82283811D01*
X147301117Y-82288015D01*
X147363028Y-82320400D01*
X147397602Y-82381115D01*
X147393863Y-82450885D01*
X147364608Y-82497313D01*
X147272210Y-82589711D01*
X147184609Y-82720814D01*
X147184602Y-82720827D01*
X147124264Y-82866498D01*
X147124261Y-82866510D01*
X147093500Y-83021153D01*
X147093500Y-83178846D01*
X147124261Y-83333489D01*
X147124264Y-83333501D01*
X147184602Y-83479172D01*
X147184609Y-83479185D01*
X147272210Y-83610288D01*
X147272213Y-83610292D01*
X147383705Y-83721784D01*
X147383708Y-83721786D01*
X147383711Y-83721789D01*
X147439392Y-83758993D01*
X147484195Y-83812603D01*
X147494500Y-83862094D01*
X147494500Y-83921630D01*
X147525261Y-84076273D01*
X147525264Y-84076285D01*
X147585602Y-84221956D01*
X147585609Y-84221969D01*
X147673210Y-84353072D01*
X147673213Y-84353076D01*
X147784705Y-84464568D01*
X147784708Y-84464570D01*
X147784711Y-84464573D01*
X147840392Y-84501777D01*
X147885195Y-84555387D01*
X147895500Y-84604878D01*
X147895500Y-84658559D01*
X147926261Y-84813202D01*
X147926264Y-84813214D01*
X147986602Y-84958885D01*
X147986609Y-84958898D01*
X148074210Y-85090001D01*
X148074213Y-85090005D01*
X148185707Y-85201499D01*
X148185711Y-85201502D01*
X148316814Y-85289103D01*
X148316827Y-85289110D01*
X148462498Y-85349448D01*
X148462503Y-85349450D01*
X148615042Y-85379792D01*
X148617153Y-85380212D01*
X148617156Y-85380213D01*
X148617158Y-85380213D01*
X148774844Y-85380213D01*
X148774845Y-85380212D01*
X148929497Y-85349450D01*
X149075179Y-85289107D01*
X149206289Y-85201502D01*
X149317789Y-85090002D01*
X149405394Y-84958892D01*
X149465737Y-84813210D01*
X149496500Y-84658555D01*
X149496500Y-84500871D01*
X149496500Y-84500869D01*
X149495903Y-84494811D01*
X149496276Y-84494774D01*
X149494781Y-84478850D01*
X149494911Y-84464700D01*
X149496501Y-84458770D01*
X149496501Y-84300655D01*
X149496500Y-84300651D01*
X149496500Y-80062626D01*
X152869500Y-80062626D01*
X152869500Y-80220319D01*
X152900261Y-80374962D01*
X152900264Y-80374974D01*
X152960602Y-80520645D01*
X152960609Y-80520658D01*
X153048602Y-80652347D01*
X153069480Y-80719024D01*
X153069500Y-80721238D01*
X153069500Y-82666410D01*
X153049815Y-82733449D01*
X153048602Y-82735301D01*
X152960609Y-82866990D01*
X152960602Y-82867003D01*
X152900264Y-83012674D01*
X152900261Y-83012686D01*
X152869500Y-83167329D01*
X152869500Y-83325022D01*
X152900261Y-83479665D01*
X152900264Y-83479677D01*
X152960602Y-83625348D01*
X152960609Y-83625361D01*
X153048210Y-83756464D01*
X153048213Y-83756468D01*
X153159707Y-83867962D01*
X153159711Y-83867965D01*
X153290814Y-83955566D01*
X153290827Y-83955573D01*
X153353634Y-83981588D01*
X153436503Y-84015913D01*
X153591153Y-84046675D01*
X153591156Y-84046676D01*
X153591158Y-84046676D01*
X153748844Y-84046676D01*
X153748845Y-84046675D01*
X153903497Y-84015913D01*
X154049179Y-83955570D01*
X154180289Y-83867965D01*
X154291789Y-83756465D01*
X154379394Y-83625355D01*
X154385635Y-83610289D01*
X154393067Y-83592342D01*
X154439737Y-83479673D01*
X154470500Y-83325018D01*
X154470500Y-83167334D01*
X154470500Y-83167331D01*
X154470499Y-83167329D01*
X154460100Y-83115050D01*
X154439737Y-83012679D01*
X154430386Y-82990104D01*
X154379397Y-82867003D01*
X154379390Y-82866990D01*
X154291398Y-82735301D01*
X154270520Y-82668623D01*
X154270500Y-82666410D01*
X154270500Y-80721238D01*
X154290185Y-80654199D01*
X154291398Y-80652347D01*
X154313977Y-80618556D01*
X154379394Y-80520652D01*
X154439737Y-80374970D01*
X154470500Y-80220315D01*
X154470500Y-80062631D01*
X154470500Y-80062628D01*
X154470499Y-80062626D01*
X154461921Y-80019500D01*
X154439737Y-79907976D01*
X154385172Y-79776243D01*
X154379397Y-79762300D01*
X154379390Y-79762287D01*
X154291789Y-79631184D01*
X154291786Y-79631180D01*
X154180292Y-79519686D01*
X154180288Y-79519683D01*
X154049185Y-79432082D01*
X154049172Y-79432075D01*
X153903501Y-79371737D01*
X153903489Y-79371734D01*
X153748845Y-79340973D01*
X153748842Y-79340973D01*
X153591158Y-79340973D01*
X153591155Y-79340973D01*
X153436510Y-79371734D01*
X153436498Y-79371737D01*
X153290827Y-79432075D01*
X153290814Y-79432082D01*
X153159711Y-79519683D01*
X153159707Y-79519686D01*
X153048213Y-79631180D01*
X153048210Y-79631184D01*
X152960609Y-79762287D01*
X152960602Y-79762300D01*
X152900264Y-79907971D01*
X152900261Y-79907983D01*
X152869500Y-80062626D01*
X149496500Y-80062626D01*
X149496500Y-75000418D01*
X153520235Y-75000418D01*
X153520235Y-75158111D01*
X153550996Y-75312754D01*
X153550999Y-75312766D01*
X153611337Y-75458437D01*
X153611344Y-75458450D01*
X153698945Y-75589553D01*
X153698948Y-75589557D01*
X153810442Y-75701051D01*
X153810446Y-75701054D01*
X153941549Y-75788655D01*
X153941562Y-75788662D01*
X154065872Y-75840152D01*
X154087238Y-75849002D01*
X154151882Y-75861860D01*
X154242584Y-75879903D01*
X154304495Y-75912288D01*
X154306074Y-75913839D01*
X157173181Y-78780946D01*
X157206666Y-78842269D01*
X157209500Y-78868627D01*
X157209500Y-80990234D01*
X157189815Y-81057273D01*
X157188602Y-81059125D01*
X157100609Y-81190814D01*
X157100602Y-81190827D01*
X157040264Y-81336498D01*
X157040261Y-81336510D01*
X157009500Y-81491153D01*
X157009500Y-81648846D01*
X157040261Y-81803489D01*
X157040264Y-81803501D01*
X157100602Y-81949172D01*
X157100609Y-81949185D01*
X157188210Y-82080288D01*
X157188213Y-82080292D01*
X157299707Y-82191786D01*
X157299711Y-82191789D01*
X157430814Y-82279390D01*
X157430827Y-82279397D01*
X157576498Y-82339735D01*
X157576503Y-82339737D01*
X157731153Y-82370499D01*
X157731156Y-82370500D01*
X157731158Y-82370500D01*
X157888843Y-82370500D01*
X157904993Y-82367287D01*
X157951043Y-82358127D01*
X158020634Y-82364354D01*
X158075812Y-82407216D01*
X158099057Y-82473105D01*
X158099235Y-82479744D01*
X158099235Y-84161969D01*
X158079550Y-84229008D01*
X158078337Y-84230860D01*
X157990344Y-84362549D01*
X157990337Y-84362562D01*
X157929999Y-84508233D01*
X157929996Y-84508245D01*
X157899235Y-84662888D01*
X157899235Y-84820581D01*
X157929996Y-84975224D01*
X157929999Y-84975236D01*
X157990337Y-85120907D01*
X157990344Y-85120920D01*
X158077945Y-85252023D01*
X158077948Y-85252027D01*
X158189442Y-85363521D01*
X158189446Y-85363524D01*
X158320549Y-85451125D01*
X158320562Y-85451132D01*
X158466233Y-85511470D01*
X158466238Y-85511472D01*
X158620888Y-85542234D01*
X158620891Y-85542235D01*
X158620893Y-85542235D01*
X158778579Y-85542235D01*
X158778580Y-85542234D01*
X158933232Y-85511472D01*
X159078914Y-85451129D01*
X159210024Y-85363524D01*
X159321524Y-85252024D01*
X159409129Y-85120914D01*
X159469472Y-84975232D01*
X159500235Y-84820577D01*
X159500235Y-84662893D01*
X159500235Y-84662890D01*
X159500234Y-84662888D01*
X159499373Y-84658559D01*
X159469472Y-84508238D01*
X159466420Y-84500869D01*
X159409132Y-84362562D01*
X159409125Y-84362549D01*
X159321133Y-84230860D01*
X159300255Y-84164182D01*
X159300235Y-84161969D01*
X159300235Y-81481205D01*
X159319920Y-81414166D01*
X159336549Y-81393528D01*
X159399789Y-81330289D01*
X159487394Y-81199179D01*
X159490854Y-81190827D01*
X159515706Y-81130827D01*
X159547737Y-81053497D01*
X159578500Y-80898842D01*
X159578500Y-80741158D01*
X159578500Y-80741155D01*
X159578499Y-80741153D01*
X159577337Y-80735312D01*
X159547737Y-80586503D01*
X159544842Y-80579514D01*
X159487397Y-80440827D01*
X159487390Y-80440814D01*
X159399789Y-80309711D01*
X159399786Y-80309707D01*
X159288292Y-80198213D01*
X159288288Y-80198210D01*
X159157185Y-80110609D01*
X159157172Y-80110602D01*
X159011501Y-80050264D01*
X159011489Y-80050261D01*
X158856845Y-80019500D01*
X158856842Y-80019500D01*
X158699158Y-80019500D01*
X158699155Y-80019500D01*
X158558691Y-80047440D01*
X158489100Y-80041213D01*
X158433922Y-79998350D01*
X158410678Y-79932460D01*
X158410500Y-79925823D01*
X158410500Y-78657589D01*
X158410501Y-78657576D01*
X158410501Y-78489475D01*
X158410501Y-78489473D01*
X158369577Y-78336745D01*
X158328125Y-78264949D01*
X158328125Y-78264947D01*
X158290524Y-78199820D01*
X158290521Y-78199816D01*
X158290520Y-78199814D01*
X158178716Y-78088010D01*
X158178715Y-78088009D01*
X158174385Y-78083679D01*
X158174374Y-78083669D01*
X155155309Y-75064604D01*
X155121824Y-75003281D01*
X155121373Y-75001114D01*
X155090473Y-74845775D01*
X155090472Y-74845768D01*
X155090470Y-74845763D01*
X155030132Y-74700092D01*
X155030125Y-74700079D01*
X154942524Y-74568976D01*
X154942521Y-74568972D01*
X154831027Y-74457478D01*
X154831023Y-74457475D01*
X154699920Y-74369874D01*
X154699907Y-74369867D01*
X154554236Y-74309529D01*
X154554224Y-74309526D01*
X154399580Y-74278765D01*
X154399577Y-74278765D01*
X154241893Y-74278765D01*
X154241890Y-74278765D01*
X154087245Y-74309526D01*
X154087233Y-74309529D01*
X153941562Y-74369867D01*
X153941549Y-74369874D01*
X153810446Y-74457475D01*
X153810442Y-74457478D01*
X153698948Y-74568972D01*
X153698945Y-74568976D01*
X153611344Y-74700079D01*
X153611337Y-74700092D01*
X153550999Y-74845763D01*
X153550996Y-74845775D01*
X153520235Y-75000418D01*
X149496500Y-75000418D01*
X149496500Y-65439843D01*
X149455577Y-65287116D01*
X149455573Y-65287109D01*
X149376524Y-65150190D01*
X149376521Y-65150186D01*
X149376520Y-65150184D01*
X149264716Y-65038380D01*
X149264715Y-65038379D01*
X149260385Y-65034049D01*
X149260374Y-65034039D01*
X148795819Y-64569484D01*
X148762334Y-64508161D01*
X148759500Y-64481803D01*
X148759500Y-64133765D01*
X148775795Y-64150060D01*
X148844204Y-64189556D01*
X148920504Y-64210000D01*
X148999496Y-64210000D01*
X149075796Y-64189556D01*
X149144205Y-64150060D01*
X149200060Y-64094205D01*
X149210000Y-64076988D01*
X149210000Y-64458482D01*
X149328404Y-64390120D01*
X149328410Y-64390116D01*
X149440116Y-64278410D01*
X149440118Y-64278407D01*
X149519110Y-64141591D01*
X149559999Y-63988990D01*
X149560000Y-63988989D01*
X149560000Y-63610000D01*
X149260000Y-63610000D01*
X149260000Y-63110000D01*
X149560000Y-63110000D01*
X149560000Y-62754234D01*
X149814500Y-62754234D01*
X149814500Y-62905765D01*
X149853719Y-63052136D01*
X149887348Y-63110382D01*
X149929485Y-63183365D01*
X150036635Y-63290515D01*
X150167865Y-63366281D01*
X150314234Y-63405500D01*
X150314236Y-63405500D01*
X150465764Y-63405500D01*
X150465766Y-63405500D01*
X150612135Y-63366281D01*
X150743365Y-63290515D01*
X150850515Y-63183365D01*
X150926281Y-63052135D01*
X150965500Y-62905766D01*
X150965500Y-62754234D01*
X155594500Y-62754234D01*
X155594500Y-62905765D01*
X155633719Y-63052136D01*
X155667348Y-63110382D01*
X155709485Y-63183365D01*
X155816635Y-63290515D01*
X155947865Y-63366281D01*
X156094234Y-63405500D01*
X156094236Y-63405500D01*
X156245764Y-63405500D01*
X156245766Y-63405500D01*
X156392135Y-63366281D01*
X156523365Y-63290515D01*
X156630515Y-63183365D01*
X156706281Y-63052135D01*
X156745500Y-62905766D01*
X156745500Y-62754234D01*
X156739277Y-62731009D01*
X157000000Y-62731009D01*
X157000000Y-63110000D01*
X157300000Y-63110000D01*
X157300000Y-63610000D01*
X157000000Y-63610000D01*
X157000000Y-63988990D01*
X157040889Y-64141591D01*
X157119881Y-64278407D01*
X157119883Y-64278410D01*
X157231589Y-64390116D01*
X157231595Y-64390120D01*
X157349999Y-64458482D01*
X157350000Y-64458482D01*
X157350000Y-64076988D01*
X157359940Y-64094205D01*
X157415795Y-64150060D01*
X157484204Y-64189556D01*
X157560504Y-64210000D01*
X157639496Y-64210000D01*
X157715796Y-64189556D01*
X157784205Y-64150060D01*
X157840060Y-64094205D01*
X157850000Y-64076988D01*
X157850000Y-64458482D01*
X157968404Y-64390120D01*
X157968410Y-64390116D01*
X158080116Y-64278410D01*
X158080118Y-64278407D01*
X158159109Y-64141592D01*
X158184122Y-64048247D01*
X158184122Y-64048246D01*
X158199999Y-63988990D01*
X158200000Y-63988989D01*
X158200000Y-63610000D01*
X157900000Y-63610000D01*
X157900000Y-63110000D01*
X158200000Y-63110000D01*
X158200000Y-62731011D01*
X158199999Y-62731009D01*
X158159110Y-62578408D01*
X158080118Y-62441592D01*
X158080116Y-62441589D01*
X157968410Y-62329883D01*
X157968407Y-62329881D01*
X157850000Y-62261517D01*
X157850000Y-62643011D01*
X157840060Y-62625795D01*
X157784205Y-62569940D01*
X157715796Y-62530444D01*
X157639496Y-62510000D01*
X157560504Y-62510000D01*
X157484204Y-62530444D01*
X157415795Y-62569940D01*
X157359940Y-62625795D01*
X157350000Y-62643011D01*
X157350000Y-62261517D01*
X157231592Y-62329881D01*
X157231589Y-62329883D01*
X157119883Y-62441589D01*
X157119881Y-62441592D01*
X157040889Y-62578408D01*
X157000000Y-62731009D01*
X156739277Y-62731009D01*
X156706281Y-62607865D01*
X156630515Y-62476635D01*
X156523365Y-62369485D01*
X156438010Y-62320205D01*
X156392136Y-62293719D01*
X156318950Y-62274109D01*
X156245766Y-62254500D01*
X156094234Y-62254500D01*
X155947863Y-62293719D01*
X155816635Y-62369485D01*
X155816632Y-62369487D01*
X155709487Y-62476632D01*
X155709485Y-62476635D01*
X155633719Y-62607863D01*
X155594500Y-62754234D01*
X150965500Y-62754234D01*
X150926281Y-62607865D01*
X150850515Y-62476635D01*
X150743365Y-62369485D01*
X150658010Y-62320205D01*
X150612136Y-62293719D01*
X150538950Y-62274109D01*
X150465766Y-62254500D01*
X150314234Y-62254500D01*
X150167863Y-62293719D01*
X150036635Y-62369485D01*
X150036632Y-62369487D01*
X149929487Y-62476632D01*
X149929485Y-62476635D01*
X149853719Y-62607863D01*
X149814500Y-62754234D01*
X149560000Y-62754234D01*
X149560000Y-62731011D01*
X149559999Y-62731009D01*
X149519110Y-62578408D01*
X149440118Y-62441592D01*
X149440116Y-62441589D01*
X149328410Y-62329883D01*
X149328407Y-62329881D01*
X149210000Y-62261517D01*
X149210000Y-62643011D01*
X149200060Y-62625795D01*
X149144205Y-62569940D01*
X149075796Y-62530444D01*
X148999496Y-62510000D01*
X148920504Y-62510000D01*
X148844204Y-62530444D01*
X148775795Y-62569940D01*
X148729131Y-62616603D01*
X148718577Y-62577216D01*
X148718575Y-62577214D01*
X148716473Y-62569366D01*
X148717412Y-62569114D01*
X148710000Y-62531844D01*
X148710000Y-62261517D01*
X148709999Y-62261516D01*
X148634384Y-62305173D01*
X148566484Y-62321646D01*
X148500457Y-62298793D01*
X148484703Y-62285467D01*
X145876818Y-59677582D01*
X145862114Y-59650654D01*
X145845522Y-59624836D01*
X145844630Y-59618635D01*
X145843333Y-59616259D01*
X145840499Y-59589901D01*
X145840499Y-58244500D01*
X145860184Y-58177461D01*
X145912988Y-58131706D01*
X145964499Y-58120500D01*
X148612719Y-58120500D01*
X148679758Y-58140185D01*
G37*
%TD.AperFunction*%
%TA.AperFunction,Conductor*%
G36*
X143505703Y-76974800D02*
G01*
X143543477Y-77033578D01*
X143546117Y-77044322D01*
X143576506Y-77197097D01*
X143576508Y-77197105D01*
X143648119Y-77369990D01*
X143648126Y-77370002D01*
X143663473Y-77392971D01*
X143663474Y-77392972D01*
X144007037Y-77049409D01*
X144024075Y-77112993D01*
X144089901Y-77227007D01*
X144182993Y-77320099D01*
X144297007Y-77385925D01*
X144360590Y-77402962D01*
X144017027Y-77746524D01*
X144017027Y-77746525D01*
X144040007Y-77761879D01*
X144212894Y-77833491D01*
X144212902Y-77833493D01*
X144380071Y-77866746D01*
X144441982Y-77899131D01*
X144476556Y-77959846D01*
X144472817Y-78029616D01*
X144431950Y-78086288D01*
X144375278Y-78110836D01*
X144173760Y-78142753D01*
X143971585Y-78208444D01*
X143782179Y-78304951D01*
X143610213Y-78429890D01*
X143610209Y-78429894D01*
X143512181Y-78527923D01*
X143450858Y-78561408D01*
X143381166Y-78556424D01*
X143325233Y-78514552D01*
X143300816Y-78449088D01*
X143300500Y-78440242D01*
X143300500Y-77068513D01*
X143320185Y-77001474D01*
X143372989Y-76955719D01*
X143442147Y-76945775D01*
X143505703Y-76974800D01*
G37*
%TD.AperFunction*%
%TA.AperFunction,Conductor*%
G36*
X162996524Y-77352972D02*
G01*
X162996525Y-77352971D01*
X163011876Y-77329998D01*
X163011881Y-77329989D01*
X163060939Y-77211553D01*
X163104780Y-77157149D01*
X163171074Y-77135084D01*
X163238773Y-77152363D01*
X163286384Y-77203500D01*
X163299500Y-77259005D01*
X163299500Y-78340242D01*
X163279815Y-78407281D01*
X163227011Y-78453036D01*
X163157853Y-78462980D01*
X163094297Y-78433955D01*
X163087819Y-78427923D01*
X163049786Y-78389890D01*
X162877820Y-78264951D01*
X162688414Y-78168444D01*
X162688413Y-78168443D01*
X162688412Y-78168443D01*
X162486243Y-78102754D01*
X162486241Y-78102753D01*
X162486240Y-78102753D01*
X162335356Y-78078855D01*
X162284720Y-78070835D01*
X162221586Y-78040907D01*
X162184655Y-77981595D01*
X162185653Y-77911733D01*
X162224263Y-77853500D01*
X162279928Y-77826746D01*
X162447097Y-77793493D01*
X162447105Y-77793491D01*
X162619992Y-77721879D01*
X162619998Y-77721876D01*
X162642971Y-77706525D01*
X162642972Y-77706524D01*
X162299410Y-77362962D01*
X162362993Y-77345925D01*
X162477007Y-77280099D01*
X162570099Y-77187007D01*
X162635925Y-77072993D01*
X162652962Y-77009410D01*
X162996524Y-77352972D01*
G37*
%TD.AperFunction*%
%TA.AperFunction,Conductor*%
G36*
X143505703Y-75306045D02*
G01*
X143512181Y-75312077D01*
X143610213Y-75410109D01*
X143782179Y-75535048D01*
X143782181Y-75535049D01*
X143782184Y-75535051D01*
X143971588Y-75631557D01*
X144173757Y-75697246D01*
X144173760Y-75697246D01*
X144173761Y-75697247D01*
X144234004Y-75706788D01*
X144375279Y-75729164D01*
X144438412Y-75759092D01*
X144475344Y-75818403D01*
X144474346Y-75888266D01*
X144435737Y-75946499D01*
X144380072Y-75973253D01*
X144212900Y-76006506D01*
X144212894Y-76006508D01*
X144040005Y-76078121D01*
X144017027Y-76093473D01*
X144017027Y-76093474D01*
X144360591Y-76437037D01*
X144297007Y-76454075D01*
X144182993Y-76519901D01*
X144089901Y-76612993D01*
X144024075Y-76727007D01*
X144007037Y-76790590D01*
X143663474Y-76447027D01*
X143663473Y-76447027D01*
X143648121Y-76470005D01*
X143576508Y-76642894D01*
X143576506Y-76642902D01*
X143546117Y-76795677D01*
X143513732Y-76857588D01*
X143453016Y-76892162D01*
X143383247Y-76888423D01*
X143326575Y-76847556D01*
X143300994Y-76782538D01*
X143300500Y-76771486D01*
X143300500Y-75399758D01*
X143320185Y-75332719D01*
X143372989Y-75286964D01*
X143442147Y-75277020D01*
X143505703Y-75306045D01*
G37*
%TD.AperFunction*%
%TA.AperFunction,Conductor*%
G36*
X163218834Y-75303576D02*
G01*
X163274767Y-75345448D01*
X163299184Y-75410912D01*
X163299500Y-75419758D01*
X163299500Y-76500994D01*
X163279815Y-76568033D01*
X163227011Y-76613788D01*
X163157853Y-76623732D01*
X163094297Y-76594707D01*
X163060939Y-76548447D01*
X163011879Y-76430007D01*
X162996524Y-76407027D01*
X162652962Y-76750589D01*
X162635925Y-76687007D01*
X162570099Y-76572993D01*
X162477007Y-76479901D01*
X162362993Y-76414075D01*
X162299409Y-76397037D01*
X162642972Y-76053474D01*
X162642971Y-76053473D01*
X162620002Y-76038126D01*
X162619990Y-76038119D01*
X162447105Y-75966508D01*
X162447099Y-75966506D01*
X162279927Y-75933253D01*
X162218016Y-75900868D01*
X162183442Y-75840152D01*
X162187182Y-75770382D01*
X162228049Y-75713711D01*
X162284718Y-75689164D01*
X162452032Y-75662664D01*
X162486238Y-75657247D01*
X162486238Y-75657246D01*
X162486243Y-75657246D01*
X162688412Y-75591557D01*
X162877816Y-75495051D01*
X162981449Y-75419758D01*
X163049786Y-75370109D01*
X163049788Y-75370106D01*
X163049792Y-75370104D01*
X163087819Y-75332077D01*
X163149142Y-75298592D01*
X163218834Y-75303576D01*
G37*
%TD.AperFunction*%
%TA.AperFunction,Conductor*%
G36*
X144974522Y-63013757D02*
G01*
X147858181Y-65897416D01*
X147891666Y-65958739D01*
X147894500Y-65985097D01*
X147894500Y-69015902D01*
X147874815Y-69082941D01*
X147822011Y-69128696D01*
X147752853Y-69138640D01*
X147689297Y-69109615D01*
X147682819Y-69103583D01*
X145823757Y-67244522D01*
X145790272Y-67183199D01*
X145793507Y-67118523D01*
X145807246Y-67076243D01*
X145840500Y-66866287D01*
X145840500Y-66653713D01*
X145807246Y-66443757D01*
X145741557Y-66241588D01*
X145645051Y-66052184D01*
X145645049Y-66052181D01*
X145645048Y-66052179D01*
X145520109Y-65880213D01*
X145369786Y-65729890D01*
X145197820Y-65604951D01*
X145008414Y-65508444D01*
X145008413Y-65508443D01*
X145008412Y-65508443D01*
X144806243Y-65442754D01*
X144806241Y-65442753D01*
X144806240Y-65442753D01*
X144655356Y-65418855D01*
X144604720Y-65410835D01*
X144541586Y-65380907D01*
X144504655Y-65321595D01*
X144505653Y-65251733D01*
X144544263Y-65193500D01*
X144599928Y-65166746D01*
X144767097Y-65133493D01*
X144767105Y-65133491D01*
X144939992Y-65061879D01*
X144939998Y-65061876D01*
X144962971Y-65046525D01*
X144962972Y-65046524D01*
X144619410Y-64702962D01*
X144682993Y-64685925D01*
X144797007Y-64620099D01*
X144890099Y-64527007D01*
X144955925Y-64412993D01*
X144972962Y-64349410D01*
X145316524Y-64692972D01*
X145316525Y-64692971D01*
X145331876Y-64669998D01*
X145331879Y-64669992D01*
X145403491Y-64497105D01*
X145403493Y-64497097D01*
X145439999Y-64313571D01*
X145440000Y-64313569D01*
X145440000Y-64126430D01*
X145439999Y-64126428D01*
X145403493Y-63942902D01*
X145403491Y-63942894D01*
X145331879Y-63770007D01*
X145316524Y-63747027D01*
X144972962Y-64090589D01*
X144955925Y-64027007D01*
X144890099Y-63912993D01*
X144797007Y-63819901D01*
X144682993Y-63754075D01*
X144619409Y-63737037D01*
X144962972Y-63393474D01*
X144962971Y-63393473D01*
X144940002Y-63378126D01*
X144939990Y-63378119D01*
X144767105Y-63306508D01*
X144767099Y-63306506D01*
X144599927Y-63273253D01*
X144538016Y-63240868D01*
X144503442Y-63180152D01*
X144507182Y-63110382D01*
X144548049Y-63053711D01*
X144604718Y-63029164D01*
X144772032Y-63002664D01*
X144806238Y-62997247D01*
X144806238Y-62997246D01*
X144806243Y-62997246D01*
X144848523Y-62983507D01*
X144918362Y-62981511D01*
X144974522Y-63013757D01*
G37*
%TD.AperFunction*%
%TA.AperFunction,Conductor*%
G36*
X143505703Y-64274800D02*
G01*
X143543477Y-64333578D01*
X143546117Y-64344322D01*
X143576506Y-64497097D01*
X143576508Y-64497105D01*
X143648119Y-64669990D01*
X143648126Y-64670002D01*
X143663473Y-64692971D01*
X143663474Y-64692972D01*
X144007037Y-64349409D01*
X144024075Y-64412993D01*
X144089901Y-64527007D01*
X144182993Y-64620099D01*
X144297007Y-64685925D01*
X144360590Y-64702962D01*
X144017027Y-65046524D01*
X144017027Y-65046525D01*
X144040007Y-65061879D01*
X144212894Y-65133491D01*
X144212902Y-65133493D01*
X144380071Y-65166746D01*
X144441982Y-65199131D01*
X144476556Y-65259846D01*
X144472817Y-65329616D01*
X144431950Y-65386288D01*
X144375278Y-65410836D01*
X144173760Y-65442753D01*
X143971585Y-65508444D01*
X143782179Y-65604951D01*
X143610213Y-65729890D01*
X143610209Y-65729894D01*
X143512181Y-65827923D01*
X143450858Y-65861408D01*
X143381166Y-65856424D01*
X143325233Y-65814552D01*
X143300816Y-65749088D01*
X143300500Y-65740242D01*
X143300500Y-64368513D01*
X143320185Y-64301474D01*
X143372989Y-64255719D01*
X143442147Y-64245775D01*
X143505703Y-64274800D01*
G37*
%TD.AperFunction*%
%TA.AperFunction,Conductor*%
G36*
X162996524Y-64652972D02*
G01*
X162996525Y-64652971D01*
X163011876Y-64629998D01*
X163011881Y-64629989D01*
X163060939Y-64511553D01*
X163104780Y-64457149D01*
X163171074Y-64435084D01*
X163238773Y-64452363D01*
X163286384Y-64503500D01*
X163299500Y-64559005D01*
X163299500Y-65640242D01*
X163279815Y-65707281D01*
X163227011Y-65753036D01*
X163157853Y-65762980D01*
X163094297Y-65733955D01*
X163087819Y-65727923D01*
X163049786Y-65689890D01*
X162877820Y-65564951D01*
X162688414Y-65468444D01*
X162688413Y-65468443D01*
X162688412Y-65468443D01*
X162486243Y-65402754D01*
X162486241Y-65402753D01*
X162486240Y-65402753D01*
X162335356Y-65378855D01*
X162284720Y-65370835D01*
X162221586Y-65340907D01*
X162184655Y-65281595D01*
X162185653Y-65211733D01*
X162224263Y-65153500D01*
X162279928Y-65126746D01*
X162447097Y-65093493D01*
X162447105Y-65093491D01*
X162619992Y-65021879D01*
X162619998Y-65021876D01*
X162642971Y-65006525D01*
X162642972Y-65006524D01*
X162299410Y-64662962D01*
X162362993Y-64645925D01*
X162477007Y-64580099D01*
X162570099Y-64487007D01*
X162635925Y-64372993D01*
X162652962Y-64309410D01*
X162996524Y-64652972D01*
G37*
%TD.AperFunction*%
%TA.AperFunction,Conductor*%
G36*
X143505703Y-62606045D02*
G01*
X143512181Y-62612077D01*
X143610213Y-62710109D01*
X143782179Y-62835048D01*
X143782181Y-62835049D01*
X143782184Y-62835051D01*
X143971588Y-62931557D01*
X144173757Y-62997246D01*
X144173760Y-62997246D01*
X144173761Y-62997247D01*
X144234004Y-63006788D01*
X144375279Y-63029164D01*
X144438412Y-63059092D01*
X144475344Y-63118403D01*
X144474346Y-63188266D01*
X144435737Y-63246499D01*
X144380072Y-63273253D01*
X144212900Y-63306506D01*
X144212894Y-63306508D01*
X144040005Y-63378121D01*
X144017027Y-63393473D01*
X144017027Y-63393474D01*
X144360591Y-63737037D01*
X144297007Y-63754075D01*
X144182993Y-63819901D01*
X144089901Y-63912993D01*
X144024075Y-64027007D01*
X144007037Y-64090590D01*
X143663474Y-63747027D01*
X143663473Y-63747027D01*
X143648121Y-63770005D01*
X143576508Y-63942894D01*
X143576506Y-63942902D01*
X143546117Y-64095677D01*
X143513732Y-64157588D01*
X143453016Y-64192162D01*
X143383247Y-64188423D01*
X143326575Y-64147556D01*
X143300994Y-64082538D01*
X143300500Y-64071486D01*
X143300500Y-62699758D01*
X143320185Y-62632719D01*
X143372989Y-62586964D01*
X143442147Y-62577020D01*
X143505703Y-62606045D01*
G37*
%TD.AperFunction*%
%TA.AperFunction,Conductor*%
G36*
X163218834Y-62603576D02*
G01*
X163274767Y-62645448D01*
X163299184Y-62710912D01*
X163299500Y-62719758D01*
X163299500Y-63800994D01*
X163279815Y-63868033D01*
X163227011Y-63913788D01*
X163157853Y-63923732D01*
X163094297Y-63894707D01*
X163060939Y-63848447D01*
X163011879Y-63730007D01*
X162996524Y-63707027D01*
X162652962Y-64050589D01*
X162635925Y-63987007D01*
X162570099Y-63872993D01*
X162477007Y-63779901D01*
X162362993Y-63714075D01*
X162299409Y-63697037D01*
X162642972Y-63353474D01*
X162642971Y-63353473D01*
X162620002Y-63338126D01*
X162619990Y-63338119D01*
X162447105Y-63266508D01*
X162447099Y-63266506D01*
X162279927Y-63233253D01*
X162218016Y-63200868D01*
X162183442Y-63140152D01*
X162187182Y-63070382D01*
X162228049Y-63013711D01*
X162284718Y-62989164D01*
X162452032Y-62962664D01*
X162486238Y-62957247D01*
X162486238Y-62957246D01*
X162486243Y-62957246D01*
X162688412Y-62891557D01*
X162877816Y-62795051D01*
X162911602Y-62770504D01*
X163049786Y-62670109D01*
X163049788Y-62670106D01*
X163049792Y-62670104D01*
X163087819Y-62632077D01*
X163149142Y-62598592D01*
X163218834Y-62603576D01*
G37*
%TD.AperFunction*%
%TD*%
M02*
