M48
; DRILL file {KiCad 9.0.5} date 2025-12-04T18:44:19-0800
; FORMAT={-:-/ absolute / metric / decimal}
; #@! TF.CreationDate,2025-12-04T18:44:19-08:00
; #@! TF.GenerationSoftware,Kicad,Pcbnew,9.0.5
; #@! TF.FileFunction,Plated,1,2,PTH
FMAT,2
METRIC
; #@! TA.AperFunction,Plated,PTH,ViaDrill
T1C0.300
; #@! TA.AperFunction,Plated,PTH,ComponentDrill
T2C0.600
; #@! TA.AperFunction,Plated,PTH,ComponentDrill
T3C1.000
%
G90
G05
T1
X146.78Y-88.42
X147.493Y-81.51
X147.894Y-83.1
X148.295Y-83.843
X148.696Y-84.58
X150.14Y-97.61
X150.77Y-88.57
X150.81Y-85.02
X151.34Y-95.071
X151.609Y-89.429
X152.19Y-96.238
X152.47Y-91.8
X152.91Y-68.16
X152.98Y-89.721
X153.22Y-70.14
X153.67Y-80.141
X153.67Y-83.246
X154.321Y-75.079
X154.343Y-89.347
X154.97Y-94.13
X155.18Y-68.17
X155.66Y-89.72
X155.97Y-94.76
X156.63Y-93.39
X156.772Y-80.397
X156.79Y-81.16
X157.81Y-81.57
X158.7Y-84.742
X158.768Y-58.988
X158.778Y-80.82
T3
X144.49Y-59.14
X144.49Y-61.68
X144.49Y-64.22
X144.49Y-66.76
X144.49Y-69.3
X144.49Y-71.84
X144.49Y-74.38
X144.49Y-76.92
X144.49Y-79.46
X144.49Y-82.0
X144.49Y-84.54
X144.49Y-87.08
X144.49Y-89.62
X144.49Y-92.16
X144.49Y-94.7
X144.49Y-97.24
X144.49Y-99.78
X144.49Y-102.32
X144.49Y-104.86
X144.49Y-107.4
X150.74Y-107.12
X153.28Y-107.12
X155.82Y-107.12
X162.17Y-59.1
X162.17Y-61.64
X162.17Y-64.18
X162.17Y-66.72
X162.17Y-69.26
X162.17Y-71.8
X162.17Y-74.34
X162.17Y-76.88
X162.17Y-79.42
X162.17Y-81.96
X162.17Y-84.5
X162.17Y-87.04
X162.17Y-89.58
X162.17Y-92.12
X162.17Y-94.66
X162.17Y-97.2
X162.17Y-99.74
X162.17Y-102.28
X162.17Y-104.82
X162.17Y-107.36
T2
G00X148.96Y-59.48
M15
G01X148.96Y-58.88
M16
G05
G00X148.96Y-63.91
M15
G01X148.96Y-62.81
M16
G05
G00X157.6Y-59.48
M15
G01X157.6Y-58.88
M16
G05
G00X157.6Y-63.91
M15
G01X157.6Y-62.81
M16
G05
M30
