%TF.GenerationSoftware,KiCad,Pcbnew,9.0.5*%
%TF.CreationDate,2025-12-04T18:44:12-08:00*%
%TF.ProjectId,devboard,64657662-6f61-4726-942e-6b696361645f,rev?*%
%TF.SameCoordinates,Original*%
%TF.FileFunction,Soldermask,Top*%
%TF.FilePolarity,Negative*%
%FSLAX46Y46*%
G04 Gerber Fmt 4.6, Leading zero omitted, Abs format (unit mm)*
G04 Created by KiCad (PCBNEW 9.0.5) date 2025-12-04 18:44:12*
%MOMM*%
%LPD*%
G01*
G04 APERTURE LIST*
G04 Aperture macros list*
%AMRoundRect*
0 Rectangle with rounded corners*
0 $1 Rounding radius*
0 $2 $3 $4 $5 $6 $7 $8 $9 X,Y pos of 4 corners*
0 Add a 4 corners polygon primitive as box body*
4,1,4,$2,$3,$4,$5,$6,$7,$8,$9,$2,$3,0*
0 Add four circle primitives for the rounded corners*
1,1,$1+$1,$2,$3*
1,1,$1+$1,$4,$5*
1,1,$1+$1,$6,$7*
1,1,$1+$1,$8,$9*
0 Add four rect primitives between the rounded corners*
20,1,$1+$1,$2,$3,$4,$5,0*
20,1,$1+$1,$4,$5,$6,$7,0*
20,1,$1+$1,$6,$7,$8,$9,0*
20,1,$1+$1,$8,$9,$2,$3,0*%
G04 Aperture macros list end*
%ADD10RoundRect,0.135000X0.135000X0.185000X-0.135000X0.185000X-0.135000X-0.185000X0.135000X-0.185000X0*%
%ADD11RoundRect,0.135000X-0.185000X0.135000X-0.185000X-0.135000X0.185000X-0.135000X0.185000X0.135000X0*%
%ADD12RoundRect,0.250000X-0.450000X-0.350000X0.450000X-0.350000X0.450000X0.350000X-0.450000X0.350000X0*%
%ADD13RoundRect,0.140000X0.170000X-0.140000X0.170000X0.140000X-0.170000X0.140000X-0.170000X-0.140000X0*%
%ADD14R,1.700000X1.700000*%
%ADD15C,1.700000*%
%ADD16RoundRect,0.140000X0.140000X0.170000X-0.140000X0.170000X-0.140000X-0.170000X0.140000X-0.170000X0*%
%ADD17RoundRect,0.150000X0.150000X-0.587500X0.150000X0.587500X-0.150000X0.587500X-0.150000X-0.587500X0*%
%ADD18RoundRect,0.140000X-0.170000X0.140000X-0.170000X-0.140000X0.170000X-0.140000X0.170000X0.140000X0*%
%ADD19RoundRect,0.135000X-0.135000X-0.185000X0.135000X-0.185000X0.135000X0.185000X-0.135000X0.185000X0*%
%ADD20RoundRect,0.225000X0.225000X0.250000X-0.225000X0.250000X-0.225000X-0.250000X0.225000X-0.250000X0*%
%ADD21RoundRect,0.225000X-0.225000X-0.250000X0.225000X-0.250000X0.225000X0.250000X-0.225000X0.250000X0*%
%ADD22RoundRect,0.062500X-0.387500X-0.062500X0.387500X-0.062500X0.387500X0.062500X-0.387500X0.062500X0*%
%ADD23R,0.200000X1.600000*%
%ADD24RoundRect,0.135000X0.185000X-0.135000X0.185000X0.135000X-0.185000X0.135000X-0.185000X-0.135000X0*%
%ADD25RoundRect,0.140000X-0.140000X-0.170000X0.140000X-0.170000X0.140000X0.170000X-0.140000X0.170000X0*%
%ADD26RoundRect,0.140000X0.219203X0.021213X0.021213X0.219203X-0.219203X-0.021213X-0.021213X-0.219203X0*%
%ADD27RoundRect,0.140000X0.021213X-0.219203X0.219203X-0.021213X-0.021213X0.219203X-0.219203X0.021213X0*%
%ADD28C,0.650000*%
%ADD29R,0.600000X1.450000*%
%ADD30R,0.300000X1.450000*%
%ADD31O,1.000000X2.100000*%
%ADD32O,1.000000X1.600000*%
%ADD33RoundRect,0.200000X-0.200000X-0.800000X0.200000X-0.800000X0.200000X0.800000X-0.200000X0.800000X0*%
%ADD34RoundRect,0.050000X-0.387500X-0.050000X0.387500X-0.050000X0.387500X0.050000X-0.387500X0.050000X0*%
%ADD35RoundRect,0.050000X-0.050000X-0.387500X0.050000X-0.387500X0.050000X0.387500X-0.050000X0.387500X0*%
%ADD36R,3.200000X3.200000*%
G04 APERTURE END LIST*
D10*
%TO.C,R6*%
X149549999Y-77550000D03*
X148530001Y-77550000D03*
%TD*%
D11*
%TO.C,R1*%
X154880000Y-66000001D03*
X154880000Y-67019999D03*
%TD*%
D12*
%TO.C,Crystal24*%
X150990000Y-96270000D03*
X153190000Y-96270000D03*
X153190000Y-94570000D03*
X150990000Y-94570000D03*
%TD*%
D13*
%TO.C,C4*%
X154460000Y-79270000D03*
X154460000Y-78310000D03*
%TD*%
%TO.C,C6*%
X156790000Y-82900000D03*
X156790000Y-81940000D03*
%TD*%
D14*
%TO.C,J2*%
X144490000Y-59140000D03*
D15*
X144490000Y-61680000D03*
X144490000Y-64220000D03*
X144490000Y-66760000D03*
X144490000Y-69300000D03*
X144490000Y-71840000D03*
X144490000Y-74380000D03*
X144490000Y-76920000D03*
X144490000Y-79460000D03*
X144490000Y-82000000D03*
X144490000Y-84540000D03*
X144490000Y-87080000D03*
X144490000Y-89620000D03*
X144490000Y-92160000D03*
X144490000Y-94700000D03*
X144490000Y-97240000D03*
X144490000Y-99780000D03*
X144490000Y-102320000D03*
X144490000Y-104860000D03*
X144490000Y-107400000D03*
%TD*%
D16*
%TO.C,C17*%
X151400000Y-77520000D03*
X150440000Y-77520000D03*
%TD*%
D17*
%TO.C,U2*%
X149870000Y-70185000D03*
X151770000Y-70185000D03*
X150820000Y-68310000D03*
%TD*%
D14*
%TO.C,J4*%
X150740000Y-107120000D03*
D15*
X153280000Y-107120000D03*
X155820000Y-107120000D03*
%TD*%
D18*
%TO.C,C16*%
X149520000Y-94600000D03*
X149520000Y-95560000D03*
%TD*%
D19*
%TO.C,R5*%
X152810000Y-93110000D03*
X153830000Y-93110000D03*
%TD*%
D20*
%TO.C,C13*%
X151080000Y-66240000D03*
X149530000Y-66240000D03*
%TD*%
D14*
%TO.C,J3*%
X162170000Y-59100000D03*
D15*
X162170000Y-61640000D03*
X162170000Y-64180000D03*
X162170000Y-66720000D03*
X162170000Y-69260000D03*
X162170000Y-71800000D03*
X162170000Y-74340000D03*
X162170000Y-76880000D03*
X162170000Y-79420000D03*
X162170000Y-81960000D03*
X162170000Y-84500000D03*
X162170000Y-87040000D03*
X162170000Y-89580000D03*
X162170000Y-92120000D03*
X162170000Y-94660000D03*
X162170000Y-97200000D03*
X162170000Y-99740000D03*
X162170000Y-102280000D03*
X162170000Y-104820000D03*
X162170000Y-107360000D03*
%TD*%
D11*
%TO.C,R3*%
X154880000Y-81440000D03*
X154880000Y-82459998D03*
%TD*%
D16*
%TO.C,C2*%
X148520000Y-88510000D03*
X147560000Y-88510000D03*
%TD*%
D21*
%TO.C,C14*%
X150115000Y-72090000D03*
X151665000Y-72090000D03*
%TD*%
D22*
%TO.C,U3*%
X148635000Y-78567500D03*
X148635000Y-79067500D03*
X148635000Y-79567500D03*
X148635000Y-80067500D03*
X151485000Y-80067500D03*
X151485000Y-79567500D03*
X151485000Y-79067500D03*
X151485000Y-78567500D03*
D23*
X150060000Y-79317500D03*
%TD*%
D24*
%TO.C,R2*%
X152430000Y-67309999D03*
X152430000Y-66290001D03*
%TD*%
D18*
%TO.C,C3*%
X154900000Y-92390000D03*
X154900000Y-93350000D03*
%TD*%
D13*
%TO.C,C10*%
X153510000Y-79280000D03*
X153510000Y-78320000D03*
%TD*%
D25*
%TO.C,C8*%
X158960000Y-88240000D03*
X159920000Y-88240000D03*
%TD*%
D26*
%TO.C,C1*%
X149039411Y-83079411D03*
X148360589Y-82400589D03*
%TD*%
D27*
%TO.C,C9*%
X157970589Y-82599411D03*
X158649411Y-81920589D03*
%TD*%
D13*
%TO.C,C5*%
X155350000Y-77380000D03*
X155350000Y-76420000D03*
%TD*%
D24*
%TO.C,R7*%
X156350000Y-98429999D03*
X156350000Y-97410001D03*
%TD*%
D13*
%TO.C,C15*%
X154720000Y-95910000D03*
X154720000Y-94950000D03*
%TD*%
D25*
%TO.C,C7*%
X157680000Y-83710000D03*
X158640000Y-83710000D03*
%TD*%
D28*
%TO.C,J1*%
X156170000Y-62830000D03*
X150390000Y-62830000D03*
D29*
X156530000Y-64275000D03*
X155730000Y-64275000D03*
D30*
X154530000Y-64275000D03*
X153530000Y-64275000D03*
X153030000Y-64275000D03*
X152030000Y-64275000D03*
D29*
X150830000Y-64275000D03*
X150030000Y-64275000D03*
X150030000Y-64275000D03*
X150830000Y-64275000D03*
D30*
X151530000Y-64275000D03*
X152530000Y-64275000D03*
X154030000Y-64275000D03*
X155030000Y-64275000D03*
D29*
X155730000Y-64275000D03*
X156530000Y-64275000D03*
D31*
X157600000Y-63360000D03*
D32*
X157600000Y-59180000D03*
D31*
X148960000Y-63360000D03*
D32*
X148960000Y-59180000D03*
%TD*%
D33*
%TO.C,SW1*%
X151180000Y-100560000D03*
X155380000Y-100560000D03*
%TD*%
D34*
%TO.C,U1*%
X149832500Y-84620000D03*
X149832500Y-85020000D03*
X149832500Y-85420000D03*
X149832500Y-85820000D03*
X149832500Y-86220000D03*
X149832500Y-86620000D03*
X149832500Y-87020000D03*
X149832500Y-87420000D03*
X149832500Y-87820000D03*
X149832500Y-88220000D03*
X149832500Y-88620000D03*
X149832500Y-89020000D03*
X149832500Y-89420000D03*
X149832500Y-89820000D03*
D35*
X150670000Y-90657500D03*
X151070000Y-90657500D03*
X151470000Y-90657500D03*
X151870000Y-90657500D03*
X152270000Y-90657500D03*
X152670000Y-90657500D03*
X153070000Y-90657500D03*
X153470000Y-90657500D03*
X153870000Y-90657500D03*
X154270000Y-90657500D03*
X154670000Y-90657500D03*
X155070000Y-90657500D03*
X155470000Y-90657500D03*
X155870000Y-90657500D03*
D34*
X156707500Y-89820000D03*
X156707500Y-89420000D03*
X156707500Y-89020000D03*
X156707500Y-88620000D03*
X156707500Y-88220000D03*
X156707500Y-87820000D03*
X156707500Y-87420000D03*
X156707500Y-87020000D03*
X156707500Y-86620000D03*
X156707500Y-86220000D03*
X156707500Y-85820000D03*
X156707500Y-85420000D03*
X156707500Y-85020000D03*
X156707500Y-84620000D03*
D35*
X155870000Y-83782500D03*
X155470000Y-83782500D03*
X155070000Y-83782500D03*
X154670000Y-83782500D03*
X154270000Y-83782500D03*
X153870000Y-83782500D03*
X153470000Y-83782500D03*
X153070000Y-83782500D03*
X152670000Y-83782500D03*
X152270000Y-83782500D03*
X151870000Y-83782500D03*
X151470000Y-83782500D03*
X151070000Y-83782500D03*
X150670000Y-83782500D03*
D36*
X153270000Y-87220000D03*
%TD*%
D11*
%TO.C,R4*%
X153930000Y-81460000D03*
X153930000Y-82479998D03*
%TD*%
D18*
%TO.C,C11*%
X155820000Y-92420000D03*
X155820000Y-93380000D03*
%TD*%
D13*
%TO.C,C12*%
X155830000Y-82580000D03*
X155830000Y-81620000D03*
%TD*%
M02*
