%TF.GenerationSoftware,KiCad,Pcbnew,9.0.5*%
%TF.CreationDate,2025-12-04T18:44:12-08:00*%
%TF.ProjectId,devboard,64657662-6f61-4726-942e-6b696361645f,rev?*%
%TF.SameCoordinates,Original*%
%TF.FileFunction,Soldermask,Bot*%
%TF.FilePolarity,Negative*%
%FSLAX46Y46*%
G04 Gerber Fmt 4.6, Leading zero omitted, Abs format (unit mm)*
G04 Created by KiCad (PCBNEW 9.0.5) date 2025-12-04 18:44:12*
%MOMM*%
%LPD*%
G01*
G04 APERTURE LIST*
%ADD10R,1.700000X1.700000*%
%ADD11C,1.700000*%
%ADD12C,0.650000*%
%ADD13O,1.000000X2.100000*%
%ADD14O,1.000000X1.600000*%
G04 APERTURE END LIST*
D10*
%TO.C,J2*%
X144490000Y-59140000D03*
D11*
X144490000Y-61680000D03*
X144490000Y-64220000D03*
X144490000Y-66760000D03*
X144490000Y-69300000D03*
X144490000Y-71840000D03*
X144490000Y-74380000D03*
X144490000Y-76920000D03*
X144490000Y-79460000D03*
X144490000Y-82000000D03*
X144490000Y-84540000D03*
X144490000Y-87080000D03*
X144490000Y-89620000D03*
X144490000Y-92160000D03*
X144490000Y-94700000D03*
X144490000Y-97240000D03*
X144490000Y-99780000D03*
X144490000Y-102320000D03*
X144490000Y-104860000D03*
X144490000Y-107400000D03*
%TD*%
D10*
%TO.C,J4*%
X150740000Y-107120000D03*
D11*
X153280000Y-107120000D03*
X155820000Y-107120000D03*
%TD*%
D10*
%TO.C,J3*%
X162170000Y-59100000D03*
D11*
X162170000Y-61640000D03*
X162170000Y-64180000D03*
X162170000Y-66720000D03*
X162170000Y-69260000D03*
X162170000Y-71800000D03*
X162170000Y-74340000D03*
X162170000Y-76880000D03*
X162170000Y-79420000D03*
X162170000Y-81960000D03*
X162170000Y-84500000D03*
X162170000Y-87040000D03*
X162170000Y-89580000D03*
X162170000Y-92120000D03*
X162170000Y-94660000D03*
X162170000Y-97200000D03*
X162170000Y-99740000D03*
X162170000Y-102280000D03*
X162170000Y-104820000D03*
X162170000Y-107360000D03*
%TD*%
D12*
%TO.C,J1*%
X156170000Y-62830000D03*
X150390000Y-62830000D03*
D13*
X157600000Y-63360000D03*
D14*
X157600000Y-59180000D03*
D13*
X148960000Y-63360000D03*
D14*
X148960000Y-59180000D03*
%TD*%
M02*
